<svg width="50" height="50" viewBox="0 0 82 82" fill="none" xmlns="http://www.w3.org/2000/svg">
<path d="M32.8 32.8C32.8 31.9891 32.5596 31.1964 32.109 30.5222C31.6585 29.8479 31.0182 29.3224 30.269 29.0121C29.5198 28.7018 28.6955 28.6206 27.9001 28.7788C27.1048 28.937 26.3743 29.3275 25.8009 29.9009C25.2275 30.4743 24.837 31.2048 24.6788 32.0001C24.5206 32.7954 24.6018 33.6198 24.9121 34.369C25.2224 35.1182 25.7479 35.7585 26.4222 36.209C27.0964 36.6595 27.8891 36.9 28.7 36.9C29.7874 36.9 30.8303 36.468 31.5991 35.6991C32.368 34.9302 32.8 33.8874 32.8 32.8ZM51.25 49.446C50.7845 49.1732 50.2697 48.995 49.7352 48.9215C49.2007 48.8481 48.6569 48.8809 48.1351 49.018C47.6133 49.1551 47.1237 49.3939 46.6943 49.7206C46.2649 50.0473 45.9043 50.4556 45.633 50.922C45.1676 51.7403 44.4937 52.4208 43.6799 52.8941C42.8661 53.3674 41.9415 53.6168 41 53.6168C40.0586 53.6168 39.1339 53.3674 38.3201 52.8941C37.5064 52.4208 36.8325 51.7403 36.367 50.922C36.0957 50.4556 35.7351 50.0473 35.3057 49.7206C34.8764 49.3939 34.3867 49.1551 33.8649 49.018C33.3431 48.8809 32.7993 48.8481 32.2648 48.9215C31.7303 48.995 31.2155 49.1732 30.75 49.446C29.8122 49.9869 29.1264 50.8767 28.8422 51.9213C28.558 52.9659 28.6985 54.0806 29.233 55.022C30.4222 57.0917 32.1363 58.8111 34.2022 60.0068C36.2682 61.2025 38.613 61.8321 41 61.8321C43.387 61.8321 45.7318 61.2025 47.7978 60.0068C49.8638 58.8111 51.5778 57.0917 52.767 55.022C53.3015 54.0806 53.442 52.9659 53.1578 51.9213C52.8736 50.8767 52.1878 49.9869 51.25 49.446ZM53.3 28.7C52.4891 28.7 51.6964 28.9405 51.0222 29.391C50.3479 29.8415 49.8224 30.4818 49.5121 31.231C49.2018 31.9802 49.1206 32.8045 49.2788 33.5999C49.437 34.3952 49.8275 35.1257 50.4009 35.6991C50.9743 36.2725 51.7048 36.663 52.5001 36.8212C53.2955 36.9794 54.1198 36.8982 54.869 36.5879C55.6182 36.2776 56.2585 35.7521 56.709 35.0778C57.1596 34.4036 57.4 33.6109 57.4 32.8C57.4 31.7126 56.968 30.6698 56.1992 29.9009C55.4303 29.132 54.3874 28.7 53.3 28.7ZM41 0C32.891 0 24.9641 2.40461 18.2216 6.90974C11.4792 11.4149 6.22415 17.8182 3.12096 25.31C0.0177646 32.8017 -0.794172 41.0455 0.787822 48.9987C2.36982 56.9519 6.27469 64.2574 12.0086 69.9914C17.7426 75.7253 25.0481 79.6302 33.0013 81.2122C40.9545 82.7942 49.1983 81.9822 56.69 78.879C64.1818 75.7759 70.5851 70.5208 75.0903 63.7784C79.5954 57.0359 82 49.109 82 41C82 35.6158 80.9395 30.2843 78.8791 25.31C76.8186 20.3356 73.7986 15.8158 69.9914 12.0086C66.1842 8.20142 61.6644 5.18138 56.69 3.12094C51.7157 1.0605 46.3842 0 41 0ZM41 73.8C33.363 73.8329 25.9538 71.1999 20.0503 66.355C14.1468 61.5101 10.1189 54.757 8.66134 47.2603C7.20378 39.7635 8.40789 31.9932 12.066 25.2892C15.7242 18.5853 21.607 13.3679 28.7 10.537C28.6578 11.1239 28.6578 11.7131 28.7 12.3C28.7 15.5622 29.9959 18.6907 32.3026 20.9974C34.6093 23.3041 37.7379 24.6 41 24.6C42.0874 24.6 43.1303 24.168 43.8992 23.3991C44.668 22.6302 45.1 21.5874 45.1 20.5C45.1 19.4126 44.668 18.3698 43.8992 17.6009C43.1303 16.832 42.0874 16.4 41 16.4C39.9126 16.4 38.8698 15.968 38.1009 15.1991C37.332 14.4302 36.9 13.3874 36.9 12.3C36.9 11.2126 37.332 10.1698 38.1009 9.40086C38.8698 8.63196 39.9126 8.2 41 8.2C49.6991 8.2 58.0419 11.6557 64.1931 17.8069C70.3443 23.9581 73.8 32.3009 73.8 41C73.8 49.6991 70.3443 58.0419 64.1931 64.1931C58.0419 70.3443 49.6991 73.8 41 73.8Z" fill="#26325B"/>
</svg>
