<svg width="79" height="79" viewBox="0 0 79 79" fill="none" xmlns="http://www.w3.org/2000/svg">
<path d="M23.0417 19.75C22.1687 19.75 21.3314 20.0968 20.7141 20.7141C20.0968 21.3314 19.75 22.1687 19.75 23.0417V36.2083C19.75 37.0813 20.0968 37.9186 20.7141 38.5359C21.3314 39.1532 22.1687 39.5 23.0417 39.5H55.9583C56.8313 39.5 57.6686 39.1532 58.2859 38.5359C58.9032 37.9186 59.25 37.0813 59.25 36.2083V23.0417C59.25 22.1687 58.9032 21.3314 58.2859 20.7141C57.6686 20.0968 56.8313 19.75 55.9583 19.75H23.0417ZM26.3333 32.9167V26.3333H52.6667V32.9167H26.3333Z" fill="#26325B"/>
<path d="M16.4583 0C12.0933 0 7.90707 1.734 4.82053 4.82053C1.734 7.90707 0 12.0933 0 16.4583V62.5417C0 66.9067 1.734 71.0929 4.82053 74.1795C7.90707 77.266 12.0933 79 16.4583 79H62.5417C66.9067 79 71.0929 77.266 74.1795 74.1795C77.266 71.0929 79 66.9067 79 62.5417V16.4583C79 12.0933 77.266 7.90707 74.1795 4.82053C71.0929 1.734 66.9067 0 62.5417 0H16.4583ZM6.58333 16.4583C6.58333 13.8393 7.62373 11.3276 9.47565 9.47565C11.3276 7.62373 13.8393 6.58333 16.4583 6.58333H62.5417C65.1607 6.58333 67.6724 7.62373 69.5243 9.47565C71.3763 11.3276 72.4167 13.8393 72.4167 16.4583V62.5417C72.4167 65.1607 71.3763 67.6724 69.5243 69.5243C67.6724 71.3763 65.1607 72.4167 62.5417 72.4167H16.4583C13.8393 72.4167 11.3276 71.3763 9.47565 69.5243C7.62373 67.6724 6.58333 65.1607 6.58333 62.5417V16.4583Z" fill="#26325B"/>
</svg>
