<svg width="50" height="50" viewBox="0 0 82 82" fill="none" xmlns="http://www.w3.org/2000/svg">
<path d="M28.7 36.9C29.5109 36.9 30.3036 36.6595 30.9779 36.209C31.6521 35.7585 32.1776 35.1182 32.4879 34.369C32.7982 33.6198 32.8794 32.7954 32.7212 32.0001C32.563 31.2048 32.1725 30.4743 31.5992 29.9009C31.0258 29.3275 30.2952 28.937 29.4999 28.7788C28.7046 28.6206 27.8802 28.7018 27.131 29.0121C26.3818 29.3224 25.7415 29.8479 25.291 30.5222C24.8405 31.1964 24.6 31.9891 24.6 32.8C24.6 33.8874 25.032 34.9302 25.8009 35.6991C26.5698 36.468 27.6126 36.9 28.7 36.9ZM53.3 36.9C54.1109 36.9 54.9036 36.6595 55.5779 36.209C56.2521 35.7585 56.7776 35.1182 57.0879 34.369C57.3982 33.6198 57.4794 32.7954 57.3212 32.0001C57.163 31.2048 56.7725 30.4743 56.1991 29.9009C55.6258 29.3275 54.8952 28.937 54.0999 28.7788C53.3046 28.6206 52.4802 28.7018 51.731 29.0121C50.9818 29.3224 50.3415 29.8479 49.891 30.5222C49.4405 31.1964 49.2 31.9891 49.2 32.8C49.2 33.8874 49.632 34.9302 50.4009 35.6991C51.1698 36.468 52.2126 36.9 53.3 36.9ZM54.407 50.02C53.6973 49.4877 52.8341 49.2 51.947 49.2C51.0599 49.2 50.1967 49.4877 49.487 50.02L46.453 52.275L43.46 50.02C42.7503 49.4877 41.8871 49.2 41 49.2C40.1129 49.2 39.2497 49.4877 38.54 50.02L35.547 52.275L32.513 50.02C31.8033 49.4877 30.9401 49.2 30.053 49.2C29.1659 49.2 28.3027 49.4877 27.593 50.02L22.14 54.12C21.7093 54.443 21.3464 54.8478 21.0721 55.3111C20.7977 55.7744 20.6174 56.2871 20.5412 56.8202C20.3874 57.8966 20.6676 58.9901 21.32 59.86C21.9724 60.7299 22.9437 61.305 24.0202 61.4588C25.0966 61.6126 26.1901 61.3324 27.06 60.68L30.053 58.425L33.087 60.68L33.579 60.926C33.8627 61.0774 34.1664 61.1878 34.481 61.254H34.973C35.3133 61.2969 35.6577 61.2969 35.998 61.254H36.408C36.908 61.1201 37.3801 60.8979 37.802 60.598L40.795 58.343L43.788 60.598C44.3706 61.0287 45.057 61.2974 45.7772 61.3766C46.4974 61.4558 47.2257 61.3428 47.888 61.049L48.298 60.844C48.4606 60.7868 48.6129 60.7038 48.749 60.598L51.783 58.343L54.776 60.598C55.4857 61.1303 56.3489 61.418 57.236 61.418C57.8725 61.418 58.5003 61.2698 59.0696 60.9851C59.6389 60.7005 60.1341 60.2872 60.516 59.778C61.1684 58.9081 61.4486 57.8146 61.2948 56.7382C61.141 55.6617 60.5659 54.6904 59.696 54.038L54.407 50.02ZM41 0C32.891 0 24.9641 2.40461 18.2216 6.90974C11.4792 11.4149 6.22415 17.8182 3.12096 25.31C0.0177646 32.8017 -0.794172 41.0455 0.787822 48.9987C2.36982 56.9519 6.27469 64.2574 12.0086 69.9914C17.7426 75.7253 25.0481 79.6302 33.0013 81.2122C40.9545 82.7942 49.1983 81.9822 56.69 78.879C64.1818 75.7759 70.5851 70.5208 75.0903 63.7784C79.5954 57.0359 82 49.109 82 41C82 35.6158 80.9395 30.2843 78.8791 25.31C76.8186 20.3356 73.7986 15.8158 69.9914 12.0086C66.1842 8.20142 61.6644 5.18138 56.69 3.12094C51.7157 1.0605 46.3842 0 41 0V0ZM41 73.8C34.5128 73.8 28.1712 71.8763 22.7773 68.2722C17.3834 64.6681 13.1793 59.5454 10.6968 53.552C8.21422 47.5586 7.56467 40.9636 8.83026 34.601C10.0959 28.2385 13.2198 22.3941 17.8069 17.8069C22.3941 13.2197 28.2385 10.0958 34.6011 8.83024C40.9636 7.56465 47.5586 8.2142 53.552 10.6967C59.5454 13.1793 64.6681 17.3834 68.2722 22.7773C71.8763 28.1712 73.8 34.5128 73.8 41C73.8 49.6991 70.3443 58.0419 64.1931 64.1931C58.0419 70.3443 49.6991 73.8 41 73.8V73.8Z" fill="#26325B"/>
</svg>
