<svg width="188" height="188" viewBox="0 0 188 188" fill="none" xmlns="http://www.w3.org/2000/svg">
<g filter="url(#filter0_d)">
<ellipse cx="98" cy="93.2609" rx="86" ry="86.7391" fill="#E67571"/>
</g>
<g filter="url(#filter1_d)">
<path d="M17.1625 35.8021L96.4895 82.3126C67.944 79.4221 11.6043 71.0705 6.11919 70.1103C2.96267 57.8442 8.89863 42.7772 17.1625 35.8021Z" fill="#26325B"/>
<path d="M17.1625 35.8021L96.4895 82.3126C67.944 79.4221 11.6043 71.0705 6.11919 70.1103C2.96267 57.8442 8.89863 42.7772 17.1625 35.8021Z" stroke="#26325B"/>
</g>
<g filter="url(#filter2_d)">
<path d="M37.9629 119.132L39.4863 113.075H40.8413L38.5342 121H37.4355L35.5093 114.994L33.6343 121H32.5356L30.2358 113.075H31.5835L33.1436 119.008L34.9893 113.075H36.0806L37.9629 119.132ZM43.5806 114.035C44.1812 113.297 44.9624 112.929 45.9243 112.929C47.5991 112.929 48.4438 113.874 48.4585 115.763V121H47.1035V115.756C47.0986 115.185 46.9668 114.762 46.708 114.489C46.4541 114.215 46.0562 114.079 45.5142 114.079C45.0747 114.079 44.689 114.196 44.3569 114.43C44.0249 114.665 43.7661 114.972 43.5806 115.353V121H42.2256V109.75H43.5806V114.035ZM51.9595 121H50.6045V113.075H51.9595V121ZM50.4946 110.973C50.4946 110.753 50.5605 110.568 50.6924 110.417C50.8291 110.265 51.0293 110.189 51.293 110.189C51.5566 110.189 51.7568 110.265 51.8936 110.417C52.0303 110.568 52.0986 110.753 52.0986 110.973C52.0986 111.193 52.0303 111.376 51.8936 111.522C51.7568 111.669 51.5566 111.742 51.293 111.742C51.0293 111.742 50.8291 111.669 50.6924 111.522C50.5605 111.376 50.4946 111.193 50.4946 110.973ZM57.3135 120.041C57.7969 120.041 58.2192 119.894 58.5806 119.601C58.9419 119.308 59.1421 118.942 59.1812 118.502H60.4629C60.4385 118.957 60.2822 119.389 59.9941 119.799C59.7061 120.209 59.3203 120.536 58.8369 120.78C58.3584 121.024 57.8506 121.146 57.3135 121.146C56.2344 121.146 55.375 120.788 54.7354 120.07C54.1006 119.347 53.7832 118.361 53.7832 117.111V116.884C53.7832 116.112 53.9248 115.426 54.208 114.826C54.4912 114.225 54.8965 113.759 55.4238 113.427C55.9561 113.095 56.5835 112.929 57.3062 112.929C58.1948 112.929 58.9321 113.195 59.5181 113.727C60.1089 114.259 60.4238 114.95 60.4629 115.8H59.1812C59.1421 115.287 58.9468 114.867 58.5952 114.54C58.2485 114.208 57.8188 114.042 57.3062 114.042C56.6177 114.042 56.083 114.291 55.7021 114.789C55.3262 115.282 55.1382 115.998 55.1382 116.935V117.191C55.1382 118.104 55.3262 118.808 55.7021 119.301C56.0781 119.794 56.6152 120.041 57.3135 120.041ZM63.3413 114.035C63.9419 113.297 64.7231 112.929 65.6851 112.929C67.3599 112.929 68.2046 113.874 68.2192 115.763V121H66.8643V115.756C66.8594 115.185 66.7275 114.762 66.4688 114.489C66.2148 114.215 65.8169 114.079 65.2749 114.079C64.8354 114.079 64.4497 114.196 64.1177 114.43C63.7856 114.665 63.5269 114.972 63.3413 115.353V121H61.9863V109.75H63.3413V114.035ZM75.4409 121H74.0859V113.075H75.4409V121ZM73.9761 110.973C73.9761 110.753 74.042 110.568 74.1738 110.417C74.3105 110.265 74.5107 110.189 74.7744 110.189C75.0381 110.189 75.2383 110.265 75.375 110.417C75.5117 110.568 75.5801 110.753 75.5801 110.973C75.5801 111.193 75.5117 111.376 75.375 111.522C75.2383 111.669 75.0381 111.742 74.7744 111.742C74.5107 111.742 74.3105 111.669 74.1738 111.522C74.042 111.376 73.9761 111.193 73.9761 110.973ZM82.2305 118.898C82.2305 118.532 82.0913 118.249 81.813 118.048C81.5396 117.843 81.0586 117.667 80.3701 117.521C79.6865 117.375 79.1421 117.199 78.7368 116.994C78.3364 116.789 78.0386 116.544 77.8433 116.261C77.6528 115.978 77.5576 115.641 77.5576 115.25C77.5576 114.601 77.8311 114.052 78.3779 113.603C78.9297 113.153 79.6328 112.929 80.4873 112.929C81.3857 112.929 82.1133 113.161 82.6699 113.625C83.2314 114.088 83.5122 114.682 83.5122 115.404H82.1499C82.1499 115.033 81.9912 114.713 81.6738 114.445C81.3613 114.176 80.9658 114.042 80.4873 114.042C79.9941 114.042 79.6084 114.149 79.3301 114.364C79.0518 114.579 78.9126 114.86 78.9126 115.207C78.9126 115.534 79.042 115.78 79.3008 115.946C79.5596 116.112 80.0259 116.271 80.6997 116.422C81.3784 116.574 81.9277 116.754 82.3477 116.964C82.7676 117.174 83.0776 117.428 83.2778 117.726C83.4829 118.019 83.5854 118.378 83.5854 118.803C83.5854 119.511 83.3022 120.08 82.7358 120.509C82.1694 120.934 81.4346 121.146 80.5312 121.146C79.8965 121.146 79.335 121.034 78.8467 120.81C78.3584 120.585 77.9751 120.272 77.6968 119.872C77.4233 119.467 77.2866 119.03 77.2866 118.561H78.6416C78.666 119.015 78.8467 119.376 79.1836 119.645C79.5254 119.909 79.9746 120.041 80.5312 120.041C81.0439 120.041 81.4541 119.938 81.7617 119.733C82.0742 119.523 82.2305 119.245 82.2305 118.898ZM90.9097 111.156V113.075H92.3892V114.123H90.9097V119.037C90.9097 119.354 90.9756 119.594 91.1074 119.755C91.2393 119.911 91.4639 119.989 91.7812 119.989C91.9375 119.989 92.1523 119.96 92.4258 119.901V121C92.0693 121.098 91.7227 121.146 91.3857 121.146C90.7803 121.146 90.3237 120.963 90.0161 120.597C89.7085 120.231 89.5547 119.711 89.5547 119.037V114.123H88.1118V113.075H89.5547V111.156H90.9097ZM95.3335 114.035C95.9341 113.297 96.7153 112.929 97.6772 112.929C99.3521 112.929 100.197 113.874 100.211 115.763V121H98.8564V115.756C98.8516 115.185 98.7197 114.762 98.4609 114.489C98.207 114.215 97.8091 114.079 97.2671 114.079C96.8276 114.079 96.4419 114.196 96.1099 114.43C95.7778 114.665 95.519 114.972 95.3335 115.353V121H93.9785V109.75H95.3335V114.035ZM105.529 121.146C104.455 121.146 103.581 120.795 102.907 120.092C102.233 119.384 101.896 118.439 101.896 117.257V117.008C101.896 116.222 102.045 115.521 102.343 114.906C102.646 114.286 103.065 113.803 103.603 113.456C104.145 113.104 104.73 112.929 105.36 112.929C106.391 112.929 107.191 113.268 107.763 113.947C108.334 114.625 108.62 115.597 108.62 116.862V117.426H103.251C103.271 118.207 103.498 118.839 103.932 119.323C104.372 119.801 104.928 120.041 105.602 120.041C106.081 120.041 106.486 119.943 106.818 119.748C107.15 119.552 107.44 119.293 107.689 118.971L108.517 119.616C107.853 120.636 106.857 121.146 105.529 121.146ZM105.36 114.042C104.813 114.042 104.354 114.242 103.983 114.643C103.612 115.038 103.383 115.595 103.295 116.312H107.265V116.21C107.226 115.521 107.04 114.989 106.708 114.613C106.376 114.232 105.927 114.042 105.36 114.042ZM115.27 114.035C115.871 113.297 116.652 112.929 117.614 112.929C119.289 112.929 120.133 113.874 120.148 115.763V121H118.793V115.756C118.788 115.185 118.656 114.762 118.397 114.489C118.144 114.215 117.746 114.079 117.204 114.079C116.764 114.079 116.378 114.196 116.046 114.43C115.714 114.665 115.456 114.972 115.27 115.353V121H113.915V109.75H115.27V114.035ZM123.649 121H122.294V113.075H123.649V121ZM122.184 110.973C122.184 110.753 122.25 110.568 122.382 110.417C122.519 110.265 122.719 110.189 122.982 110.189C123.246 110.189 123.446 110.265 123.583 110.417C123.72 110.568 123.788 110.753 123.788 110.973C123.788 111.193 123.72 111.376 123.583 111.522C123.446 111.669 123.246 111.742 122.982 111.742C122.719 111.742 122.519 111.669 122.382 111.522C122.25 111.376 122.184 111.193 122.184 110.973ZM125.502 116.972C125.502 115.736 125.788 114.755 126.359 114.027C126.93 113.295 127.687 112.929 128.629 112.929C129.596 112.929 130.351 113.271 130.893 113.954L130.958 113.075H132.196V120.81C132.196 121.835 131.891 122.643 131.281 123.234C130.675 123.825 129.86 124.12 128.834 124.12C128.263 124.12 127.704 123.998 127.157 123.754C126.61 123.51 126.193 123.175 125.905 122.75L126.608 121.938C127.189 122.655 127.899 123.014 128.739 123.014C129.398 123.014 129.911 122.829 130.277 122.458C130.648 122.086 130.834 121.564 130.834 120.89V120.209C130.292 120.834 129.552 121.146 128.615 121.146C127.687 121.146 126.935 120.773 126.359 120.026C125.788 119.279 125.502 118.261 125.502 116.972ZM126.864 117.125C126.864 118.019 127.047 118.722 127.414 119.235C127.78 119.743 128.292 119.997 128.952 119.997C129.806 119.997 130.434 119.608 130.834 118.832V115.214C130.419 114.457 129.796 114.079 128.966 114.079C128.307 114.079 127.792 114.335 127.421 114.848C127.05 115.36 126.864 116.12 126.864 117.125ZM135.602 114.035C136.203 113.297 136.984 112.929 137.946 112.929C139.621 112.929 140.465 113.874 140.48 115.763V121H139.125V115.756C139.12 115.185 138.988 114.762 138.729 114.489C138.476 114.215 138.078 114.079 137.536 114.079C137.096 114.079 136.71 114.196 136.378 114.43C136.046 114.665 135.788 114.972 135.602 115.353V121H134.247V109.75H135.602V114.035ZM145.797 121.146C144.723 121.146 143.849 120.795 143.175 120.092C142.501 119.384 142.165 118.439 142.165 117.257V117.008C142.165 116.222 142.313 115.521 142.611 114.906C142.914 114.286 143.334 113.803 143.871 113.456C144.413 113.104 144.999 112.929 145.629 112.929C146.659 112.929 147.46 113.268 148.031 113.947C148.603 114.625 148.888 115.597 148.888 116.862V117.426H143.52C143.539 118.207 143.766 118.839 144.201 119.323C144.64 119.801 145.197 120.041 145.871 120.041C146.349 120.041 146.754 119.943 147.086 119.748C147.418 119.552 147.709 119.293 147.958 118.971L148.786 119.616C148.122 120.636 147.125 121.146 145.797 121.146ZM145.629 114.042C145.082 114.042 144.623 114.242 144.252 114.643C143.881 115.038 143.651 115.595 143.563 116.312H147.533V116.21C147.494 115.521 147.309 114.989 146.977 114.613C146.645 114.232 146.195 114.042 145.629 114.042ZM155.077 118.898C155.077 118.532 154.938 118.249 154.66 118.048C154.386 117.843 153.905 117.667 153.217 117.521C152.533 117.375 151.989 117.199 151.583 116.994C151.183 116.789 150.885 116.544 150.69 116.261C150.5 115.978 150.404 115.641 150.404 115.25C150.404 114.601 150.678 114.052 151.225 113.603C151.776 113.153 152.479 112.929 153.334 112.929C154.232 112.929 154.96 113.161 155.517 113.625C156.078 114.088 156.359 114.682 156.359 115.404H154.997C154.997 115.033 154.838 114.713 154.521 114.445C154.208 114.176 153.812 114.042 153.334 114.042C152.841 114.042 152.455 114.149 152.177 114.364C151.898 114.579 151.759 114.86 151.759 115.207C151.759 115.534 151.889 115.78 152.147 115.946C152.406 116.112 152.873 116.271 153.546 116.422C154.225 116.574 154.774 116.754 155.194 116.964C155.614 117.174 155.924 117.428 156.125 117.726C156.33 118.019 156.432 118.378 156.432 118.803C156.432 119.511 156.149 120.08 155.583 120.509C155.016 120.934 154.281 121.146 153.378 121.146C152.743 121.146 152.182 121.034 151.693 120.81C151.205 120.585 150.822 120.272 150.543 119.872C150.27 119.467 150.133 119.03 150.133 118.561H151.488C151.513 119.015 151.693 119.376 152.03 119.645C152.372 119.909 152.821 120.041 153.378 120.041C153.891 120.041 154.301 119.938 154.608 119.733C154.921 119.523 155.077 119.245 155.077 118.898ZM160.036 111.156V113.075H161.515V114.123H160.036V119.037C160.036 119.354 160.102 119.594 160.233 119.755C160.365 119.911 160.59 119.989 160.907 119.989C161.063 119.989 161.278 119.96 161.552 119.901V121C161.195 121.098 160.849 121.146 160.512 121.146C159.906 121.146 159.45 120.963 159.142 120.597C158.834 120.231 158.681 119.711 158.681 119.037V114.123H157.238V113.075H158.681V111.156H160.036ZM31.3931 131.075L31.4297 131.954C32.0107 131.271 32.7944 130.929 33.7808 130.929C34.8892 130.929 35.6436 131.354 36.0439 132.203C36.3076 131.822 36.6494 131.515 37.0693 131.28C37.4941 131.046 37.9946 130.929 38.5708 130.929C40.3091 130.929 41.1929 131.849 41.2222 133.69V139H39.8672V133.771C39.8672 133.204 39.7378 132.782 39.479 132.503C39.2202 132.22 38.7856 132.079 38.1753 132.079C37.6724 132.079 37.2549 132.23 36.9229 132.533C36.5908 132.831 36.3979 133.233 36.3442 133.741V139H34.9819V133.807C34.9819 132.655 34.418 132.079 33.29 132.079C32.4014 132.079 31.7935 132.457 31.4663 133.214V139H30.1113V131.075H31.3931ZM42.9141 134.964C42.9141 134.188 43.0654 133.49 43.3682 132.87C43.6758 132.25 44.1006 131.771 44.6426 131.434C45.1895 131.097 45.812 130.929 46.5103 130.929C47.5894 130.929 48.4609 131.302 49.125 132.049C49.7939 132.796 50.1284 133.79 50.1284 135.03V135.125C50.1284 135.897 49.9795 136.59 49.6816 137.206C49.3887 137.816 48.9663 138.292 48.4146 138.634C47.8677 138.976 47.2378 139.146 46.5249 139.146C45.4507 139.146 44.5791 138.773 43.9102 138.026C43.2461 137.279 42.9141 136.29 42.9141 135.06V134.964ZM44.2764 135.125C44.2764 136.004 44.479 136.71 44.8843 137.242C45.2944 137.774 45.8413 138.041 46.5249 138.041C47.2134 138.041 47.7603 137.772 48.1655 137.235C48.5708 136.693 48.7734 135.936 48.7734 134.964C48.7734 134.095 48.5659 133.392 48.1509 132.855C47.7407 132.313 47.1938 132.042 46.5103 132.042C45.8413 132.042 45.3018 132.308 44.8916 132.84C44.4814 133.373 44.2764 134.134 44.2764 135.125ZM55.6582 132.291C55.4531 132.257 55.231 132.24 54.9917 132.24C54.103 132.24 53.5 132.618 53.1826 133.375V139H51.8276V131.075H53.146L53.168 131.991C53.6123 131.283 54.2422 130.929 55.0576 130.929C55.3213 130.929 55.5215 130.963 55.6582 131.031V132.291ZM59.1152 129.156V131.075H60.5947V132.123H59.1152V137.037C59.1152 137.354 59.1812 137.594 59.313 137.755C59.4448 137.911 59.6694 137.989 59.9868 137.989C60.1431 137.989 60.3579 137.96 60.6313 137.901V139C60.2749 139.098 59.9282 139.146 59.5913 139.146C58.9858 139.146 58.5293 138.963 58.2217 138.597C57.9141 138.231 57.7603 137.711 57.7603 137.037V132.123H56.3174V131.075H57.7603V129.156H59.1152ZM67.0767 139C66.9985 138.844 66.9351 138.565 66.8862 138.165C66.2563 138.819 65.5044 139.146 64.6304 139.146C63.8491 139.146 63.207 138.927 62.7041 138.487C62.2061 138.043 61.957 137.481 61.957 136.803C61.957 135.978 62.2695 135.338 62.8945 134.884C63.5244 134.425 64.4082 134.195 65.5459 134.195H66.8643V133.573C66.8643 133.099 66.7227 132.723 66.4395 132.445C66.1562 132.162 65.7388 132.02 65.187 132.02C64.7036 132.02 64.2983 132.142 63.9712 132.386C63.644 132.63 63.4805 132.926 63.4805 133.272H62.1182C62.1182 132.877 62.2573 132.496 62.5356 132.13C62.8188 131.759 63.1997 131.466 63.6782 131.251C64.1616 131.036 64.6914 130.929 65.2676 130.929C66.1807 130.929 66.896 131.158 67.4136 131.617C67.9312 132.071 68.1997 132.699 68.2192 133.5V137.147C68.2192 137.875 68.312 138.453 68.4976 138.883V139H67.0767ZM64.8281 137.967C65.2529 137.967 65.6558 137.857 66.0366 137.638C66.4175 137.418 66.6934 137.132 66.8643 136.781V135.155H65.8022C64.1421 135.155 63.312 135.641 63.312 136.612C63.312 137.037 63.4536 137.369 63.7368 137.608C64.02 137.848 64.3838 137.967 64.8281 137.967ZM71.8154 139H70.4604V127.75H71.8154V139ZM75.4629 139H74.1079V131.075H75.4629V139ZM73.998 128.973C73.998 128.753 74.064 128.568 74.1958 128.417C74.3325 128.265 74.5327 128.189 74.7964 128.189C75.0601 128.189 75.2603 128.265 75.397 128.417C75.5337 128.568 75.6021 128.753 75.6021 128.973C75.6021 129.193 75.5337 129.376 75.397 129.522C75.2603 129.669 75.0601 129.742 74.7964 129.742C74.5327 129.742 74.3325 129.669 74.1958 129.522C74.064 129.376 73.998 129.193 73.998 128.973ZM79.4766 129.156V131.075H80.9561V132.123H79.4766V137.037C79.4766 137.354 79.5425 137.594 79.6743 137.755C79.8062 137.911 80.0308 137.989 80.3481 137.989C80.5044 137.989 80.7192 137.96 80.9927 137.901V139C80.6362 139.098 80.2896 139.146 79.9526 139.146C79.3472 139.146 78.8906 138.963 78.583 138.597C78.2754 138.231 78.1216 137.711 78.1216 137.037V132.123H76.6787V131.075H78.1216V129.156H79.4766ZM85.1382 137.015L86.9839 131.075H88.4341L85.248 140.223C84.7549 141.542 83.9712 142.201 82.897 142.201L82.6406 142.179L82.1353 142.083V140.985L82.5015 141.014C82.9604 141.014 83.3169 140.921 83.5708 140.736C83.8296 140.55 84.042 140.211 84.208 139.718L84.5083 138.912L81.6812 131.075H83.1606L85.1382 137.015ZM97.2012 132.291C96.9961 132.257 96.7739 132.24 96.5347 132.24C95.646 132.24 95.043 132.618 94.7256 133.375V139H93.3706V131.075H94.689L94.7109 131.991C95.1553 131.283 95.7852 130.929 96.6006 130.929C96.8643 130.929 97.0645 130.963 97.2012 131.031V132.291ZM103.053 139C102.975 138.844 102.912 138.565 102.863 138.165C102.233 138.819 101.481 139.146 100.607 139.146C99.8257 139.146 99.1836 138.927 98.6807 138.487C98.1826 138.043 97.9336 137.481 97.9336 136.803C97.9336 135.978 98.2461 135.338 98.8711 134.884C99.501 134.425 100.385 134.195 101.522 134.195H102.841V133.573C102.841 133.099 102.699 132.723 102.416 132.445C102.133 132.162 101.715 132.02 101.164 132.02C100.68 132.02 100.275 132.142 99.9478 132.386C99.6206 132.63 99.457 132.926 99.457 133.272H98.0947C98.0947 132.877 98.2339 132.496 98.5122 132.13C98.7954 131.759 99.1763 131.466 99.6548 131.251C100.138 131.036 100.668 130.929 101.244 130.929C102.157 130.929 102.873 131.158 103.39 131.617C103.908 132.071 104.176 132.699 104.196 133.5V137.147C104.196 137.875 104.289 138.453 104.474 138.883V139H103.053ZM100.805 137.967C101.229 137.967 101.632 137.857 102.013 137.638C102.394 137.418 102.67 137.132 102.841 136.781V135.155H101.779C100.119 135.155 99.2886 135.641 99.2886 136.612C99.2886 137.037 99.4302 137.369 99.7134 137.608C99.9966 137.848 100.36 137.967 100.805 137.967ZM108.158 129.156V131.075H109.638V132.123H108.158V137.037C108.158 137.354 108.224 137.594 108.356 137.755C108.488 137.911 108.712 137.989 109.03 137.989C109.186 137.989 109.401 137.96 109.674 137.901V139C109.318 139.098 108.971 139.146 108.634 139.146C108.029 139.146 107.572 138.963 107.265 138.597C106.957 138.231 106.803 137.711 106.803 137.037V132.123H105.36V131.075H106.803V129.156H108.158ZM114.516 139.146C113.441 139.146 112.567 138.795 111.894 138.092C111.22 137.384 110.883 136.439 110.883 135.257V135.008C110.883 134.222 111.032 133.521 111.33 132.906C111.632 132.286 112.052 131.803 112.589 131.456C113.131 131.104 113.717 130.929 114.347 130.929C115.377 130.929 116.178 131.268 116.75 131.947C117.321 132.625 117.606 133.597 117.606 134.862V135.426H112.238C112.257 136.207 112.484 136.839 112.919 137.323C113.358 137.801 113.915 138.041 114.589 138.041C115.067 138.041 115.473 137.943 115.805 137.748C116.137 137.552 116.427 137.293 116.676 136.971L117.504 137.616C116.84 138.636 115.844 139.146 114.516 139.146ZM114.347 132.042C113.8 132.042 113.341 132.242 112.97 132.643C112.599 133.038 112.37 133.595 112.282 134.312H116.251V134.21C116.212 133.521 116.027 132.989 115.695 132.613C115.363 132.232 114.914 132.042 114.347 132.042ZM122.543 134.964C122.543 134.188 122.694 133.49 122.997 132.87C123.305 132.25 123.729 131.771 124.271 131.434C124.818 131.097 125.441 130.929 126.139 130.929C127.218 130.929 128.09 131.302 128.754 132.049C129.423 132.796 129.757 133.79 129.757 135.03V135.125C129.757 135.897 129.608 136.59 129.311 137.206C129.018 137.816 128.595 138.292 128.043 138.634C127.497 138.976 126.867 139.146 126.154 139.146C125.08 139.146 124.208 138.773 123.539 138.026C122.875 137.279 122.543 136.29 122.543 135.06V134.964ZM123.905 135.125C123.905 136.004 124.108 136.71 124.513 137.242C124.923 137.774 125.47 138.041 126.154 138.041C126.842 138.041 127.389 137.772 127.794 137.235C128.2 136.693 128.402 135.936 128.402 134.964C128.402 134.095 128.195 133.392 127.78 132.855C127.37 132.313 126.823 132.042 126.139 132.042C125.47 132.042 124.931 132.308 124.521 132.84C124.11 133.373 123.905 134.134 123.905 135.125ZM132.123 139V132.123H130.871V131.075H132.123V130.262C132.123 129.413 132.35 128.756 132.804 128.292C133.258 127.828 133.9 127.596 134.73 127.596C135.043 127.596 135.353 127.638 135.661 127.721L135.587 128.819C135.358 128.775 135.114 128.753 134.855 128.753C134.416 128.753 134.076 128.883 133.837 129.142C133.598 129.396 133.478 129.762 133.478 130.24V131.075H135.17V132.123H133.478V139H132.123ZM145.285 139C145.207 138.844 145.143 138.565 145.094 138.165C144.464 138.819 143.712 139.146 142.838 139.146C142.057 139.146 141.415 138.927 140.912 138.487C140.414 138.043 140.165 137.481 140.165 136.803C140.165 135.978 140.478 135.338 141.103 134.884C141.732 134.425 142.616 134.195 143.754 134.195H145.072V133.573C145.072 133.099 144.931 132.723 144.647 132.445C144.364 132.162 143.947 132.02 143.395 132.02C142.912 132.02 142.506 132.142 142.179 132.386C141.852 132.63 141.688 132.926 141.688 133.272H140.326C140.326 132.877 140.465 132.496 140.744 132.13C141.027 131.759 141.408 131.466 141.886 131.251C142.37 131.036 142.899 130.929 143.476 130.929C144.389 130.929 145.104 131.158 145.622 131.617C146.139 132.071 146.408 132.699 146.427 133.5V137.147C146.427 137.875 146.52 138.453 146.706 138.883V139H145.285ZM143.036 137.967C143.461 137.967 143.864 137.857 144.245 137.638C144.625 137.418 144.901 137.132 145.072 136.781V135.155H144.01C142.35 135.155 141.52 135.641 141.52 136.612C141.52 137.037 141.662 137.369 141.945 137.608C142.228 137.848 142.592 137.967 143.036 137.967ZM149.833 131.075L149.877 132.071C150.482 131.31 151.273 130.929 152.25 130.929C153.925 130.929 154.77 131.874 154.784 133.763V139H153.429V133.756C153.424 133.185 153.292 132.762 153.034 132.489C152.78 132.215 152.382 132.079 151.84 132.079C151.4 132.079 151.015 132.196 150.683 132.43C150.351 132.665 150.092 132.972 149.906 133.353V139H148.551V131.075H149.833ZM159.42 137.015L161.266 131.075H162.716L159.53 140.223C159.037 141.542 158.253 142.201 157.179 142.201L156.923 142.179L156.417 142.083V140.985L156.784 141.014C157.243 141.014 157.599 140.921 157.853 140.736C158.112 140.55 158.324 140.211 158.49 139.718L158.791 138.912L155.963 131.075H157.443L159.42 137.015ZM56.2075 149.075L56.2441 149.954C56.8252 149.271 57.6089 148.929 58.5952 148.929C59.7036 148.929 60.458 149.354 60.8584 150.203C61.1221 149.822 61.4639 149.515 61.8838 149.28C62.3086 149.046 62.8091 148.929 63.3853 148.929C65.1235 148.929 66.0073 149.849 66.0366 151.69V157H64.6816V151.771C64.6816 151.204 64.5522 150.782 64.2935 150.503C64.0347 150.22 63.6001 150.079 62.9897 150.079C62.4868 150.079 62.0693 150.23 61.7373 150.533C61.4053 150.831 61.2124 151.233 61.1587 151.741V157H59.7964V151.807C59.7964 150.655 59.2324 150.079 58.1045 150.079C57.2158 150.079 56.6079 150.457 56.2808 151.214V157H54.9258V149.075H56.2075ZM71.376 157.146C70.3018 157.146 69.4277 156.795 68.7539 156.092C68.0801 155.384 67.7432 154.439 67.7432 153.257V153.008C67.7432 152.222 67.8921 151.521 68.1899 150.906C68.4927 150.286 68.9126 149.803 69.4497 149.456C69.9917 149.104 70.5776 148.929 71.2075 148.929C72.2378 148.929 73.0386 149.268 73.6099 149.947C74.1812 150.625 74.4668 151.597 74.4668 152.862V153.426H69.0981C69.1177 154.207 69.3447 154.839 69.7793 155.323C70.2188 155.801 70.7754 156.041 71.4492 156.041C71.9277 156.041 72.333 155.943 72.665 155.748C72.9971 155.552 73.2876 155.293 73.5366 154.971L74.3643 155.616C73.7002 156.636 72.7041 157.146 71.376 157.146ZM71.2075 150.042C70.6606 150.042 70.2017 150.242 69.8306 150.643C69.4595 151.038 69.23 151.595 69.1421 152.312H73.1118V152.21C73.0728 151.521 72.8872 150.989 72.5552 150.613C72.2231 150.232 71.7739 150.042 71.2075 150.042ZM77.3232 149.075L77.3672 150.071C77.9727 149.31 78.7637 148.929 79.7402 148.929C81.415 148.929 82.2598 149.874 82.2744 151.763V157H80.9194V151.756C80.9146 151.185 80.7827 150.762 80.5239 150.489C80.27 150.215 79.8721 150.079 79.3301 150.079C78.8906 150.079 78.5049 150.196 78.1729 150.43C77.8408 150.665 77.582 150.972 77.3965 151.353V157H76.0415V149.075H77.3232ZM86.1562 147.156V149.075H87.6357V150.123H86.1562V155.037C86.1562 155.354 86.2222 155.594 86.354 155.755C86.4858 155.911 86.7104 155.989 87.0278 155.989C87.1841 155.989 87.3989 155.96 87.6724 155.901V157C87.3159 157.098 86.9692 157.146 86.6323 157.146C86.0269 157.146 85.5703 156.963 85.2627 156.597C84.9551 156.231 84.8013 155.711 84.8013 155.037V150.123H83.3584V149.075H84.8013V147.156H86.1562ZM94.1177 157C94.0396 156.844 93.9761 156.565 93.9272 156.165C93.2974 156.819 92.5454 157.146 91.6714 157.146C90.8901 157.146 90.248 156.927 89.7451 156.487C89.2471 156.043 88.998 155.481 88.998 154.803C88.998 153.978 89.3105 153.338 89.9355 152.884C90.5654 152.425 91.4492 152.195 92.5869 152.195H93.9053V151.573C93.9053 151.099 93.7637 150.723 93.4805 150.445C93.1973 150.162 92.7798 150.02 92.228 150.02C91.7446 150.02 91.3394 150.142 91.0122 150.386C90.6851 150.63 90.5215 150.926 90.5215 151.272H89.1592C89.1592 150.877 89.2983 150.496 89.5767 150.13C89.8599 149.759 90.2407 149.466 90.7192 149.251C91.2026 149.036 91.7324 148.929 92.3086 148.929C93.2217 148.929 93.937 149.158 94.4546 149.617C94.9722 150.071 95.2407 150.699 95.2603 151.5V155.147C95.2603 155.875 95.353 156.453 95.5386 156.883V157H94.1177ZM91.8691 155.967C92.2939 155.967 92.6968 155.857 93.0776 155.638C93.4585 155.418 93.7344 155.132 93.9053 154.781V153.155H92.8433C91.1831 153.155 90.353 153.641 90.353 154.612C90.353 155.037 90.4946 155.369 90.7778 155.608C91.061 155.848 91.4248 155.967 91.8691 155.967ZM98.8564 157H97.5015V145.75H98.8564V157ZM106.225 157H104.87V149.075H106.225V157ZM104.76 146.973C104.76 146.753 104.826 146.568 104.958 146.417C105.094 146.265 105.294 146.189 105.558 146.189C105.822 146.189 106.022 146.265 106.159 146.417C106.295 146.568 106.364 146.753 106.364 146.973C106.364 147.193 106.295 147.376 106.159 147.522C106.022 147.669 105.822 147.742 105.558 147.742C105.294 147.742 105.094 147.669 104.958 147.522C104.826 147.376 104.76 147.193 104.76 146.973ZM109.872 157H108.517V145.75H109.872V157ZM113.52 157H112.165V145.75H113.52V157ZM118.983 157.146C117.909 157.146 117.035 156.795 116.361 156.092C115.688 155.384 115.351 154.439 115.351 153.257V153.008C115.351 152.222 115.5 151.521 115.797 150.906C116.1 150.286 116.52 149.803 117.057 149.456C117.599 149.104 118.185 148.929 118.815 148.929C119.845 148.929 120.646 149.268 121.217 149.947C121.789 150.625 122.074 151.597 122.074 152.862V153.426H116.706C116.725 154.207 116.952 154.839 117.387 155.323C117.826 155.801 118.383 156.041 119.057 156.041C119.535 156.041 119.94 155.943 120.272 155.748C120.604 155.552 120.895 155.293 121.144 154.971L121.972 155.616C121.308 156.636 120.312 157.146 118.983 157.146ZM118.815 150.042C118.268 150.042 117.809 150.242 117.438 150.643C117.067 151.038 116.837 151.595 116.75 152.312H120.719V152.21C120.68 151.521 120.495 150.989 120.163 150.613C119.831 150.232 119.381 150.042 118.815 150.042ZM128.263 154.898C128.263 154.532 128.124 154.249 127.846 154.048C127.572 153.843 127.091 153.667 126.403 153.521C125.719 153.375 125.175 153.199 124.77 152.994C124.369 152.789 124.071 152.544 123.876 152.261C123.686 151.978 123.59 151.641 123.59 151.25C123.59 150.601 123.864 150.052 124.411 149.603C124.962 149.153 125.666 148.929 126.52 148.929C127.418 148.929 128.146 149.161 128.703 149.625C129.264 150.088 129.545 150.682 129.545 151.404H128.183C128.183 151.033 128.024 150.713 127.707 150.445C127.394 150.176 126.999 150.042 126.52 150.042C126.027 150.042 125.641 150.149 125.363 150.364C125.084 150.579 124.945 150.86 124.945 151.207C124.945 151.534 125.075 151.78 125.333 151.946C125.592 152.112 126.059 152.271 126.732 152.422C127.411 152.574 127.96 152.754 128.38 152.964C128.8 153.174 129.11 153.428 129.311 153.726C129.516 154.019 129.618 154.378 129.618 154.803C129.618 155.511 129.335 156.08 128.769 156.509C128.202 156.934 127.467 157.146 126.564 157.146C125.929 157.146 125.368 157.034 124.879 156.81C124.391 156.585 124.008 156.272 123.729 155.872C123.456 155.467 123.319 155.03 123.319 154.561H124.674C124.699 155.015 124.879 155.376 125.216 155.645C125.558 155.909 126.007 156.041 126.564 156.041C127.077 156.041 127.487 155.938 127.794 155.733C128.107 155.523 128.263 155.245 128.263 154.898ZM135.998 154.898C135.998 154.532 135.858 154.249 135.58 154.048C135.307 153.843 134.826 153.667 134.137 153.521C133.454 153.375 132.909 153.199 132.504 152.994C132.104 152.789 131.806 152.544 131.61 152.261C131.42 151.978 131.325 151.641 131.325 151.25C131.325 150.601 131.598 150.052 132.145 149.603C132.697 149.153 133.4 148.929 134.254 148.929C135.153 148.929 135.88 149.161 136.437 149.625C136.999 150.088 137.279 150.682 137.279 151.404H135.917C135.917 151.033 135.758 150.713 135.441 150.445C135.128 150.176 134.733 150.042 134.254 150.042C133.761 150.042 133.375 150.149 133.097 150.364C132.819 150.579 132.68 150.86 132.68 151.207C132.68 151.534 132.809 151.78 133.068 151.946C133.327 152.112 133.793 152.271 134.467 152.422C135.146 152.574 135.695 152.754 136.115 152.964C136.535 153.174 136.845 153.428 137.045 153.726C137.25 154.019 137.353 154.378 137.353 154.803C137.353 155.511 137.069 156.08 136.503 156.509C135.937 156.934 135.202 157.146 134.298 157.146C133.664 157.146 133.102 157.034 132.614 156.81C132.125 156.585 131.742 156.272 131.464 155.872C131.19 155.467 131.054 155.03 131.054 154.561H132.409C132.433 155.015 132.614 155.376 132.951 155.645C133.292 155.909 133.742 156.041 134.298 156.041C134.811 156.041 135.221 155.938 135.529 155.733C135.841 155.523 135.998 155.245 135.998 154.898Z" fill="white"/>
</g>
<g filter="url(#filter3_d)">
<path d="M47.9585 49.0708H43.3369V52.8501H48.7056V54H41.9307V43.3359H48.6323V44.4932H43.3369V47.9209H47.9585V49.0708ZM55.1362 54C55.0581 53.8438 54.9946 53.5654 54.9458 53.165C54.3159 53.8193 53.564 54.1465 52.6899 54.1465C51.9087 54.1465 51.2666 53.9268 50.7637 53.4873C50.2656 53.043 50.0166 52.4814 50.0166 51.8027C50.0166 50.9775 50.3291 50.3379 50.9541 49.8838C51.584 49.4248 52.4678 49.1953 53.6055 49.1953H54.9238V48.5728C54.9238 48.0991 54.7822 47.7231 54.499 47.4448C54.2158 47.1616 53.7983 47.02 53.2466 47.02C52.7632 47.02 52.3579 47.1421 52.0308 47.3862C51.7036 47.6304 51.54 47.9258 51.54 48.2725H50.1777C50.1777 47.877 50.3169 47.4961 50.5952 47.1299C50.8784 46.7588 51.2593 46.4658 51.7378 46.251C52.2212 46.0361 52.751 45.9287 53.3271 45.9287C54.2402 45.9287 54.9556 46.1582 55.4731 46.6172C55.9907 47.0713 56.2593 47.6987 56.2788 48.4995V52.147C56.2788 52.8745 56.3716 53.4531 56.5571 53.8828V54H55.1362ZM52.8877 52.9673C53.3125 52.9673 53.7153 52.8574 54.0962 52.6377C54.4771 52.418 54.7529 52.1323 54.9238 51.7808V50.1548H53.8618C52.2017 50.1548 51.3716 50.6406 51.3716 51.6123C51.3716 52.0371 51.5132 52.3691 51.7964 52.6084C52.0796 52.8477 52.4434 52.9673 52.8877 52.9673ZM60.2412 44.1562V46.0752H61.7207V47.1226H60.2412V52.0371C60.2412 52.3545 60.3071 52.5938 60.439 52.7549C60.5708 52.9111 60.7954 52.9893 61.1128 52.9893C61.269 52.9893 61.4839 52.96 61.7573 52.9014V54C61.4009 54.0977 61.0542 54.1465 60.7173 54.1465C60.1118 54.1465 59.6553 53.9634 59.3477 53.5972C59.04 53.231 58.8862 52.7109 58.8862 52.0371V47.1226H57.4434V46.0752H58.8862V44.1562H60.2412ZM64.7822 54H63.4272V46.0752H64.7822V54ZM63.3174 43.9731C63.3174 43.7534 63.3833 43.5679 63.5151 43.4165C63.6519 43.2651 63.8521 43.1895 64.1157 43.1895C64.3794 43.1895 64.5796 43.2651 64.7163 43.4165C64.853 43.5679 64.9214 43.7534 64.9214 43.9731C64.9214 44.1929 64.853 44.376 64.7163 44.5225C64.5796 44.6689 64.3794 44.7422 64.1157 44.7422C63.8521 44.7422 63.6519 44.6689 63.5151 44.5225C63.3833 44.376 63.3174 44.1929 63.3174 43.9731ZM68.2393 46.0752L68.2832 47.0713C68.8887 46.3096 69.6797 45.9287 70.6562 45.9287C72.3311 45.9287 73.1758 46.8735 73.1904 48.7632V54H71.8354V48.7559C71.8306 48.1846 71.6987 47.7622 71.4399 47.4888C71.186 47.2153 70.7881 47.0786 70.2461 47.0786C69.8066 47.0786 69.4209 47.1958 69.0889 47.4302C68.7568 47.6646 68.498 47.9722 68.3125 48.353V54H66.9575V46.0752H68.2393ZM74.9116 49.9717C74.9116 48.7363 75.1973 47.7549 75.7686 47.0273C76.3398 46.2949 77.0967 45.9287 78.0391 45.9287C79.0059 45.9287 79.7603 46.2705 80.3022 46.9541L80.3682 46.0752H81.606V53.8096C81.606 54.835 81.3008 55.6431 80.6904 56.2339C80.085 56.8247 79.2695 57.1201 78.2441 57.1201C77.6729 57.1201 77.1138 56.998 76.5669 56.7539C76.02 56.5098 75.6025 56.1753 75.3145 55.7505L76.0176 54.9375C76.5986 55.6553 77.3091 56.0142 78.1489 56.0142C78.8081 56.0142 79.3208 55.8286 79.687 55.4575C80.0581 55.0864 80.2437 54.564 80.2437 53.8901V53.209C79.7017 53.834 78.9619 54.1465 78.0244 54.1465C77.0967 54.1465 76.3447 53.7729 75.7686 53.0259C75.1973 52.2788 74.9116 51.2607 74.9116 49.9717ZM76.2739 50.1255C76.2739 51.019 76.457 51.7222 76.8232 52.2349C77.1895 52.7427 77.7021 52.9966 78.3613 52.9966C79.2158 52.9966 79.8433 52.6084 80.2437 51.832V48.2139C79.8286 47.457 79.2061 47.0786 78.376 47.0786C77.7168 47.0786 77.2017 47.335 76.8306 47.8477C76.4595 48.3604 76.2739 49.1196 76.2739 50.1255ZM87.5898 54V43.3359H90.6001C91.5278 43.3359 92.3481 43.541 93.061 43.9512C93.7739 44.3613 94.3232 44.9448 94.709 45.7017C95.0996 46.4585 95.2974 47.3276 95.3022 48.3091V48.9902C95.3022 49.9961 95.1069 50.8774 94.7163 51.6343C94.3306 52.3911 93.7764 52.9722 93.0537 53.3774C92.3359 53.7827 91.4985 53.9902 90.5415 54H87.5898ZM88.9961 44.4932V52.8501H90.4756C91.5596 52.8501 92.4019 52.5132 93.0024 51.8394C93.6079 51.1655 93.9106 50.2061 93.9106 48.9609V48.3384C93.9106 47.1274 93.625 46.1875 93.0537 45.5186C92.4873 44.8447 91.6816 44.5029 90.6367 44.4932H88.9961ZM98.6934 54H97.3384V46.0752H98.6934V54ZM97.2285 43.9731C97.2285 43.7534 97.2944 43.5679 97.4263 43.4165C97.563 43.2651 97.7632 43.1895 98.0269 43.1895C98.2905 43.1895 98.4907 43.2651 98.6274 43.4165C98.7642 43.5679 98.8325 43.7534 98.8325 43.9731C98.8325 44.1929 98.7642 44.376 98.6274 44.5225C98.4907 44.6689 98.2905 44.7422 98.0269 44.7422C97.7632 44.7422 97.563 44.6689 97.4263 44.5225C97.2944 44.376 97.2285 44.1929 97.2285 43.9731ZM105.483 51.8979C105.483 51.5317 105.344 51.2485 105.065 51.0483C104.792 50.8433 104.311 50.6675 103.623 50.521C102.939 50.3745 102.395 50.1987 101.989 49.9937C101.589 49.7886 101.291 49.5444 101.096 49.2612C100.905 48.978 100.81 48.6411 100.81 48.2505C100.81 47.6011 101.083 47.0518 101.63 46.6025C102.182 46.1533 102.885 45.9287 103.74 45.9287C104.638 45.9287 105.366 46.1606 105.922 46.6245C106.484 47.0884 106.765 47.6816 106.765 48.4043H105.402C105.402 48.0332 105.244 47.7134 104.926 47.4448C104.614 47.1763 104.218 47.042 103.74 47.042C103.247 47.042 102.861 47.1494 102.583 47.3643C102.304 47.5791 102.165 47.8599 102.165 48.2065C102.165 48.5337 102.294 48.7803 102.553 48.9463C102.812 49.1123 103.278 49.271 103.952 49.4224C104.631 49.5737 105.18 49.7544 105.6 49.9644C106.02 50.1743 106.33 50.4282 106.53 50.7261C106.735 51.019 106.838 51.3779 106.838 51.8027C106.838 52.5107 106.555 53.0796 105.988 53.5093C105.422 53.9341 104.687 54.1465 103.784 54.1465C103.149 54.1465 102.587 54.0342 102.099 53.8096C101.611 53.585 101.228 53.2725 100.949 52.8721C100.676 52.4668 100.539 52.0298 100.539 51.561H101.894C101.918 52.0151 102.099 52.3765 102.436 52.645C102.778 52.9087 103.227 53.0405 103.784 53.0405C104.296 53.0405 104.707 52.938 105.014 52.7329C105.327 52.5229 105.483 52.2446 105.483 51.8979ZM108.244 49.9644C108.244 49.188 108.396 48.4897 108.698 47.8696C109.006 47.2495 109.431 46.771 109.973 46.4341C110.52 46.0972 111.142 45.9287 111.84 45.9287C112.919 45.9287 113.791 46.3022 114.455 47.0493C115.124 47.7964 115.458 48.79 115.458 50.0303V50.1255C115.458 50.897 115.31 51.5903 115.012 52.2056C114.719 52.8159 114.296 53.292 113.745 53.6338C113.198 53.9756 112.568 54.1465 111.855 54.1465C110.781 54.1465 109.909 53.7729 109.24 53.0259C108.576 52.2788 108.244 51.29 108.244 50.0596V49.9644ZM109.606 50.1255C109.606 51.0044 109.809 51.71 110.214 52.2422C110.625 52.7744 111.171 53.0405 111.855 53.0405C112.543 53.0405 113.09 52.772 113.496 52.2349C113.901 51.6929 114.104 50.936 114.104 49.9644C114.104 49.0952 113.896 48.3921 113.481 47.855C113.071 47.313 112.524 47.042 111.84 47.042C111.171 47.042 110.632 47.3081 110.222 47.8403C109.812 48.3726 109.606 49.1343 109.606 50.1255ZM120.988 47.291C120.783 47.2568 120.561 47.2397 120.322 47.2397C119.433 47.2397 118.83 47.6182 118.513 48.375V54H117.158V46.0752H118.476L118.498 46.9907C118.942 46.2827 119.572 45.9287 120.388 45.9287C120.651 45.9287 120.852 45.9629 120.988 46.0312V47.291ZM121.765 49.9717C121.765 48.7559 122.053 47.7793 122.629 47.042C123.205 46.2998 123.959 45.9287 124.892 45.9287C125.82 45.9287 126.555 46.2461 127.097 46.8809V42.75H128.452V54H127.207L127.141 53.1504C126.599 53.8145 125.844 54.1465 124.877 54.1465C123.959 54.1465 123.21 53.7705 122.629 53.0186C122.053 52.2666 121.765 51.2852 121.765 50.0742V49.9717ZM123.12 50.1255C123.12 51.0239 123.305 51.7271 123.676 52.2349C124.047 52.7427 124.56 52.9966 125.214 52.9966C126.074 52.9966 126.701 52.6108 127.097 51.8394V48.1992C126.691 47.4521 126.069 47.0786 125.229 47.0786C124.565 47.0786 124.047 47.335 123.676 47.8477C123.305 48.3604 123.12 49.1196 123.12 50.1255ZM133.85 54.1465C132.775 54.1465 131.901 53.7949 131.228 53.0918C130.554 52.3838 130.217 51.439 130.217 50.2573V50.0083C130.217 49.2222 130.366 48.5215 130.664 47.9062C130.966 47.2861 131.386 46.8027 131.923 46.4561C132.465 46.1045 133.051 45.9287 133.681 45.9287C134.711 45.9287 135.512 46.2681 136.083 46.9468C136.655 47.6255 136.94 48.5972 136.94 49.8618V50.4258H131.572C131.591 51.207 131.818 51.8394 132.253 52.3228C132.692 52.8013 133.249 53.0405 133.923 53.0405C134.401 53.0405 134.807 52.9429 135.139 52.7476C135.471 52.5522 135.761 52.2935 136.01 51.9712L136.838 52.6157C136.174 53.6362 135.178 54.1465 133.85 54.1465ZM133.681 47.042C133.134 47.042 132.675 47.2422 132.304 47.6426C131.933 48.0381 131.704 48.5947 131.616 49.3125H135.585V49.21C135.546 48.5215 135.361 47.9893 135.029 47.6133C134.697 47.2324 134.248 47.042 133.681 47.042ZM142.346 47.291C142.141 47.2568 141.918 47.2397 141.679 47.2397C140.791 47.2397 140.188 47.6182 139.87 48.375V54H138.515V46.0752H139.833L139.855 46.9907C140.3 46.2827 140.93 45.9287 141.745 45.9287C142.009 45.9287 142.209 45.9629 142.346 46.0312V47.291ZM148.212 51.8979C148.212 51.5317 148.073 51.2485 147.795 51.0483C147.521 50.8433 147.041 50.6675 146.352 50.521C145.668 50.3745 145.124 50.1987 144.719 49.9937C144.318 49.7886 144.021 49.5444 143.825 49.2612C143.635 48.978 143.54 48.6411 143.54 48.2505C143.54 47.6011 143.813 47.0518 144.36 46.6025C144.912 46.1533 145.615 45.9287 146.469 45.9287C147.368 45.9287 148.095 46.1606 148.652 46.6245C149.213 47.0884 149.494 47.6816 149.494 48.4043H148.132C148.132 48.0332 147.973 47.7134 147.656 47.4448C147.343 47.1763 146.948 47.042 146.469 47.042C145.976 47.042 145.59 47.1494 145.312 47.3643C145.034 47.5791 144.895 47.8599 144.895 48.2065C144.895 48.5337 145.024 48.7803 145.283 48.9463C145.542 49.1123 146.008 49.271 146.682 49.4224C147.36 49.5737 147.91 49.7544 148.33 49.9644C148.75 50.1743 149.06 50.4282 149.26 50.7261C149.465 51.019 149.567 51.3779 149.567 51.8027C149.567 52.5107 149.284 53.0796 148.718 53.5093C148.151 53.9341 147.417 54.1465 146.513 54.1465C145.878 54.1465 145.317 54.0342 144.829 53.8096C144.34 53.585 143.957 53.2725 143.679 52.8721C143.405 52.4668 143.269 52.0298 143.269 51.561H144.624C144.648 52.0151 144.829 52.3765 145.166 52.645C145.507 52.9087 145.957 53.0405 146.513 53.0405C147.026 53.0405 147.436 52.938 147.744 52.7329C148.056 52.5229 148.212 52.2446 148.212 51.8979ZM45.7173 64.0752L45.7539 64.9541C46.335 64.2705 47.1187 63.9287 48.105 63.9287C49.2134 63.9287 49.9678 64.3535 50.3682 65.2031C50.6318 64.8223 50.9736 64.5146 51.3936 64.2803C51.8184 64.0459 52.3188 63.9287 52.895 63.9287C54.6333 63.9287 55.5171 64.8491 55.5464 66.6899V72H54.1914V66.7705C54.1914 66.2041 54.062 65.7817 53.8032 65.5034C53.5444 65.2202 53.1099 65.0786 52.4995 65.0786C51.9966 65.0786 51.5791 65.23 51.2471 65.5327C50.915 65.8306 50.7222 66.2334 50.6685 66.7412V72H49.3062V66.8071C49.3062 65.6548 48.7422 65.0786 47.6143 65.0786C46.7256 65.0786 46.1177 65.457 45.7905 66.2139V72H44.4355V64.0752H45.7173ZM57.2383 67.9644C57.2383 67.188 57.3896 66.4897 57.6924 65.8696C58 65.2495 58.4248 64.771 58.9668 64.4341C59.5137 64.0972 60.1362 63.9287 60.8345 63.9287C61.9136 63.9287 62.7852 64.3022 63.4492 65.0493C64.1182 65.7964 64.4526 66.79 64.4526 68.0303V68.1255C64.4526 68.897 64.3037 69.5903 64.0059 70.2056C63.7129 70.8159 63.2905 71.292 62.7388 71.6338C62.1919 71.9756 61.562 72.1465 60.8491 72.1465C59.7749 72.1465 58.9033 71.7729 58.2344 71.0259C57.5703 70.2788 57.2383 69.29 57.2383 68.0596V67.9644ZM58.6006 68.1255C58.6006 69.0044 58.8032 69.71 59.2085 70.2422C59.6187 70.7744 60.1655 71.0405 60.8491 71.0405C61.5376 71.0405 62.0845 70.772 62.4897 70.2349C62.895 69.6929 63.0977 68.936 63.0977 67.9644C63.0977 67.0952 62.8901 66.3921 62.4751 65.855C62.0649 65.313 61.5181 65.042 60.8345 65.042C60.1655 65.042 59.626 65.3081 59.2158 65.8403C58.8057 66.3726 58.6006 67.1343 58.6006 68.1255ZM69.9824 65.291C69.7773 65.2568 69.5552 65.2397 69.3159 65.2397C68.4272 65.2397 67.8242 65.6182 67.5068 66.375V72H66.1519V64.0752H67.4702L67.4922 64.9907C67.9365 64.2827 68.5664 63.9287 69.3818 63.9287C69.6455 63.9287 69.8457 63.9629 69.9824 64.0312V65.291ZM73.4395 62.1562V64.0752H74.9189V65.1226H73.4395V70.0371C73.4395 70.3545 73.5054 70.5938 73.6372 70.7549C73.769 70.9111 73.9937 70.9893 74.311 70.9893C74.4673 70.9893 74.6821 70.96 74.9556 70.9014V72C74.5991 72.0977 74.2524 72.1465 73.9155 72.1465C73.3101 72.1465 72.8535 71.9634 72.5459 71.5972C72.2383 71.231 72.0845 70.7109 72.0845 70.0371V65.1226H70.6416V64.0752H72.0845V62.1562H73.4395ZM81.4009 72C81.3228 71.8438 81.2593 71.5654 81.2104 71.165C80.5806 71.8193 79.8286 72.1465 78.9546 72.1465C78.1733 72.1465 77.5312 71.9268 77.0283 71.4873C76.5303 71.043 76.2812 70.4814 76.2812 69.8027C76.2812 68.9775 76.5938 68.3379 77.2188 67.8838C77.8486 67.4248 78.7324 67.1953 79.8701 67.1953H81.1885V66.5728C81.1885 66.0991 81.0469 65.7231 80.7637 65.4448C80.4805 65.1616 80.063 65.02 79.5112 65.02C79.0278 65.02 78.6226 65.1421 78.2954 65.3862C77.9683 65.6304 77.8047 65.9258 77.8047 66.2725H76.4424C76.4424 65.877 76.5815 65.4961 76.8599 65.1299C77.1431 64.7588 77.5239 64.4658 78.0024 64.251C78.4858 64.0361 79.0156 63.9287 79.5918 63.9287C80.5049 63.9287 81.2202 64.1582 81.7378 64.6172C82.2554 65.0713 82.5239 65.6987 82.5435 66.4995V70.147C82.5435 70.8745 82.6362 71.4531 82.8218 71.8828V72H81.4009ZM79.1523 70.9673C79.5771 70.9673 79.98 70.8574 80.3608 70.6377C80.7417 70.418 81.0176 70.1323 81.1885 69.7808V68.1548H80.1265C78.4663 68.1548 77.6362 68.6406 77.6362 69.6123C77.6362 70.0371 77.7778 70.3691 78.061 70.6084C78.3442 70.8477 78.708 70.9673 79.1523 70.9673ZM86.1396 72H84.7847V60.75H86.1396V72ZM89.7871 72H88.4321V64.0752H89.7871V72ZM88.3223 61.9731C88.3223 61.7534 88.3882 61.5679 88.52 61.4165C88.6567 61.2651 88.8569 61.1895 89.1206 61.1895C89.3843 61.1895 89.5845 61.2651 89.7212 61.4165C89.8579 61.5679 89.9263 61.7534 89.9263 61.9731C89.9263 62.1929 89.8579 62.376 89.7212 62.5225C89.5845 62.6689 89.3843 62.7422 89.1206 62.7422C88.8569 62.7422 88.6567 62.6689 88.52 62.5225C88.3882 62.376 88.3223 62.1929 88.3223 61.9731ZM93.8008 62.1562V64.0752H95.2803V65.1226H93.8008V70.0371C93.8008 70.3545 93.8667 70.5938 93.9985 70.7549C94.1304 70.9111 94.355 70.9893 94.6724 70.9893C94.8286 70.9893 95.0435 70.96 95.3169 70.9014V72C94.9604 72.0977 94.6138 72.1465 94.2769 72.1465C93.6714 72.1465 93.2148 71.9634 92.9072 71.5972C92.5996 71.231 92.4458 70.7109 92.4458 70.0371V65.1226H91.0029V64.0752H92.4458V62.1562H93.8008ZM99.4624 70.0151L101.308 64.0752H102.758L99.5723 73.2231C99.0791 74.5415 98.2954 75.2007 97.2212 75.2007L96.9648 75.1787L96.4595 75.0835V73.9849L96.8257 74.0142C97.2847 74.0142 97.6411 73.9214 97.895 73.7358C98.1538 73.5503 98.3662 73.2109 98.5322 72.7178L98.8325 71.9121L96.0054 64.0752H97.4849L99.4624 70.0151ZM111.525 65.291C111.32 65.2568 111.098 65.2397 110.859 65.2397C109.97 65.2397 109.367 65.6182 109.05 66.375V72H107.695V64.0752H109.013L109.035 64.9907C109.479 64.2827 110.109 63.9287 110.925 63.9287C111.188 63.9287 111.389 63.9629 111.525 64.0312V65.291ZM117.377 72C117.299 71.8438 117.236 71.5654 117.187 71.165C116.557 71.8193 115.805 72.1465 114.931 72.1465C114.15 72.1465 113.508 71.9268 113.005 71.4873C112.507 71.043 112.258 70.4814 112.258 69.8027C112.258 68.9775 112.57 68.3379 113.195 67.8838C113.825 67.4248 114.709 67.1953 115.847 67.1953H117.165V66.5728C117.165 66.0991 117.023 65.7231 116.74 65.4448C116.457 65.1616 116.04 65.02 115.488 65.02C115.004 65.02 114.599 65.1421 114.272 65.3862C113.945 65.6304 113.781 65.9258 113.781 66.2725H112.419C112.419 65.877 112.558 65.4961 112.836 65.1299C113.12 64.7588 113.5 64.4658 113.979 64.251C114.462 64.0361 114.992 63.9287 115.568 63.9287C116.481 63.9287 117.197 64.1582 117.714 64.6172C118.232 65.0713 118.5 65.6987 118.52 66.4995V70.147C118.52 70.8745 118.613 71.4531 118.798 71.8828V72H117.377ZM115.129 70.9673C115.554 70.9673 115.957 70.8574 116.337 70.6377C116.718 70.418 116.994 70.1323 117.165 69.7808V68.1548H116.103C114.443 68.1548 113.613 68.6406 113.613 69.6123C113.613 70.0371 113.754 70.3691 114.038 70.6084C114.321 70.8477 114.685 70.9673 115.129 70.9673ZM122.482 62.1562V64.0752H123.962V65.1226H122.482V70.0371C122.482 70.3545 122.548 70.5938 122.68 70.7549C122.812 70.9111 123.037 70.9893 123.354 70.9893C123.51 70.9893 123.725 70.96 123.999 70.9014V72C123.642 72.0977 123.295 72.1465 122.958 72.1465C122.353 72.1465 121.896 71.9634 121.589 71.5972C121.281 71.231 121.127 70.7109 121.127 70.0371V65.1226H119.685V64.0752H121.127V62.1562H122.482ZM128.84 72.1465C127.766 72.1465 126.892 71.7949 126.218 71.0918C125.544 70.3838 125.207 69.439 125.207 68.2573V68.0083C125.207 67.2222 125.356 66.5215 125.654 65.9062C125.957 65.2861 126.376 64.8027 126.914 64.4561C127.456 64.1045 128.042 63.9287 128.671 63.9287C129.702 63.9287 130.502 64.2681 131.074 64.9468C131.645 65.6255 131.931 66.5972 131.931 67.8618V68.4258H126.562C126.582 69.207 126.809 69.8394 127.243 70.3228C127.683 70.8013 128.239 71.0405 128.913 71.0405C129.392 71.0405 129.797 70.9429 130.129 70.7476C130.461 70.5522 130.751 70.2935 131 69.9712L131.828 70.6157C131.164 71.6362 130.168 72.1465 128.84 72.1465ZM128.671 65.042C128.125 65.042 127.666 65.2422 127.294 65.6426C126.923 66.0381 126.694 66.5947 126.606 67.3125H130.576V67.21C130.537 66.5215 130.351 65.9893 130.019 65.6133C129.687 65.2324 129.238 65.042 128.671 65.042ZM138.698 72H137.343V64.0752H138.698V72ZM137.233 61.9731C137.233 61.7534 137.299 61.5679 137.431 61.4165C137.568 61.2651 137.768 61.1895 138.032 61.1895C138.295 61.1895 138.496 61.2651 138.632 61.4165C138.769 61.5679 138.837 61.7534 138.837 61.9731C138.837 62.1929 138.769 62.376 138.632 62.5225C138.496 62.6689 138.295 62.7422 138.032 62.7422C137.768 62.7422 137.568 62.6689 137.431 62.5225C137.299 62.376 137.233 62.1929 137.233 61.9731ZM145.488 69.8979C145.488 69.5317 145.349 69.2485 145.07 69.0483C144.797 68.8433 144.316 68.6675 143.627 68.521C142.944 68.3745 142.399 68.1987 141.994 67.9937C141.594 67.7886 141.296 67.5444 141.101 67.2612C140.91 66.978 140.815 66.6411 140.815 66.2505C140.815 65.6011 141.088 65.0518 141.635 64.6025C142.187 64.1533 142.89 63.9287 143.745 63.9287C144.643 63.9287 145.371 64.1606 145.927 64.6245C146.489 65.0884 146.77 65.6816 146.77 66.4043H145.407C145.407 66.0332 145.249 65.7134 144.931 65.4448C144.619 65.1763 144.223 65.042 143.745 65.042C143.251 65.042 142.866 65.1494 142.587 65.3643C142.309 65.5791 142.17 65.8599 142.17 66.2065C142.17 66.5337 142.299 66.7803 142.558 66.9463C142.817 67.1123 143.283 67.271 143.957 67.4224C144.636 67.5737 145.185 67.7544 145.605 67.9644C146.025 68.1743 146.335 68.4282 146.535 68.7261C146.74 69.019 146.843 69.3779 146.843 69.8027C146.843 70.5107 146.56 71.0796 145.993 71.5093C145.427 71.9341 144.692 72.1465 143.789 72.1465C143.154 72.1465 142.592 72.0342 142.104 71.8096C141.616 71.585 141.232 71.2725 140.954 70.8721C140.681 70.4668 140.544 70.0298 140.544 69.561H141.899C141.923 70.0151 142.104 70.3765 142.441 70.645C142.783 70.9087 143.232 71.0405 143.789 71.0405C144.301 71.0405 144.711 70.938 145.019 70.7329C145.332 70.5229 145.488 70.2446 145.488 69.8979Z" fill="white"/>
</g>
<g filter="url(#filter4_d)">
<path d="M77.8223 100H75V89.1211L71.6309 90.166V87.8711L77.5195 85.7617H77.8223V100ZM92.0215 94.1211C92.0215 96.0872 91.6146 97.5911 90.8008 98.6328C89.987 99.6745 88.7956 100.195 87.2266 100.195C85.6771 100.195 84.4922 99.6842 83.6719 98.6621C82.8516 97.64 82.4316 96.1751 82.4121 94.2676V91.6504C82.4121 89.6647 82.8223 88.1576 83.6426 87.1289C84.4694 86.1003 85.6576 85.5859 87.207 85.5859C88.7565 85.5859 89.9414 86.097 90.7617 87.1191C91.582 88.1348 92.002 89.5964 92.0215 91.5039V94.1211ZM89.1992 91.25C89.1992 90.0716 89.0365 89.2155 88.7109 88.6816C88.3919 88.1413 87.8906 87.8711 87.207 87.8711C86.543 87.8711 86.0514 88.1283 85.7324 88.6426C85.4199 89.1504 85.2539 89.9479 85.2344 91.0352V94.4922C85.2344 95.651 85.3906 96.5137 85.7031 97.0801C86.0221 97.64 86.5299 97.9199 87.2266 97.9199C87.9167 97.9199 88.4147 97.6497 88.7207 97.1094C89.0267 96.569 89.1862 95.7422 89.1992 94.6289V91.25ZM99.541 95.0488H94.043V92.7734H99.541V95.0488ZM108.545 100H105.723V89.1211L102.354 90.166V87.8711L108.242 85.7617H108.545V100ZM113.594 93.0078L114.414 85.7812H122.383V88.1348H116.729L116.377 91.1914C117.048 90.8333 117.76 90.6543 118.516 90.6543C119.87 90.6543 120.931 91.0742 121.699 91.9141C122.467 92.7539 122.852 93.929 122.852 95.4395C122.852 96.3574 122.656 97.181 122.266 97.9102C121.882 98.6328 121.328 99.196 120.605 99.5996C119.883 99.9967 119.03 100.195 118.047 100.195C117.188 100.195 116.39 100.023 115.654 99.6777C114.919 99.3262 114.336 98.8346 113.906 98.2031C113.483 97.5716 113.258 96.8522 113.232 96.0449H116.025C116.084 96.6374 116.289 97.0996 116.641 97.4316C116.999 97.7572 117.464 97.9199 118.037 97.9199C118.675 97.9199 119.167 97.6921 119.512 97.2363C119.857 96.7741 120.029 96.123 120.029 95.2832C120.029 94.4759 119.831 93.8574 119.434 93.4277C119.036 92.998 118.473 92.7832 117.744 92.7832C117.074 92.7832 116.53 92.959 116.113 93.3105L115.84 93.5645L113.594 93.0078ZM124.619 88.5156C124.619 87.6432 124.902 86.9368 125.469 86.3965C126.035 85.8496 126.777 85.5762 127.695 85.5762C128.626 85.5762 129.375 85.8464 129.941 86.3867C130.508 86.9206 130.791 87.6465 130.791 88.5645V89.2676C130.791 90.1465 130.508 90.8529 129.941 91.3867C129.375 91.9206 128.633 92.1875 127.715 92.1875C126.79 92.1875 126.042 91.9206 125.469 91.3867C124.902 90.8464 124.619 90.1204 124.619 89.209V88.5156ZM126.494 89.2676C126.494 89.6582 126.605 89.974 126.826 90.2148C127.054 90.4492 127.35 90.5664 127.715 90.5664C128.079 90.5664 128.369 90.446 128.584 90.2051C128.799 89.9642 128.906 89.6419 128.906 89.2383V88.5156C128.906 88.125 128.799 87.8092 128.584 87.5684C128.369 87.3275 128.073 87.207 127.695 87.207C127.337 87.207 127.048 87.3275 126.826 87.5684C126.605 87.8027 126.494 88.1315 126.494 88.5547V89.2676ZM131.416 96.5137C131.416 95.6348 131.702 94.9284 132.275 94.3945C132.848 93.8542 133.59 93.584 134.502 93.584C135.426 93.584 136.172 93.8509 136.738 94.3848C137.311 94.9121 137.598 95.6413 137.598 96.5723V97.2754C137.598 98.1478 137.318 98.8542 136.758 99.3945C136.198 99.9284 135.452 100.195 134.521 100.195C133.584 100.195 132.832 99.9251 132.266 99.3848C131.699 98.8444 131.416 98.1283 131.416 97.2363V96.5137ZM133.291 97.2754C133.291 97.6335 133.408 97.9395 133.643 98.1934C133.877 98.4473 134.17 98.5742 134.521 98.5742C135.316 98.5742 135.713 98.1348 135.713 97.2559V96.5137C135.713 96.123 135.602 95.8105 135.381 95.5762C135.16 95.3353 134.867 95.2148 134.502 95.2148C134.137 95.2148 133.844 95.3353 133.623 95.5762C133.402 95.8105 133.291 96.1328 133.291 96.543V97.2754ZM128.271 98.9355L126.895 98.1934L133.838 87.0801L135.215 87.8223L128.271 98.9355Z" fill="#FFF27C"/>
</g>
<defs>
<filter id="filter0_d" x="8" y="6.52173" width="180" height="181.478" filterUnits="userSpaceOnUse" color-interpolation-filters="sRGB">
<feFlood flood-opacity="0" result="BackgroundImageFix"/>
<feColorMatrix in="SourceAlpha" type="matrix" values="0 0 0 0 0 0 0 0 0 0 0 0 0 0 0 0 0 0 127 0"/>
<feOffset dy="4"/>
<feGaussianBlur stdDeviation="2"/>
<feColorMatrix type="matrix" values="0 0 0 0 0 0 0 0 0 0 0 0 0 0 0 0 0 0 0.25 0"/>
<feBlend mode="normal" in2="BackgroundImageFix" result="effect1_dropShadow"/>
<feBlend mode="normal" in="SourceGraphic" in2="effect1_dropShadow" result="shape"/>
</filter>
<filter id="filter1_d" x="0.757935" y="35.1919" width="99.9844" height="55.6182" filterUnits="userSpaceOnUse" color-interpolation-filters="sRGB">
<feFlood flood-opacity="0" result="BackgroundImageFix"/>
<feColorMatrix in="SourceAlpha" type="matrix" values="0 0 0 0 0 0 0 0 0 0 0 0 0 0 0 0 0 0 127 0"/>
<feOffset dy="4"/>
<feGaussianBlur stdDeviation="2"/>
<feColorMatrix type="matrix" values="0 0 0 0 0 0 0 0 0 0 0 0 0 0 0 0 0 0 0.25 0"/>
<feBlend mode="normal" in2="BackgroundImageFix" result="effect1_dropShadow"/>
<feBlend mode="normal" in="SourceGraphic" in2="effect1_dropShadow" result="shape"/>
</filter>
<filter id="filter2_d" x="26.1113" y="109.75" width="140.605" height="55.3965" filterUnits="userSpaceOnUse" color-interpolation-filters="sRGB">
<feFlood flood-opacity="0" result="BackgroundImageFix"/>
<feColorMatrix in="SourceAlpha" type="matrix" values="0 0 0 0 0 0 0 0 0 0 0 0 0 0 0 0 0 0 127 0"/>
<feOffset dy="4"/>
<feGaussianBlur stdDeviation="2"/>
<feColorMatrix type="matrix" values="0 0 0 0 0 0 0 0 0 0 0 0 0 0 0 0 0 0 0.25 0"/>
<feBlend mode="normal" in2="BackgroundImageFix" result="effect1_dropShadow"/>
<feBlend mode="normal" in="SourceGraphic" in2="effect1_dropShadow" result="shape"/>
</filter>
<filter id="filter3_d" x="37.9307" y="42.75" width="115.637" height="40.4507" filterUnits="userSpaceOnUse" color-interpolation-filters="sRGB">
<feFlood flood-opacity="0" result="BackgroundImageFix"/>
<feColorMatrix in="SourceAlpha" type="matrix" values="0 0 0 0 0 0 0 0 0 0 0 0 0 0 0 0 0 0 127 0"/>
<feOffset dy="4"/>
<feGaussianBlur stdDeviation="2"/>
<feColorMatrix type="matrix" values="0 0 0 0 0 0 0 0 0 0 0 0 0 0 0 0 0 0 0.25 0"/>
<feBlend mode="normal" in2="BackgroundImageFix" result="effect1_dropShadow"/>
<feBlend mode="normal" in="SourceGraphic" in2="effect1_dropShadow" result="shape"/>
</filter>
<filter id="filter4_d" x="67.6309" y="85.5762" width="73.9668" height="22.6191" filterUnits="userSpaceOnUse" color-interpolation-filters="sRGB">
<feFlood flood-opacity="0" result="BackgroundImageFix"/>
<feColorMatrix in="SourceAlpha" type="matrix" values="0 0 0 0 0 0 0 0 0 0 0 0 0 0 0 0 0 0 127 0"/>
<feOffset dy="4"/>
<feGaussianBlur stdDeviation="2"/>
<feColorMatrix type="matrix" values="0 0 0 0 0 0 0 0 0 0 0 0 0 0 0 0 0 0 0.25 0"/>
<feBlend mode="normal" in2="BackgroundImageFix" result="effect1_dropShadow"/>
<feBlend mode="normal" in="SourceGraphic" in2="effect1_dropShadow" result="shape"/>
</filter>
</defs>
</svg>
