<svg width="82" height="82" viewBox="0 0 82 82" fill="none" xmlns="http://www.w3.org/2000/svg">
<path d="M52.0083 22.3636C52.0083 24.3407 50.9134 26.2368 48.9644 27.6348C47.0154 29.0328 44.3721 29.8182 41.6158 29.8182C38.8596 29.8182 36.2162 29.0328 34.2672 27.6348C32.3183 26.2368 31.2233 24.3407 31.2233 22.3636C31.2233 20.3866 32.3183 18.4905 34.2672 17.0925C36.2162 15.6945 38.8596 14.9091 41.6158 14.9091C44.3721 14.9091 47.0154 15.6945 48.9644 17.0925C50.9134 18.4905 52.0083 20.3866 52.0083 22.3636V22.3636ZM81.6268 76.3345L50.4494 40.18C49.2968 38.7715 47.4383 37.7317 45.2532 37.2727H5.24218C3.86406 37.2727 2.54237 37.6654 1.56789 38.3644C0.593409 39.0634 0.0459493 40.0115 0.0459493 41C0.0459493 41.9885 0.593409 42.9366 1.56789 43.6356C2.54237 44.3346 3.86406 44.7273 5.24218 44.7273H31.2233L40.7844 52.8527L12.413 75.2164C11.766 75.5747 11.2489 76.0396 10.9052 76.5715C10.5615 77.1035 10.4014 77.687 10.4384 78.2727C10.4384 79.2613 10.9859 80.2093 11.9604 80.9083C12.9348 81.6073 14.2565 82 15.6346 82C16.9064 81.9955 18.1298 81.6498 19.0642 81.0309L50.2416 60.8291L72.7932 80.5836C73.2611 81.0172 73.859 81.3696 74.5426 81.6148C75.2263 81.86 75.9781 81.9916 76.7423 82C78.1205 82 79.4421 81.6073 80.4166 80.9083C81.3911 80.2093 81.9386 79.2613 81.9386 78.2727C82.0816 77.6183 81.9738 76.9484 81.6268 76.3345V76.3345ZM20.8309 2.08727C20.8309 1.53369 20.5243 1.00279 19.9786 0.611348C19.4329 0.219908 18.6927 0 17.921 0C16.9039 0.19534 15.9962 0.612039 15.3229 1.19273L0.0459493 34.2164C-0.0153164 34.5379 -0.0153164 34.8639 0.0459493 35.1855C0.0459493 36.3409 1.34501 37.2727 2.95584 37.2727C4.01061 37.0917 4.95725 36.6738 5.65788 36.08L20.8309 3.05636C20.8932 2.73488 20.8932 2.40876 20.8309 2.08727V2.08727Z" fill="#26325B"/>
</svg>
