<svg width="82" height="82" viewBox="0 0 82 82" fill="none" xmlns="http://www.w3.org/2000/svg">
<path d="M57.8638 38.0522H24.1363C23.733 38.0522 23.4031 38.3839 23.4031 38.7892V43.2107C23.4031 43.6161 23.733 43.9477 24.1363 43.9477H57.8638C58.267 43.9477 58.597 43.6161 58.597 43.2107V38.7892C58.597 38.3839 58.267 38.0522 57.8638 38.0522Z" fill="#26325B"/>
<path d="M41 0C18.3585 0 0 18.3585 0 41C0 63.6415 18.3585 82 41 82C63.6415 82 82 63.6415 82 41C82 18.3585 63.6415 0 41 0ZM41 75.0446C22.2022 75.0446 6.95536 59.7978 6.95536 41C6.95536 22.2022 22.2022 6.95536 41 6.95536C59.7978 6.95536 75.0446 22.2022 75.0446 41C75.0446 59.7978 59.7978 75.0446 41 75.0446Z" fill="#26325B"/>
</svg>
