<svg width="82" height="82" viewBox="0 0 82 82" fill="none" xmlns="http://www.w3.org/2000/svg">
<path d="M29.3353 22.6927C26.5524 21.3038 23.8003 20.6068 23.6876 20.5761C23.3582 20.4858 23.0142 20.4622 22.6756 20.5068C22.337 20.5513 22.0107 20.6631 21.7159 20.8356C21.4212 21.008 21.1638 21.2376 20.9591 21.5109C20.7543 21.7842 20.6063 22.0957 20.5236 22.4271C20.4409 22.7584 20.4253 23.103 20.4777 23.4404C20.5301 23.7779 20.6494 24.1015 20.8286 24.3922C21.0078 24.6829 21.2434 24.9348 21.5213 25.1332C21.7993 25.3316 22.1142 25.4724 22.4473 25.5473C23.8567 25.9061 25.5326 26.516 27.0086 27.2591C26.3244 27.988 25.8688 28.9015 25.6982 29.8865C25.5275 30.8715 25.6493 31.885 26.0484 32.8016C26.4476 33.7181 27.1066 34.4977 27.9439 35.0437C28.7813 35.5898 29.7604 35.8786 30.7601 35.8742C32.1193 35.8742 33.4229 35.3343 34.384 34.3731C35.3451 33.412 35.8851 32.1085 35.8851 30.7492L35.8748 30.4725C35.7108 26.6748 32.2566 24.1482 29.3404 22.6927H29.3353Z" fill="#26325B"/>
<path d="M41 0C30.1261 0 19.6976 4.31963 12.0086 12.0086C4.31963 19.6976 0 30.1261 0 41C0 51.8739 4.31963 62.3024 12.0086 69.9914C19.6976 77.6804 30.1261 82 41 82C51.8739 82 62.3024 77.6804 69.9914 69.9914C77.6804 62.3024 82 51.8739 82 41C82 30.1261 77.6804 19.6976 69.9914 12.0086C62.3024 4.31963 51.8739 0 41 0V0ZM18.9369 65.9587C19.7927 66.3841 20.7614 66.625 21.7812 66.625H60.2188C61.2386 66.625 62.2021 66.3841 63.0631 65.9587C57.1848 71.1555 49.4614 74.3125 41 74.3125C32.5386 74.3125 24.8152 71.1555 18.9369 65.9587V65.9587ZM20.5 60.2188V52.5312C20.5 51.8342 21.0842 51.25 21.7812 51.25H30.75V61.5H21.7812C21.4427 61.496 21.1191 61.3597 20.8797 61.1203C20.6403 60.8809 20.504 60.5573 20.5 60.2188V60.2188ZM35.875 61.5V51.25H46.125V61.5H35.875ZM51.25 61.5V51.25H60.2188C60.9158 51.25 61.5 51.8342 61.5 52.5312V60.2188C61.5 60.9158 60.9158 61.5 60.2188 61.5H51.25ZM65.9587 63.0631C66.3841 62.2073 66.625 61.2386 66.625 60.2188V52.5312C66.625 49.0001 63.7499 46.125 60.2188 46.125H21.7812C18.2501 46.125 15.375 49.0001 15.375 52.5312V60.2188C15.375 61.2386 15.6159 62.2021 16.0413 63.0631C11.7931 58.2574 9.02262 52.3274 8.06268 45.9855C7.10273 39.6435 7.99412 33.1593 10.6298 27.3116C13.2654 21.4639 17.5332 16.5015 22.9206 13.0203C28.308 9.53923 34.5858 7.68746 41 7.68746C47.4142 7.68746 53.692 9.53923 59.0794 13.0203C64.4668 16.5015 68.7346 21.4639 71.3702 27.3116C74.0059 33.1593 74.8973 39.6435 73.9373 45.9855C72.9774 52.3274 70.2069 58.2574 65.9587 63.0631V63.0631Z" fill="#26325B"/>
<path d="M58.3174 20.5761C58.1995 20.6068 55.4525 21.2987 52.6696 22.6927C49.7586 24.1482 46.2992 26.6697 46.1352 30.4725L46.125 30.7492C46.1247 31.5843 46.3286 32.4068 46.7187 33.1452C47.1089 33.8836 47.6736 34.5154 48.3637 34.9857C49.0537 35.456 49.8483 35.7506 50.6782 35.8438C51.5081 35.937 52.3481 35.8259 53.1253 35.5204C53.9025 35.2148 54.5933 34.7239 55.1374 34.0905C55.6816 33.457 56.0628 32.7002 56.2477 31.8858C56.4327 31.0714 56.4158 30.2242 56.1986 29.4178C55.9814 28.6115 55.5705 27.8704 55.0015 27.2591C56.4775 26.5211 58.1482 25.9061 59.5627 25.5474C59.8959 25.4724 60.2108 25.3316 60.4887 25.1332C60.7667 24.9348 61.0022 24.6829 61.1815 24.3922C61.3607 24.1015 61.48 23.7779 61.5324 23.4404C61.5847 23.103 61.5691 22.7584 61.4865 22.4271C61.4038 22.0957 61.2557 21.7842 61.051 21.5109C60.8462 21.2376 60.5889 21.008 60.2941 20.8356C59.9994 20.6631 59.6731 20.5513 59.3345 20.5068C58.9959 20.4622 58.6518 20.4858 58.3225 20.5761H58.3174Z" fill="#26325B"/>
</svg>
