<svg width="82" height="38" viewBox="0 0 82 38" fill="none" xmlns="http://www.w3.org/2000/svg">
<path d="M40.9986 0C33.0419 0 25.6141 1.002 19.3219 2.729C18.6181 2.839 17.8951 3.023 17.246 3.338C16.202 3.66616 15.1754 4.02309 14.1682 4.408C13.6495 4.48175 13.1741 4.66983 12.8057 4.947C11.0866 5.65569 9.4526 6.46959 7.9212 7.38C7.67616 7.32703 7.42229 7.2991 7.1668 7.297C6.41513 7.297 5.71403 7.523 5.1906 7.931C4.38153 8.564 4.182 9.315 4.23257 10.037C4.15467 10.107 4.08633 10.179 4.0098 10.249C3.1693 10.474 2.42037 11.001 2.23177 11.915C2.21537 11.993 2.2263 12.074 2.2181 12.152C0.7831 13.98 0 15.938 0 17.976C0 22.264 3.44673 26.205 9.184 29.299C14.2584 34.396 26.5721 38 41 38C55.4293 38 67.7498 34.395 72.8228 29.295C78.5546 26.201 82 22.262 82 17.976C82 8.063 63.606 0 40.9986 0ZM4.93503 11.613C5.63613 11.613 6.65977 12.223 7.0643 12.528C6.5723 12.887 6.068 13.446 5.68533 14.13C5.60505 14.2754 5.53166 14.4229 5.4653 14.572C5.38877 14.411 5.23707 14.224 4.9815 13.913C4.5674 13.411 4.13553 12.747 4.2599 12.14C4.3378 11.755 4.59883 11.613 4.93503 11.613V11.613ZM2.92467 17.315C2.7183 16.77 3.56153 16.501 4.13007 16.411C4.756 16.312 4.9938 16.332 5.12637 16.222C5.17283 16.56 5.32317 16.793 5.58283 16.853C6.24157 17.003 7.35403 16.027 8.11937 14.74C8.88743 13.447 8.9954 12.306 8.31207 12.119C7.995 12.033 7.5645 12.182 7.1217 12.491C6.9372 11.525 5.576 9.826 6.68573 8.959C6.7456 8.90869 6.81952 8.86837 6.90252 8.84077C6.98551 8.81317 7.07564 8.79892 7.1668 8.799C7.6055 8.799 8.07837 9.102 8.3394 9.315C8.44873 9.403 8.56217 9.456 8.67697 9.493L8.6756 9.557C8.73573 10.864 9.39993 11.868 10.1543 11.793C10.6887 11.742 11.137 11.183 11.3502 10.418C11.9324 10.7 13.3797 10.15 14.6835 9.246C16.0119 8.321 16.6802 7.372 16.1212 7.04C15.5663 6.706 13.9919 7.124 12.6635 8.061C12.4312 8.225 12.2317 8.393 12.0472 8.56C9.90833 8.441 13.0899 6.727 13.9947 6.473C14.119 5.997 14.3896 5.86 14.7286 5.86C14.8871 5.86 15.0634 5.893 15.2438 5.933C15.1536 6.052 15.1181 6.167 15.1714 6.272C15.4133 6.741 17.0984 6.79 18.9625 6.456C20.8294 6.12 22.1892 5.558 21.9787 5.122C21.7696 4.688 20.0449 4.518 18.1466 4.821C18.0892 4.83 18.0386 4.842 17.9826 4.852C19.3247 3.784 22.319 4.289 23.5504 3.543C23.698 3.452 23.9003 3.422 24.1121 3.422C24.3699 3.42903 24.6256 3.45925 24.8733 3.512C25.1166 3.558 25.2997 3.575 25.461 3.575C25.8136 3.575 26.0596 3.496 26.5803 3.473C26.6268 3.471 26.676 3.469 26.7252 3.469C27.045 3.469 27.4058 3.528 27.537 3.766C28.1561 3.698 28.4759 3.702 29.013 3.526C27.8431 2.953 29.3806 2.749 30.1801 2.708C29.9163 2.829 29.7838 2.964 29.848 3.103C30.027 3.496 31.6083 3.728 33.4451 3.716C33.9644 3.747 34.5343 3.759 35.1288 3.743C37.0572 3.684 38.4689 3.403 38.2776 3.032C38.1628 2.817 37.5136 2.613 36.6144 2.482C37.1706 2.40835 37.7324 2.3596 38.2967 2.336H38.309C37.6817 1.758 37.8485 1.57 38.3104 1.57C38.9937 1.57 40.3208 1.978 40.698 2.142C40.7212 2.152 40.7431 2.165 40.7663 2.176C40.098 2.241 39.9818 2.936 40.523 3.779C41.097 4.683 42.1863 5.383 42.968 5.384C43.7525 5.39 43.9534 4.722 43.3944 3.845C43.3534 3.781 43.3042 3.719 43.2564 3.656C43.6322 4.003 43.557 4.129 44.2814 4.322C45.413 4.623 44.88 4.853 45.551 5.293C46.1551 5.404 46.7619 5.57 47.3331 5.752C47.6256 5.844 49.6565 7.55 48.6752 7.55C48.6274 7.55 48.5754 7.548 48.518 7.545C47.9727 7.516 47.4274 7.402 46.9108 7.279C46.8892 7.22192 46.8511 7.16886 46.7993 7.12335C46.7475 7.07783 46.683 7.0409 46.6102 7.015C45.9555 6.747 44.4891 6.925 43.3657 7.486C42.7015 7.816 42.3106 8.191 42.2286 8.492C42.0421 8.43787 41.8502 8.39408 41.6546 8.361C41.9922 8.129 42.2601 7.787 42.3831 7.392C42.6263 6.601 42.1767 5.853 41.3622 5.718C40.5558 5.585 39.7099 6.157 39.4912 7.003C39.3696 7.464 39.4584 7.892 39.6866 8.204C39.4516 8.202 39.2083 8.204 38.9637 8.214C37.0558 8.284 35.6645 8.704 35.834 9.074C35.9051 9.226 36.2317 9.34 36.7114 9.416C36.2262 9.516 35.7083 9.66 35.2053 9.861C34.3826 10.187 33.8018 10.57 33.5257 10.894C32.8324 10.8836 32.1397 10.9303 31.4607 11.033C29.6157 11.301 28.2982 11.9 28.4868 12.295C28.6768 12.693 30.2826 12.709 32.103 12.404C33.564 12.158 34.7161 11.8 35.0318 11.482C35.7233 11.3398 36.3911 11.142 37.023 10.892C38.3213 10.384 39.0976 9.837 38.9022 9.517C39.1113 9.511 39.3258 9.503 39.5431 9.492C40.9959 9.408 42.1644 9.211 42.558 8.972C42.8573 9.07 43.3165 9.052 43.8222 8.968C43.7429 9.529 44.3798 10.32 43.7279 10.878C43.6479 10.9497 43.547 11.0073 43.4325 11.0466C43.318 11.0859 43.1929 11.1059 43.0664 11.105C42.6496 11.105 42.2081 10.914 41.917 10.705C41.518 10.418 40.6447 10.158 39.9805 10.158C39.8037 10.1539 39.628 10.1792 39.4666 10.232C38.6794 10.517 38.2038 10.332 37.5191 10.701C37.8047 10.717 39.2329 10.822 38.5865 11.305C38.637 11.303 38.801 11.298 39.0252 11.298C39.8793 11.298 41.615 11.359 41.3294 11.799C40.9481 12.391 39.0019 12.529 38.2776 12.619C37.6517 12.696 36.9451 12.769 36.2481 12.769C35.6454 12.769 35.0495 12.714 34.5193 12.56C34.1339 12.447 33.825 12.356 33.5107 12.356C33.266 12.356 33.02 12.412 32.7317 12.554C32.2451 12.797 33.1362 13.011 33.7539 13.011C34.2459 13.011 34.6846 13.079 34.8076 13.308C35.0413 13.744 33.4874 14.189 33.1622 14.292C32.9107 14.373 30.4384 14.922 29.1688 14.922C28.5989 14.922 27.1748 14.65 26.6104 15.105C26.3862 15.281 26.0323 15.334 25.6728 15.334C25.3708 15.334 23.0625 15.542 21.9528 15.755C21.5605 15.956 21.5715 16.109 21.9856 16.214C22.1181 16.339 22.1277 16.468 22.0143 16.597C21.7409 16.945 21.1027 17.142 20.6257 17.281C20.5765 17.295 20.5246 17.306 20.4754 17.32C20.4727 17.31 20.4781 17.299 20.474 17.291C20.2936 16.93 19.0923 16.941 17.6765 17.33C17.3744 16.967 16.1868 16.711 14.6889 16.738C14.119 16.748 13.5847 16.806 13.1091 16.892C13.4316 16.421 13.6339 15.699 13.6134 14.917C13.5819 13.647 12.9437 12.673 12.1838 12.739C11.424 12.805 10.8623 13.927 10.9374 15.247C10.9907 16.202 11.342 16.97 11.8039 17.284C11.5073 17.434 11.316 17.6 11.2941 17.778C11.2272 18.313 12.6061 18.667 14.3746 18.581C14.5905 18.569 14.8037 18.554 15.0101 18.534C14.5154 18.899 14.2666 19.251 14.3883 19.483C14.4771 19.653 14.7422 19.732 15.1249 19.734C14.8628 19.8961 14.5939 20.0522 14.3186 20.202C13.5437 20.614 14.9049 21.048 14.0015 21.552C13.6967 21.722 13.299 21.78 12.9041 21.78C12.6608 21.78 12.4189 21.758 12.2002 21.728C11.6997 21.6608 11.2165 21.537 10.768 21.361C11.0741 20.869 10.9388 19.971 10.3498 19.101C9.6309 18.04 8.4952 17.41 7.85013 17.738C7.38273 17.973 7.3185 18.661 7.60003 19.435C7.40251 19.3479 7.21305 19.2513 7.03287 19.146C6.56174 19.2325 6.07811 19.2771 5.5924 19.279C5.45847 19.279 5.3259 19.275 5.19333 19.267C4.674 19.238 3.772 19.113 3.72827 18.619C3.6818 17.994 4.39657 18.392 3.4973 17.869C3.23276 17.7321 3.0327 17.5385 2.92467 17.315V17.315ZM39.6648 14.737L39.5377 13.991C40.1759 13.911 40.9016 13.786 41.5603 13.555L43.5639 13.371L43.7333 14.364L39.6648 14.737V14.737ZM42.3667 24.226L41.6888 25.093L38.13 23.605L38.8079 22.738L42.3667 24.226ZM42.7452 22.673C43.8058 21.052 44.6504 20.454 45.8093 20.206C46.4858 20.06 46.8083 19.597 47.2853 19.321L43.87 17.893L44.5479 17.024L48.1067 18.512L47.5723 19.196C47.8675 19.097 48.2242 19.07 48.7394 19.212C50.4013 19.671 51.8513 18.532 52.2818 20.503C52.7096 22.474 49.6155 22.358 49.1016 23.567C48.5905 24.772 46.0471 24.208 44.9401 25.376C43.8304 26.544 41.4414 24.665 42.7452 22.673V22.673ZM43.8905 8.962C44.5421 8.84137 45.1637 8.64667 45.7328 8.385C45.8298 8.34 45.9145 8.295 45.9993 8.25C46.4694 8.71 47.3181 9.757 46.2166 9.874C46.1563 9.87965 46.0956 9.88232 46.0348 9.882C45.2257 9.882 44.403 9.368 43.8905 8.962V8.962ZM49.2 15.604L49.8779 14.737L53.4367 16.225L52.7588 17.092L49.2 15.604ZM52.2627 12.149C50.9712 11.708 49.2916 12.684 47.9891 13.756C46.6867 14.826 46.8439 13.041 47.1459 12.33C47.4589 11.598 47.6994 11.331 47.8087 10.964C48.1846 10.754 48.4757 10.474 48.6438 10.141C48.8269 9.776 48.8392 9.403 48.7504 9.049C49.2342 9.041 49.6401 8.959 49.9735 8.831C50.5721 8.854 51.783 8.766 52.9187 9.873C54.1337 11.06 53.5569 12.591 52.2627 12.149V12.149ZM35.2286 19.013C36.5898 19.136 36.6007 20.622 35.8067 21.39C35.0126 22.156 34.0696 24.533 32.4816 25.001C30.8894 25.468 29.5159 24.071 29.7318 22.155C29.9519 20.239 32.9722 18.81 35.2286 19.013V19.013ZM32.1823 18.278L33.4751 15.796C33.7252 15.737 33.9179 15.689 33.9863 15.667L34.0423 15.65C34.0792 15.638 34.1065 15.626 34.1434 15.614L34.9211 15.831L33.4601 18.634L32.1823 18.278V18.278ZM28.7 20.226L28.0221 21.095L24.4633 19.607L25.1412 18.738L28.7 20.226ZM40.9986 33.953C21.8598 33.953 5.97507 28.054 3.18707 20.382C3.67087 20.578 4.27083 20.722 5.03753 20.765C5.32948 20.7809 5.62245 20.7843 5.91493 20.775C6.109 21.011 6.37823 21.216 6.7158 21.374L6.81693 21.422L6.9249 21.46C7.28707 21.588 7.667 21.665 8.05923 21.689C8.98583 22.457 10.3552 23.007 11.8326 23.206C12.1989 23.256 12.5624 23.282 12.9054 23.282C13.2198 23.282 13.5122 23.253 13.7951 23.211C15.4843 23.982 17.451 24.68 19.6595 25.283C20.0873 25.596 20.4645 26.179 19.8057 27.234C18.6769 29.041 22.632 31.362 26.1908 29.985C29.7496 28.607 34.9033 29.043 36.8358 29.985C38.7682 30.924 44.2363 31.215 47.1049 29.985C49.9749 28.752 52.1602 27.781 57.0132 27.832C61.8663 27.883 65.5112 24.588 67.978 23.324L67.9862 23.319C72.2379 21.427 74.7608 19.075 74.7608 16.525C74.7608 11.4 64.534 7.078 50.538 5.698C50.1334 5.194 49.3394 4.75 48.1436 4.374C47.7258 4.24007 47.2999 4.12028 46.8671 4.015C46.4954 3.509 45.9405 3.182 45.085 2.942C44.9547 2.80282 44.8118 2.67019 44.6572 2.545C44.4471 2.37494 44.2264 2.2121 43.9957 2.057C63.699 2.696 79.2667 9.589 79.2667 17.976C79.2667 26.785 62.0986 33.953 40.9986 33.953V33.953ZM61.6886 18.253C60.8399 18.048 59.8709 17.306 58.2583 17.607C56.6456 17.908 53.7551 18.615 54.761 16.441C55.3664 15.127 56.4802 11.81 59.7097 11.873C62.9377 11.936 62.2845 14.678 62.2845 14.678C62.2845 14.678 62.5359 18.46 61.6886 18.253V18.253ZM58.5972 20.374L58.7667 21.366L54.6981 21.737L54.5286 20.745L58.5972 20.374ZM62.7286 13.108L66.7972 12.737L66.9667 13.729L62.8981 14.1L62.7286 13.108Z" fill="#26325B"/>
<path d="M34.6641 5.36077C36.5788 5.69077 38.2749 5.70677 38.4689 5.38177C38.6671 5.05777 37.2731 4.46977 35.3338 4.08677C33.3986 3.70177 31.6698 3.71177 31.4962 4.09077C31.3213 4.47077 32.7481 5.03077 34.6641 5.36077" fill="#26325B"/>
<path d="M21.946 13.0728C20.1707 13.5218 18.9421 14.2918 19.1566 14.7188C19.3726 15.1528 20.9333 15.0508 22.6758 14.5668C24.4156 14.0828 25.7071 13.4278 25.5157 13.0318C25.3299 12.6398 23.7131 12.6238 21.946 13.0728Z" fill="#26325B"/>
<path d="M16.4917 16.2572C16.8908 16.1482 17.1532 15.7562 17.2502 15.2342C17.34 15.269 17.4411 15.2852 17.5427 15.2812C18.2779 15.2422 19.0132 14.2342 19.1977 13.0452C19.2059 12.9902 19.2059 12.9402 19.2127 12.8872C19.2392 12.9305 19.2784 12.9691 19.3275 13.0002C19.8687 13.3112 21.357 12.7892 22.7141 11.9262C23.0339 11.7212 23.3127 11.5162 23.5519 11.3172C23.7542 11.5882 24.0152 11.7512 24.3145 11.7392C24.4954 11.7233 24.6648 11.6659 24.7983 11.5752C24.8577 11.6368 24.9396 11.685 25.0347 11.7142C25.7071 11.8962 26.933 11.0812 27.8214 9.96418C28.0454 9.68342 28.2348 9.38858 28.3872 9.08318C29.1211 9.16718 30.213 8.54318 30.9046 7.68718C31.1068 7.43718 31.2449 7.19318 31.3323 6.96418C31.525 7.64418 32.0006 8.18918 32.5473 8.39418C31.9428 8.51876 31.3647 8.70384 30.8294 8.94418C29.3821 9.58518 28.6632 10.4192 29.1826 10.7102C29.7005 11.0032 31.2572 10.6552 32.7017 10.0282C34.1477 9.39518 34.9335 8.71118 34.4183 8.40418C34.2611 8.31218 33.9946 8.27118 33.6707 8.26918C34.0711 7.97618 34.2802 7.41718 34.1545 6.76918C33.9768 5.84518 33.176 5.06618 32.3683 5.05618C31.797 5.04818 31.3965 5.44918 31.279 6.02518C31.1888 5.91243 31.0469 5.8267 30.8786 5.78318C31.2777 5.62718 31.4922 5.45718 31.4171 5.29118C31.2326 4.88918 29.5065 4.62918 27.5685 4.78318C25.6757 4.93118 24.32 5.44918 24.4607 5.87918L24.4552 5.87318C23.9263 5.55118 22.3082 5.81618 20.8883 6.55718C19.7526 7.14718 19.0993 7.84818 19.1498 8.26618C18.9093 8.29474 18.6704 8.33043 18.4337 8.37318C16.5723 8.70518 15.2781 9.40118 15.5104 9.85218C15.7441 10.3052 17.391 10.3132 19.2223 9.94418C21.0468 9.57518 22.3902 8.99718 22.1852 8.57818C22.1169 8.43718 21.8654 8.33318 21.5032 8.26518C21.931 8.11318 22.3766 7.92518 22.8139 7.70218C24.0193 7.08318 24.7395 6.42918 24.6029 6.04818C25.0826 6.37018 26.6023 6.46018 28.2806 6.29618C28.6168 6.26318 28.9311 6.22018 29.229 6.17518C28.642 6.54425 28.198 7.01984 27.9416 7.55418C27.3868 7.55218 26.6146 7.94718 25.9395 8.58318C25.8288 7.76718 25.3955 7.18518 24.7956 7.16718C24.0043 7.14718 23.2608 8.16118 23.1474 9.44718C23.1364 9.56818 23.1378 9.68318 23.1378 9.79918C22.4408 9.92618 21.5634 10.2682 20.7598 10.7872C19.9603 11.3052 19.4259 11.8732 19.2278 12.3172C19.1663 11.4862 18.7535 10.8892 18.1495 10.8792C17.4593 10.8682 16.7855 11.6492 16.5423 12.6932C16.1213 12.1812 15.5897 11.8932 15.1223 11.9902C14.3747 12.1462 14.1028 13.2612 14.5005 14.4612C14.8982 15.6612 15.781 16.4542 16.4917 16.2572" fill="#26325B"/>
</svg>
