<svg width="82" height="82" viewBox="0 0 82 82" fill="none" xmlns="http://www.w3.org/2000/svg">
<path d="M38.974 62.8339C39.1293 62.7631 39.2691 62.6625 39.3854 62.5376C39.5018 62.4128 39.5924 62.2663 39.6521 62.1065C39.7118 61.9466 39.7395 61.7766 39.7335 61.6061C39.7274 61.4356 39.6879 61.2679 39.6171 61.1127C39.1619 60.1062 38.5781 59.163 37.8802 58.3067C37.6615 58.04 37.3457 57.8712 37.0024 57.8373C36.6592 57.8035 36.3165 57.9074 36.0499 58.1261C35.7832 58.3449 35.6144 58.6607 35.5805 59.0039C35.5466 59.3472 35.6505 59.6898 35.8693 59.9565C36.4252 60.6373 36.8895 61.3881 37.2502 62.1896C37.3939 62.5031 37.6561 62.7468 37.9792 62.8673C38.3024 62.9879 38.6601 62.9754 38.974 62.8326V62.8339Z" fill="#26325B"/>
<path d="M35.9697 48.6105C36.7465 49.1046 37.4789 49.6653 38.1586 50.2863C38.3648 50.4903 38.6338 50.6188 38.9221 50.6511C39.2103 50.6834 39.5011 50.6176 39.7473 50.4643C40.3592 50.0888 40.5502 49.2873 40.1747 48.6755C39.7424 47.9284 39.4088 47.1285 39.1823 46.2956C39.1403 46.1301 39.066 45.9744 38.9638 45.8376C38.8616 45.7007 38.7334 45.5854 38.5866 45.4981C38.4397 45.4109 38.2771 45.3535 38.1081 45.3292C37.939 45.3048 37.7668 45.3141 37.6013 45.3564C37.3891 45.4137 37.1951 45.5246 37.0379 45.6783C36.8807 45.8321 36.7656 46.0236 36.7037 46.2346C36.4811 46.2251 36.2599 46.2736 36.0618 46.3754C35.8636 46.4772 35.6954 46.6288 35.5735 46.8152C35.3886 47.1063 35.3268 47.4588 35.4016 47.7954C35.4764 48.1319 35.6816 48.4251 35.9723 48.6105H35.9697Z" fill="#26325B"/>
<path d="M32.7348 47.0399C33.0603 47.1541 33.418 47.1343 33.7289 46.9848C34.0399 46.8354 34.2788 46.5685 34.393 46.2429C34.5072 45.9173 34.4874 45.5597 34.3379 45.2487C34.1885 44.9378 33.9216 44.6989 33.596 44.5847C32.5893 44.2307 31.5534 43.9656 30.5004 43.7923C30.3287 43.757 30.1515 43.7567 29.9797 43.7916C29.8079 43.8264 29.6449 43.8956 29.5004 43.995C29.356 44.0945 29.2331 44.222 29.1392 44.3701C29.0453 44.5181 28.9823 44.6836 28.9539 44.8567C28.9256 45.0297 28.9324 45.2066 28.9741 45.3769C29.0159 45.5472 29.0915 45.7074 29.1967 45.8477C29.3018 45.988 29.4342 46.1056 29.5859 46.1935C29.7376 46.2814 29.9055 46.3378 30.0795 46.3592C30.9784 46.5099 31.8722 46.7346 32.7348 47.0373V47.0399Z" fill="#26325B"/>
<path d="M34.5142 55.5112C33.5302 54.9792 32.4737 54.5937 31.3783 54.3667C31.0453 54.3084 30.7027 54.3819 30.4229 54.5717C30.1432 54.7615 29.9482 55.0527 29.8793 55.3837C29.8105 55.7147 29.8731 56.0595 30.0539 56.3451C30.2348 56.6308 30.5197 56.8348 30.8483 56.9141C31.6952 57.0883 32.512 57.3859 33.2724 57.7975C33.5758 57.962 33.9321 57.9995 34.2631 57.9016C34.5941 57.8037 34.8727 57.5784 35.0378 57.2753C35.1193 57.1252 35.1704 56.9605 35.1883 56.7906C35.2061 56.6208 35.1902 56.449 35.1416 56.2853C35.093 56.1216 35.0125 55.969 34.9049 55.8364C34.7972 55.7038 34.6645 55.5937 34.5142 55.5125V55.5112Z" fill="#26325B"/>
<path d="M23.8404 46.6399C24.7053 46.3939 25.5942 46.2419 26.4917 46.1865C27.2075 46.1397 27.7505 45.5188 27.7025 44.8017C27.6928 44.6306 27.649 44.4632 27.5739 44.3092C27.4987 44.1552 27.3935 44.0178 27.2646 43.9049C27.1356 43.792 26.9855 43.706 26.8229 43.6519C26.6603 43.5978 26.4885 43.5766 26.3177 43.5897C25.2005 43.665 24.1275 43.8469 23.1194 44.1392C22.9551 44.1866 22.8018 44.2659 22.6682 44.3726C22.5345 44.4793 22.4232 44.6112 22.3406 44.7609C22.258 44.9106 22.2056 45.0752 22.1866 45.2451C22.1675 45.415 22.1821 45.587 22.2295 45.7513C22.277 45.9156 22.3563 46.0689 22.463 46.2025C22.5697 46.3362 22.7016 46.4475 22.8513 46.5301C23.001 46.6127 23.1655 46.6651 23.3355 46.6841C23.5054 46.7032 23.6774 46.6886 23.8417 46.6412L23.8404 46.6399Z" fill="#26325B"/>
<path d="M25.2236 38.5333C25.946 38.5326 26.6385 38.2452 27.1491 37.7342C27.6596 37.2231 27.9464 36.5303 27.9464 35.8079C27.9464 35.2688 27.7865 34.7418 27.4869 34.2935C27.1873 33.8453 26.7615 33.4959 26.2634 33.2897C25.7652 33.0835 25.2171 33.0297 24.6884 33.1351C24.1596 33.2405 23.674 33.5003 23.2929 33.8817C22.9119 34.2631 22.6525 34.749 22.5477 35.2778C22.4428 35.8067 22.4971 36.3547 22.7038 36.8527C22.9105 37.3507 23.2602 37.7761 23.7088 38.0753C24.1573 38.3744 24.6845 38.5339 25.2236 38.5333V38.5333Z" fill="#26325B"/>
<path d="M37.6596 43.9701C37.8089 44.0531 37.973 44.106 38.1427 44.1255C38.3123 44.1451 38.4842 44.131 38.6484 44.0841C38.8126 44.0371 38.966 43.9583 39.0997 43.852C39.2334 43.7457 39.3448 43.6141 39.4276 43.4647C39.7745 42.8412 40.3227 42.3255 41.0112 41.9695C41.3033 41.8036 41.52 41.5311 41.6158 41.209C41.7116 40.887 41.6792 40.5404 41.5253 40.2417C41.3715 39.943 41.108 39.7154 40.7902 39.6064C40.4723 39.4975 40.1247 39.5157 39.8199 39.6572C38.6995 40.2217 37.7718 41.106 37.1543 42.1982C36.9868 42.5 36.9459 42.8561 37.0406 43.188C37.1354 43.52 37.358 43.8008 37.6596 43.9688V43.9701Z" fill="#26325B"/>
<path d="M27.2292 54.1064H24.2557C23.9108 54.1064 23.58 54.2434 23.3362 54.4873C23.0923 54.7312 22.9553 55.0619 22.9553 55.4068C22.9553 55.7517 23.0923 56.0824 23.3362 56.3263C23.58 56.5701 23.9108 56.7071 24.2557 56.7071H27.2292C27.5741 56.7071 27.9048 56.5701 28.1487 56.3263C28.3925 56.0824 28.5296 55.7517 28.5296 55.4068C28.5296 55.0619 28.3925 54.7312 28.1487 54.4873C27.9048 54.2434 27.5741 54.1064 27.2292 54.1064V54.1064Z" fill="#26325B"/>
<path d="M43.5987 56.0111C43.754 55.94 43.8937 55.839 44.0098 55.7138C44.126 55.5887 44.2163 55.4418 44.2757 55.2817C44.3351 55.1216 44.3623 54.9514 44.3558 54.7807C44.3493 54.6101 44.3092 54.4424 44.2379 54.2873C43.7923 53.3175 43.2633 52.3882 42.6569 51.5099C42.4549 51.2409 42.1566 51.0605 41.8245 51.0066C41.4924 50.9527 41.1523 51.0295 40.8756 51.2208C40.5989 51.4122 40.407 51.7033 40.3402 52.033C40.2735 52.3628 40.3369 52.7056 40.5174 52.9895C41.0383 53.743 41.4943 54.5445 41.8736 55.3746C42.0183 55.6878 42.2813 55.9309 42.6049 56.0505C42.9286 56.17 43.2865 56.1564 43.6 56.0124L43.5987 56.0111Z" fill="#26325B"/>
<path d="M40.9721 67.6235C40.9721 66.8025 40.9163 65.988 40.8007 65.2007C40.7773 65.0311 40.7205 64.8679 40.6336 64.7204C40.5467 64.5728 40.4315 64.444 40.2945 64.3413C40.1575 64.2386 40.0015 64.1641 39.8355 64.1221C39.6695 64.0801 39.4969 64.0714 39.3276 64.0965C38.9862 64.147 38.6787 64.3306 38.4722 64.6071C38.2658 64.8836 38.1773 65.2306 38.226 65.5723C38.3221 66.2374 38.3702 66.9259 38.3702 67.6222V68.3496C38.3702 68.6945 38.5071 69.0253 38.751 69.2691C38.9949 69.513 39.3256 69.65 39.6705 69.65C40.0154 69.65 40.3461 69.513 40.59 69.2691C40.8338 69.0253 40.9709 68.6945 40.9709 68.3496V67.6222L40.9721 67.6235Z" fill="#26325B"/>
<path d="M48.4728 40.0731C48.4732 39.9023 48.4398 39.7331 48.3747 39.5752C48.3096 39.4173 48.2139 39.2738 48.0933 39.1529C47.9726 39.032 47.8293 38.9361 47.6715 38.8706C47.5137 38.8052 47.3446 38.7715 47.1738 38.7715H44.2003C43.8554 38.7715 43.5246 38.9085 43.2808 39.1523C43.0369 39.3962 42.8999 39.727 42.8999 40.0718C42.8999 40.4167 43.0369 40.7475 43.2808 40.9913C43.5246 41.2352 43.8554 41.3722 44.2003 41.3722H47.1738C47.5183 41.3722 47.8487 41.2353 48.0923 40.9917C48.336 40.7481 48.4728 40.4177 48.4728 40.0731V40.0731Z" fill="#26325B"/>
<path d="M71.2478 0H10.7483C4.82208 0 0 4.82338 0 10.7509V71.2465C0 77.1779 4.82208 82 10.7483 82H71.2478C77.1753 82 82 77.1779 82 71.2465V10.7509C82 4.82208 77.1753 0 71.2478 0V0ZM58.7106 52.5011V73.2275H45.9111V72.2545C45.9111 71.9096 45.7741 71.5789 45.5302 71.335C45.2863 71.0912 44.9556 70.9542 44.6107 70.9542C44.2658 70.9542 43.9351 71.0912 43.6912 71.335C43.4474 71.5789 43.3104 71.9096 43.3104 72.2545V73.2275H40.9721V72.2532C40.9721 71.9083 40.8351 71.5776 40.5912 71.3337C40.3473 71.0899 40.0166 70.9529 39.6717 70.9529C39.3268 70.9529 38.9961 71.0899 38.7522 71.3337C38.5084 71.5776 38.3714 71.9083 38.3714 72.2532V73.2275H32.6542V65.7489H28.835C26.3843 65.7487 24.0262 64.813 22.242 63.1329C20.4579 61.4528 19.3823 59.155 19.235 56.7088H20.3535C20.6984 56.7088 21.0292 56.5718 21.273 56.3279C21.5169 56.084 21.6539 55.7533 21.6539 55.4084C21.6539 55.0635 21.5169 54.7328 21.273 54.4889C21.0292 54.2451 20.6984 54.1081 20.3535 54.1081H19.2065V49.3328C19.6716 48.8899 20.1697 48.483 20.6965 48.1156C20.965 47.915 21.1458 47.6186 21.2012 47.2881C21.2567 46.9576 21.1826 46.6185 20.9942 46.3412C20.8059 46.064 20.5179 45.8701 20.1902 45.7999C19.8626 45.7297 19.5204 45.7886 19.235 45.9643C18.3764 46.5489 17.5463 47.253 16.7682 48.0571C16.6146 48.2197 16.5063 48.4196 16.4541 48.6371C16.4019 48.8545 16.4076 49.0818 16.4707 49.2964H15.9303C15.6058 49.296 15.2864 49.2155 15.0006 49.0619C14.7147 48.9083 14.4712 48.6865 14.2918 48.4162C14.1123 48.1458 14.0024 47.8353 13.9719 47.5123C13.9414 47.1892 13.9911 46.8637 14.1168 46.5645L19.2065 33.7247C19.2065 33.7247 19.7378 28.4012 20.2119 26.3668C22.3385 17.2033 32.549 8.88681 43.626 8.88681C57.1141 8.88681 68.0391 19.8183 68.0404 33.3025C68.0439 37.0008 67.2058 40.6514 65.5896 43.9779C63.9734 47.3044 61.6215 50.2195 58.7119 52.5024L58.7106 52.5011Z" fill="#26325B"/>
<path d="M47.0556 32.8232H46.6243V35.0368L47.0543 35.0394C48.3848 35.0442 49.6596 35.5741 50.6016 36.5138C51.5435 37.4535 52.0763 38.7271 52.0842 40.0577C52.077 41.3884 51.5444 42.6624 50.6023 43.6023C49.6602 44.5421 48.385 45.0718 47.0543 45.0759L46.6243 45.0811V47.2973H47.0556C51.0501 47.2973 54.3004 44.0496 54.3004 40.059C54.3004 36.0683 51.0501 32.8245 47.0556 32.8245V32.8232Z" fill="#26325B"/>
<path d="M44.603 62.7804C44.6173 62.7804 44.6277 62.7804 44.6407 62.7778C44.8114 62.7733 44.9795 62.7351 45.1353 62.6655C45.2912 62.5959 45.4319 62.4962 45.5492 62.3721C45.6665 62.2481 45.7581 62.1021 45.8189 61.9425C45.8797 61.783 45.9084 61.613 45.9034 61.4424C45.8744 60.3765 45.7532 59.3151 45.5409 58.2701C45.5138 58.0963 45.4517 57.9299 45.3584 57.7808C45.2651 57.6317 45.1426 57.503 44.9982 57.4026C44.8539 57.3021 44.6906 57.232 44.5184 57.1964C44.3462 57.1608 44.1685 57.1605 43.9961 57.1954C43.8238 57.2304 43.6603 57.2999 43.5155 57.3998C43.3708 57.4997 43.2478 57.6279 43.1539 57.7767C43.0601 57.9254 42.9974 58.0917 42.9696 58.2653C42.9418 58.439 42.9495 58.6165 42.9922 58.7871C43.1741 59.6809 43.2793 60.598 43.304 61.5125C43.3248 62.2179 43.9028 62.7778 44.603 62.7778V62.7804Z" fill="#26325B"/>
<path d="M44.6107 64.0796C43.8923 64.0796 43.309 64.6629 43.309 65.3812V68.3535C43.3012 68.5291 43.329 68.7045 43.3908 68.8692C43.4526 69.0338 43.5471 69.1841 43.6687 69.3112C43.7902 69.4383 43.9362 69.5394 44.0979 69.6085C44.2596 69.6776 44.4336 69.7133 44.6094 69.7133C44.7852 69.7133 44.9592 69.6776 45.1209 69.6085C45.2826 69.5394 45.4286 69.4383 45.5501 69.3112C45.6716 69.1841 45.7662 69.0338 45.828 68.8692C45.8898 68.7045 45.9176 68.5291 45.9097 68.3535V65.3812C45.9101 65.2104 45.8767 65.0412 45.8116 64.8833C45.7465 64.7254 45.6508 64.5819 45.5302 64.461C45.4095 64.3401 45.2662 64.2442 45.1084 64.1787C44.9506 64.1133 44.7815 64.0796 44.6107 64.0796Z" fill="#26325B"/>
</svg>
