<svg width="50" height="50" viewBox="0 0 82 82" fill="none" xmlns="http://www.w3.org/2000/svg">
<path d="M27.8214 26.4043C26.3734 26.4043 24.9579 26.8333 23.7539 27.6371C22.5499 28.4409 21.6115 29.5834 21.0573 30.9201C20.5032 32.2567 20.3582 33.7276 20.6407 35.1466C20.9232 36.5656 21.6205 37.869 22.6444 38.892C23.6683 39.9151 24.9729 40.6118 26.3931 40.894C27.8133 41.1763 29.2854 41.0314 30.6232 40.4777C31.961 39.9241 33.1045 38.9865 33.909 37.7835C34.7135 36.5805 35.1429 35.1662 35.1429 33.7194C35.1429 31.7793 34.3715 29.9187 32.9985 28.5469C31.6254 27.175 29.7632 26.4043 27.8214 26.4043V26.4043Z" fill="#26325B"/>
<path d="M54.1786 26.4043C52.7306 26.4043 51.315 26.8333 50.111 27.6371C48.907 28.4409 47.9686 29.5834 47.4145 30.9201C46.8604 32.2567 46.7154 33.7276 46.9979 35.1466C47.2804 36.5656 47.9777 37.869 49.0016 38.892C50.0255 39.9151 51.3301 40.6118 52.7503 40.894C54.1705 41.1763 55.6426 41.0314 56.9804 40.4777C58.3182 39.9241 59.4617 38.9865 60.2662 37.7835C61.0706 36.5805 61.5 35.1662 61.5 33.7194C61.5 31.7793 60.7287 29.9187 59.3556 28.5469C57.9826 27.175 56.1204 26.4043 54.1786 26.4043V26.4043Z" fill="#26325B"/>
<path d="M81.9999 41.0352C82.0123 33.8557 80.1359 26.7991 76.5589 20.5725C72.9819 14.3458 67.8299 9.16775 61.619 5.55718C55.4082 1.94661 48.3567 0.0303309 41.1712 0.000357111C33.9856 -0.0296167 26.9184 1.82777 20.6776 5.3864C14.4368 8.94503 9.24164 14.0799 5.61272 20.2765C1.9838 26.4731 0.0485537 33.5138 0.000901795 40.6931C-0.0467502 47.8724 1.79486 54.9381 5.34121 61.1823C8.88756 67.4265 14.0141 72.6297 20.2071 76.2707L20.251 76.7272C20.3904 78.1735 21.0651 79.5158 22.1431 80.4911C23.2211 81.4664 24.6246 82.0045 26.0789 82H55.921C57.3743 82.0046 58.7771 81.4673 59.855 80.4932C60.9328 79.5192 61.6081 78.1783 61.7489 76.7331L61.7928 76.2707C67.9423 72.6665 73.0422 67.5188 76.5867 61.3382C80.1312 55.1575 81.9973 48.1586 81.9999 41.0352V41.0352ZM40.9999 5.9225C50.0093 5.9265 58.6724 9.39035 65.1973 15.5975C71.7221 21.8047 75.6094 30.2802 76.0549 39.2708L60.8088 46.8873H21.1911L5.94494 39.2708C6.39052 30.2802 10.2778 21.8047 16.8026 15.5975C23.3275 9.39035 31.9906 5.9265 40.9999 5.9225V5.9225ZM6.20851 45.9451L17.7471 51.7094L19.4486 68.7098C12.2399 63.1309 7.49066 54.965 6.20851 45.9451V45.9451ZM55.921 76.1479H26.0789L23.736 52.7394H58.2639L55.921 76.1479ZM62.5513 68.7098L64.2528 51.7094L75.7914 45.9451C74.5097 54.9645 69.7615 63.1301 62.5542 68.7098H62.5513Z" fill="#26325B"/>
</svg>
