<svg width="40" height="40" viewBox="0 0 76 76" fill="none" xmlns="http://www.w3.org/2000/svg">
<path d="M7.69283 60.8C10.2354 67.83 15.5482 76 38.0516 76C47.0074 76 57.2914 75.734 64.6155 68.4C68.4103 64.6 76 57 76 34.2C76 11.4 68.4103 7.6 60.8206 7.6C55.5837 7.6 49.4361 7.6 45.6413 15.2V15.314C44.9582 16.5542 43.9114 17.5546 42.6423 18.1798C41.3731 18.805 39.9429 19.025 38.5449 18.81C34.2567 18.278 34.2567 16.606 34.2567 15.2V0H26.667V15.2C26.6252 16.7085 26.891 18.2096 27.4483 19.6117C28.0056 21.0138 28.8427 22.2873 29.9083 23.3543C30.9739 24.4214 32.2457 25.2596 33.6459 25.8177C35.046 26.3757 36.5452 26.6419 38.0516 26.6C41.8464 26.6 41.8464 33.364 41.8464 38C41.8464 45.182 39.949 50.388 34.2567 53.2C25.4906 57.57 16.7625 57 13.8025 51.186C13.4977 50.2701 12.9656 49.4467 12.256 48.7931C11.5465 48.1394 10.6828 47.677 9.74587 47.4491C8.80899 47.2212 7.82965 47.2353 6.89971 47.4902C5.96978 47.745 5.11972 48.2322 4.42927 48.906C2.82241 50.4063 1.59282 52.266 0.840947 54.3332C0.0890754 56.4003 -0.163744 58.6163 0.103145 60.8V76H7.69283V60.8Z" fill="#26325B"/>
</svg>
