<svg width="82" height="82" viewBox="0 0 82 82" fill="none" xmlns="http://www.w3.org/2000/svg">
<path d="M36.9 0.00539727C37.8596 0.00516879 38.7889 0.245341 39.5261 0.684088C40.2633 1.12284 40.7617 1.73236 40.9344 2.40651L41 2.93358V20.5027C41.001 23.8779 39.3691 27.1496 36.3806 29.7643C33.392 32.3789 29.2304 34.1758 24.6 34.8508V79.0664C24.6019 79.7981 24.2201 80.5039 23.5298 81.0446C22.8396 81.5853 21.8908 81.9219 20.8705 81.988C19.8501 82.0541 18.832 81.845 18.0168 81.4018C17.2015 80.9586 16.6481 80.3135 16.4656 79.5935L16.4 79.0664V34.8508C12.0062 34.209 8.028 32.5563 5.07484 30.1457C2.12169 27.7351 0.356347 24.6996 0.0492073 21.5041L6.95514e-06 20.5027V2.93358C-0.00187915 2.20185 0.379905 1.49614 1.07018 0.9554C1.76045 0.414664 2.70918 0.0780988 3.72954 0.0119835C4.74991 -0.0541319 5.76796 0.154993 6.58323 0.598177C7.39849 1.04136 7.95187 1.68649 8.13441 2.40651L8.20001 2.93358V20.5027C8.19867 22.3201 8.98661 24.093 10.4552 25.5772C11.9239 27.0614 14.0009 28.1837 16.4 28.7895V2.93358C16.3981 2.20185 16.7799 1.49614 17.4702 0.9554C18.1604 0.414664 19.1092 0.0780988 20.1295 0.0119835C21.1499 -0.0541319 22.168 0.154993 22.9832 0.598177C23.7985 1.04136 24.3519 1.68649 24.5344 2.40651L24.6 2.93358V28.7836C29.0116 27.6709 32.267 24.813 32.7426 21.3753L32.8 20.5027V2.93358C32.8 2.15698 33.232 1.41219 34.0009 0.863044C34.7698 0.313902 35.8126 0.00539727 36.9 0.00539727V0.00539727ZM77.9 0.00539727C78.8596 0.00516879 79.7889 0.245341 80.5261 0.684088C81.2633 1.12284 81.7617 1.73236 81.9344 2.40651L82 2.93358V79.0664C82.0019 79.7981 81.6201 80.5039 80.9298 81.0446C80.2396 81.5853 79.2908 81.9219 78.2705 81.988C77.2501 82.0541 76.232 81.845 75.4168 81.4018C74.6015 80.9586 74.0481 80.3135 73.8656 79.5935L73.8 79.0664V46.8564H61.5C60.5404 46.8566 59.6111 46.6164 58.8739 46.1777C58.1367 45.7389 57.6383 45.1294 57.4656 44.4553L57.4 43.9282V14.6463C57.4 10.7633 59.5598 7.03933 63.4043 4.29363C67.2488 1.54792 72.4631 0.00539727 77.9 0.00539727V0.00539727Z" fill="#26325B"/>
</svg>
