<svg width="182" height="188" viewBox="0 0 182 188" fill="none" xmlns="http://www.w3.org/2000/svg">
<g filter="url(#filter0_d)">
<ellipse cx="90" cy="93.2609" rx="86" ry="86.7391" fill="#26325B"/>
</g>
<g filter="url(#filter1_d)">
<path d="M86.5 85.5V6.5C165 6.5 189.5 85.5 170.5 123.5L86.5 85.5Z" fill="#E67571"/>
<path d="M86.5 85.5V6.5C165 6.5 189.5 85.5 170.5 123.5L86.5 85.5Z" stroke="#E67571"/>
</g>
<g filter="url(#filter2_d)">
<path d="M29.7363 114.964C29.7363 114.188 29.8877 113.49 30.1904 112.87C30.498 112.25 30.9229 111.771 31.4648 111.434C32.0117 111.097 32.6343 110.929 33.3325 110.929C34.4116 110.929 35.2832 111.302 35.9473 112.049C36.6162 112.796 36.9507 113.79 36.9507 115.03V115.125C36.9507 115.897 36.8018 116.59 36.5039 117.206C36.2109 117.816 35.7886 118.292 35.2368 118.634C34.6899 118.976 34.0601 119.146 33.3472 119.146C32.2729 119.146 31.4014 118.773 30.7324 118.026C30.0684 117.279 29.7363 116.29 29.7363 115.06V114.964ZM31.0986 115.125C31.0986 116.004 31.3013 116.71 31.7065 117.242C32.1167 117.774 32.6636 118.041 33.3472 118.041C34.0356 118.041 34.5825 117.772 34.9878 117.235C35.3931 116.693 35.5957 115.936 35.5957 114.964C35.5957 114.095 35.3882 113.392 34.9731 112.855C34.563 112.313 34.0161 112.042 33.3325 112.042C32.6636 112.042 32.124 112.308 31.7139 112.84C31.3037 113.373 31.0986 114.134 31.0986 115.125ZM39.3164 119V112.123H38.064V111.075H39.3164V110.262C39.3164 109.413 39.5435 108.756 39.9976 108.292C40.4517 107.828 41.0938 107.596 41.9238 107.596C42.2363 107.596 42.5464 107.638 42.854 107.721L42.7808 108.819C42.5513 108.775 42.3071 108.753 42.0483 108.753C41.6089 108.753 41.2695 108.883 41.0303 109.142C40.791 109.396 40.6714 109.762 40.6714 110.24V111.075H42.3633V112.123H40.6714V119H39.3164ZM49.4238 109.156V111.075H50.9033V112.123H49.4238V117.037C49.4238 117.354 49.4897 117.594 49.6216 117.755C49.7534 117.911 49.978 117.989 50.2954 117.989C50.4517 117.989 50.6665 117.96 50.9399 117.901V119C50.5835 119.098 50.2368 119.146 49.8999 119.146C49.2944 119.146 48.8379 118.963 48.5303 118.597C48.2227 118.231 48.0688 117.711 48.0688 117.037V112.123H46.626V111.075H48.0688V109.156H49.4238ZM53.8477 112.035C54.4482 111.297 55.2295 110.929 56.1914 110.929C57.8662 110.929 58.7109 111.874 58.7256 113.763V119H57.3706V113.756C57.3657 113.185 57.2339 112.762 56.9751 112.489C56.7212 112.215 56.3232 112.079 55.7812 112.079C55.3418 112.079 54.9561 112.196 54.624 112.43C54.292 112.665 54.0332 112.972 53.8477 113.353V119H52.4927V107.75H53.8477V112.035ZM60.3955 114.964C60.3955 114.188 60.5469 113.49 60.8496 112.87C61.1572 112.25 61.582 111.771 62.124 111.434C62.6709 111.097 63.2935 110.929 63.9917 110.929C65.0708 110.929 65.9424 111.302 66.6064 112.049C67.2754 112.796 67.6099 113.79 67.6099 115.03V115.125C67.6099 115.897 67.4609 116.59 67.1631 117.206C66.8701 117.816 66.4478 118.292 65.896 118.634C65.3491 118.976 64.7192 119.146 64.0063 119.146C62.9321 119.146 62.0605 118.773 61.3916 118.026C60.7275 117.279 60.3955 116.29 60.3955 115.06V114.964ZM61.7578 115.125C61.7578 116.004 61.9604 116.71 62.3657 117.242C62.7759 117.774 63.3228 118.041 64.0063 118.041C64.6948 118.041 65.2417 117.772 65.647 117.235C66.0522 116.693 66.2549 115.936 66.2549 114.964C66.2549 114.095 66.0474 113.392 65.6323 112.855C65.2222 112.313 64.6753 112.042 63.9917 112.042C63.3228 112.042 62.7832 112.308 62.373 112.84C61.9629 113.373 61.7578 114.134 61.7578 115.125ZM73.9233 116.898C73.9233 116.532 73.7842 116.249 73.5059 116.048C73.2324 115.843 72.7515 115.667 72.063 115.521C71.3794 115.375 70.835 115.199 70.4297 114.994C70.0293 114.789 69.7314 114.544 69.5361 114.261C69.3457 113.978 69.2505 113.641 69.2505 113.25C69.2505 112.601 69.5239 112.052 70.0708 111.603C70.6226 111.153 71.3257 110.929 72.1802 110.929C73.0786 110.929 73.8062 111.161 74.3628 111.625C74.9243 112.088 75.2051 112.682 75.2051 113.404H73.8428C73.8428 113.033 73.6841 112.713 73.3667 112.445C73.0542 112.176 72.6587 112.042 72.1802 112.042C71.687 112.042 71.3013 112.149 71.0229 112.364C70.7446 112.579 70.6055 112.86 70.6055 113.207C70.6055 113.534 70.7349 113.78 70.9937 113.946C71.2524 114.112 71.7188 114.271 72.3926 114.422C73.0713 114.574 73.6206 114.754 74.0405 114.964C74.4604 115.174 74.7705 115.428 74.9707 115.726C75.1758 116.019 75.2783 116.378 75.2783 116.803C75.2783 117.511 74.9951 118.08 74.4287 118.509C73.8623 118.934 73.1274 119.146 72.2241 119.146C71.5894 119.146 71.0278 119.034 70.5396 118.81C70.0513 118.585 69.668 118.272 69.3896 117.872C69.1162 117.467 68.9795 117.03 68.9795 116.561H70.3345C70.3589 117.015 70.5396 117.376 70.8765 117.645C71.2183 117.909 71.6675 118.041 72.2241 118.041C72.7368 118.041 73.147 117.938 73.4546 117.733C73.7671 117.523 73.9233 117.245 73.9233 116.898ZM80.332 119.146C79.2578 119.146 78.3838 118.795 77.71 118.092C77.0361 117.384 76.6992 116.439 76.6992 115.257V115.008C76.6992 114.222 76.8481 113.521 77.146 112.906C77.4487 112.286 77.8687 111.803 78.4058 111.456C78.9478 111.104 79.5337 110.929 80.1636 110.929C81.1938 110.929 81.9946 111.268 82.5659 111.947C83.1372 112.625 83.4229 113.597 83.4229 114.862V115.426H78.0542C78.0737 116.207 78.3008 116.839 78.7354 117.323C79.1748 117.801 79.7314 118.041 80.4053 118.041C80.8838 118.041 81.2891 117.943 81.6211 117.748C81.9531 117.552 82.2437 117.293 82.4927 116.971L83.3203 117.616C82.6562 118.636 81.6602 119.146 80.332 119.146ZM80.1636 112.042C79.6167 112.042 79.1577 112.242 78.7866 112.643C78.4155 113.038 78.186 113.595 78.0981 114.312H82.0679V114.21C82.0288 113.521 81.8433 112.989 81.5112 112.613C81.1792 112.232 80.73 112.042 80.1636 112.042ZM95.7349 117.132L97.2583 111.075H98.6133L96.3062 119H95.2075L93.2812 112.994L91.4062 119H90.3076L88.0078 111.075H89.3555L90.9155 117.008L92.7612 111.075H93.8525L95.7349 117.132ZM101.353 112.035C101.953 111.297 102.734 110.929 103.696 110.929C105.371 110.929 106.216 111.874 106.23 113.763V119H104.875V113.756C104.871 113.185 104.739 112.762 104.48 112.489C104.226 112.215 103.828 112.079 103.286 112.079C102.847 112.079 102.461 112.196 102.129 112.43C101.797 112.665 101.538 112.972 101.353 113.353V119H99.9976V107.75H101.353V112.035ZM107.9 114.964C107.9 114.188 108.052 113.49 108.354 112.87C108.662 112.25 109.087 111.771 109.629 111.434C110.176 111.097 110.798 110.929 111.497 110.929C112.576 110.929 113.447 111.302 114.111 112.049C114.78 112.796 115.115 113.79 115.115 115.03V115.125C115.115 115.897 114.966 116.59 114.668 117.206C114.375 117.816 113.953 118.292 113.401 118.634C112.854 118.976 112.224 119.146 111.511 119.146C110.437 119.146 109.565 118.773 108.896 118.026C108.232 117.279 107.9 116.29 107.9 115.06V114.964ZM109.263 115.125C109.263 116.004 109.465 116.71 109.871 117.242C110.281 117.774 110.828 118.041 111.511 118.041C112.2 118.041 112.747 117.772 113.152 117.235C113.557 116.693 113.76 115.936 113.76 114.964C113.76 114.095 113.552 113.392 113.137 112.855C112.727 112.313 112.18 112.042 111.497 112.042C110.828 112.042 110.288 112.308 109.878 112.84C109.468 113.373 109.263 114.134 109.263 115.125ZM121.89 112.035C122.49 111.297 123.271 110.929 124.233 110.929C125.908 110.929 126.753 111.874 126.768 113.763V119H125.413V113.756C125.408 113.185 125.276 112.762 125.017 112.489C124.763 112.215 124.365 112.079 123.823 112.079C123.384 112.079 122.998 112.196 122.666 112.43C122.334 112.665 122.075 112.972 121.89 113.353V119H120.535V107.75H121.89V112.035ZM133.689 119C133.611 118.844 133.547 118.565 133.499 118.165C132.869 118.819 132.117 119.146 131.243 119.146C130.461 119.146 129.819 118.927 129.316 118.487C128.818 118.043 128.569 117.481 128.569 116.803C128.569 115.978 128.882 115.338 129.507 114.884C130.137 114.425 131.021 114.195 132.158 114.195H133.477V113.573C133.477 113.099 133.335 112.723 133.052 112.445C132.769 112.162 132.351 112.02 131.799 112.02C131.316 112.02 130.911 112.142 130.583 112.386C130.256 112.63 130.093 112.926 130.093 113.272H128.73C128.73 112.877 128.87 112.496 129.148 112.13C129.431 111.759 129.812 111.466 130.291 111.251C130.774 111.036 131.304 110.929 131.88 110.929C132.793 110.929 133.508 111.158 134.026 111.617C134.543 112.071 134.812 112.699 134.832 113.5V117.147C134.832 117.875 134.924 118.453 135.11 118.883V119H133.689ZM131.44 117.967C131.865 117.967 132.268 117.857 132.649 117.638C133.03 117.418 133.306 117.132 133.477 116.781V115.155H132.415C130.754 115.155 129.924 115.641 129.924 116.612C129.924 117.037 130.066 117.369 130.349 117.608C130.632 117.848 130.996 117.967 131.44 117.967ZM139.453 117.162L141.416 111.075H142.8L139.958 119H138.926L136.055 111.075H137.439L139.453 117.162ZM147.29 119.146C146.216 119.146 145.342 118.795 144.668 118.092C143.994 117.384 143.657 116.439 143.657 115.257V115.008C143.657 114.222 143.806 113.521 144.104 112.906C144.407 112.286 144.827 111.803 145.364 111.456C145.906 111.104 146.492 110.929 147.122 110.929C148.152 110.929 148.953 111.268 149.524 111.947C150.095 112.625 150.381 113.597 150.381 114.862V115.426H145.012C145.032 116.207 145.259 116.839 145.693 117.323C146.133 117.801 146.689 118.041 147.363 118.041C147.842 118.041 148.247 117.943 148.579 117.748C148.911 117.552 149.202 117.293 149.451 116.971L150.278 117.616C149.614 118.636 148.618 119.146 147.29 119.146ZM147.122 112.042C146.575 112.042 146.116 112.242 145.745 112.643C145.374 113.038 145.144 113.595 145.056 114.312H149.026V114.21C148.987 113.521 148.801 112.989 148.469 112.613C148.137 112.232 147.688 112.042 147.122 112.042ZM31.5234 133.125C31.5234 134.336 31.2451 135.311 30.6885 136.048C30.1318 136.78 29.3848 137.146 28.4473 137.146C27.4463 137.146 26.6724 136.792 26.1255 136.084L26.0596 137H24.8145V125.75H26.1694V129.947C26.7163 129.268 27.4707 128.929 28.4326 128.929C29.3945 128.929 30.1489 129.292 30.6958 130.02C31.2476 130.748 31.5234 131.744 31.5234 133.008V133.125ZM30.1685 132.972C30.1685 132.049 29.9902 131.336 29.6338 130.833C29.2773 130.33 28.7646 130.079 28.0957 130.079C27.2021 130.079 26.5601 130.494 26.1694 131.324V134.751C26.5845 135.582 27.2314 135.997 28.1104 135.997C28.7598 135.997 29.2651 135.745 29.6265 135.242C29.9878 134.739 30.1685 133.982 30.1685 132.972ZM38.1299 136.216C37.6025 136.836 36.8286 137.146 35.8081 137.146C34.9634 137.146 34.3188 136.902 33.8745 136.414C33.4351 135.921 33.2129 135.193 33.208 134.231V129.075H34.563V134.195C34.563 135.396 35.0513 135.997 36.0278 135.997C37.063 135.997 37.7515 135.611 38.0933 134.839V129.075H39.4482V137H38.1592L38.1299 136.216ZM42.9858 137H41.6309V125.75H42.9858V137ZM46.6333 137H45.2783V129.075H46.6333V137ZM45.1685 126.973C45.1685 126.753 45.2344 126.568 45.3662 126.417C45.5029 126.265 45.7031 126.189 45.9668 126.189C46.2305 126.189 46.4307 126.265 46.5674 126.417C46.7041 126.568 46.7725 126.753 46.7725 126.973C46.7725 127.193 46.7041 127.376 46.5674 127.522C46.4307 127.669 46.2305 127.742 45.9668 127.742C45.7031 127.742 45.5029 127.669 45.3662 127.522C45.2344 127.376 45.1685 127.193 45.1685 126.973ZM50.083 129.075L50.1196 129.954C50.7007 129.271 51.4844 128.929 52.4707 128.929C53.5791 128.929 54.3335 129.354 54.7339 130.203C54.9976 129.822 55.3394 129.515 55.7593 129.28C56.1841 129.046 56.6846 128.929 57.2607 128.929C58.999 128.929 59.8828 129.849 59.9121 131.69V137H58.5571V131.771C58.5571 131.204 58.4277 130.782 58.1689 130.503C57.9102 130.22 57.4756 130.079 56.8652 130.079C56.3623 130.079 55.9448 130.23 55.6128 130.533C55.2808 130.831 55.0879 131.233 55.0342 131.741V137H53.6719V131.807C53.6719 130.655 53.1079 130.079 51.98 130.079C51.0913 130.079 50.4834 130.457 50.1562 131.214V137H48.8013V129.075H50.083ZM66.8555 137C66.7773 136.844 66.7139 136.565 66.665 136.165C66.0352 136.819 65.2832 137.146 64.4092 137.146C63.6279 137.146 62.9858 136.927 62.4829 136.487C61.9849 136.043 61.7358 135.481 61.7358 134.803C61.7358 133.978 62.0483 133.338 62.6733 132.884C63.3032 132.425 64.187 132.195 65.3247 132.195H66.6431V131.573C66.6431 131.099 66.5015 130.723 66.2183 130.445C65.9351 130.162 65.5176 130.02 64.9658 130.02C64.4824 130.02 64.0771 130.142 63.75 130.386C63.4229 130.63 63.2593 130.926 63.2593 131.272H61.897C61.897 130.877 62.0361 130.496 62.3145 130.13C62.5977 129.759 62.9785 129.466 63.457 129.251C63.9404 129.036 64.4702 128.929 65.0464 128.929C65.9595 128.929 66.6748 129.158 67.1924 129.617C67.71 130.071 67.9785 130.699 67.998 131.5V135.147C67.998 135.875 68.0908 136.453 68.2764 136.883V137H66.8555ZM64.6069 135.967C65.0317 135.967 65.4346 135.857 65.8154 135.638C66.1963 135.418 66.4722 135.132 66.6431 134.781V133.155H65.5811C63.9209 133.155 63.0908 133.641 63.0908 134.612C63.0908 135.037 63.2324 135.369 63.5156 135.608C63.7988 135.848 64.1626 135.967 64.6069 135.967ZM78.7354 137C78.6572 136.844 78.5938 136.565 78.5449 136.165C77.915 136.819 77.1631 137.146 76.2891 137.146C75.5078 137.146 74.8657 136.927 74.3628 136.487C73.8647 136.043 73.6157 135.481 73.6157 134.803C73.6157 133.978 73.9282 133.338 74.5532 132.884C75.1831 132.425 76.0669 132.195 77.2046 132.195H78.5229V131.573C78.5229 131.099 78.3813 130.723 78.0981 130.445C77.8149 130.162 77.3975 130.02 76.8457 130.02C76.3623 130.02 75.957 130.142 75.6299 130.386C75.3027 130.63 75.1392 130.926 75.1392 131.272H73.7769C73.7769 130.877 73.916 130.496 74.1943 130.13C74.4775 129.759 74.8584 129.466 75.3369 129.251C75.8203 129.036 76.3501 128.929 76.9263 128.929C77.8394 128.929 78.5547 129.158 79.0723 129.617C79.5898 130.071 79.8584 130.699 79.8779 131.5V135.147C79.8779 135.875 79.9707 136.453 80.1562 136.883V137H78.7354ZM76.4868 135.967C76.9116 135.967 77.3145 135.857 77.6953 135.638C78.0762 135.418 78.3521 135.132 78.5229 134.781V133.155H77.4609C75.8008 133.155 74.9707 133.641 74.9707 134.612C74.9707 135.037 75.1123 135.369 75.3955 135.608C75.6787 135.848 76.0425 135.967 76.4868 135.967ZM83.4741 137H82.1191V125.75H83.4741V137ZM90.2637 134.898C90.2637 134.532 90.1245 134.249 89.8462 134.048C89.5728 133.843 89.0918 133.667 88.4033 133.521C87.7197 133.375 87.1753 133.199 86.77 132.994C86.3696 132.789 86.0718 132.544 85.8765 132.261C85.686 131.978 85.5908 131.641 85.5908 131.25C85.5908 130.601 85.8643 130.052 86.4111 129.603C86.9629 129.153 87.666 128.929 88.5205 128.929C89.4189 128.929 90.1465 129.161 90.7031 129.625C91.2646 130.088 91.5454 130.682 91.5454 131.404H90.1831C90.1831 131.033 90.0244 130.713 89.707 130.445C89.3945 130.176 88.999 130.042 88.5205 130.042C88.0273 130.042 87.6416 130.149 87.3633 130.364C87.085 130.579 86.9458 130.86 86.9458 131.207C86.9458 131.534 87.0752 131.78 87.334 131.946C87.5928 132.112 88.0591 132.271 88.7329 132.422C89.4116 132.574 89.9609 132.754 90.3809 132.964C90.8008 133.174 91.1108 133.428 91.311 133.726C91.5161 134.019 91.6187 134.378 91.6187 134.803C91.6187 135.511 91.3354 136.08 90.769 136.509C90.2026 136.934 89.4678 137.146 88.5645 137.146C87.9297 137.146 87.3682 137.034 86.8799 136.81C86.3916 136.585 86.0083 136.272 85.73 135.872C85.4565 135.467 85.3198 135.03 85.3198 134.561H86.6748C86.6992 135.015 86.8799 135.376 87.2168 135.645C87.5586 135.909 88.0078 136.041 88.5645 136.041C89.0771 136.041 89.4873 135.938 89.7949 135.733C90.1074 135.523 90.2637 135.245 90.2637 134.898ZM93.0249 132.964C93.0249 132.188 93.1763 131.49 93.479 130.87C93.7866 130.25 94.2114 129.771 94.7534 129.434C95.3003 129.097 95.9229 128.929 96.6211 128.929C97.7002 128.929 98.5718 129.302 99.2358 130.049C99.9048 130.796 100.239 131.79 100.239 133.03V133.125C100.239 133.897 100.09 134.59 99.7925 135.206C99.4995 135.816 99.0771 136.292 98.5254 136.634C97.9785 136.976 97.3486 137.146 96.6357 137.146C95.5615 137.146 94.6899 136.773 94.021 136.026C93.3569 135.279 93.0249 134.29 93.0249 133.06V132.964ZM94.3872 133.125C94.3872 134.004 94.5898 134.71 94.9951 135.242C95.4053 135.774 95.9521 136.041 96.6357 136.041C97.3242 136.041 97.8711 135.772 98.2764 135.235C98.6816 134.693 98.8843 133.936 98.8843 132.964C98.8843 132.095 98.6768 131.392 98.2617 130.855C97.8516 130.313 97.3047 130.042 96.6211 130.042C95.9521 130.042 95.4126 130.308 95.0024 130.84C94.5923 131.373 94.3872 132.134 94.3872 133.125ZM107.014 130.035C107.615 129.297 108.396 128.929 109.358 128.929C111.033 128.929 111.877 129.874 111.892 131.763V137H110.537V131.756C110.532 131.185 110.4 130.762 110.142 130.489C109.888 130.215 109.49 130.079 108.948 130.079C108.508 130.079 108.123 130.196 107.791 130.43C107.458 130.665 107.2 130.972 107.014 131.353V137H105.659V125.75H107.014V130.035ZM118.813 137C118.735 136.844 118.672 136.565 118.623 136.165C117.993 136.819 117.241 137.146 116.367 137.146C115.586 137.146 114.944 136.927 114.441 136.487C113.943 136.043 113.694 135.481 113.694 134.803C113.694 133.978 114.006 133.338 114.631 132.884C115.261 132.425 116.145 132.195 117.283 132.195H118.601V131.573C118.601 131.099 118.459 130.723 118.176 130.445C117.893 130.162 117.476 130.02 116.924 130.02C116.44 130.02 116.035 130.142 115.708 130.386C115.381 130.63 115.217 130.926 115.217 131.272H113.855C113.855 130.877 113.994 130.496 114.272 130.13C114.556 129.759 114.937 129.466 115.415 129.251C115.898 129.036 116.428 128.929 117.004 128.929C117.917 128.929 118.633 129.158 119.15 129.617C119.668 130.071 119.937 130.699 119.956 131.5V135.147C119.956 135.875 120.049 136.453 120.234 136.883V137H118.813ZM116.565 135.967C116.99 135.967 117.393 135.857 117.773 135.638C118.154 135.418 118.43 135.132 118.601 134.781V133.155H117.539C115.879 133.155 115.049 133.641 115.049 134.612C115.049 135.037 115.19 135.369 115.474 135.608C115.757 135.848 116.121 135.967 116.565 135.967ZM124.578 135.162L126.541 129.075H127.925L125.083 137H124.05L121.179 129.075H122.563L124.578 135.162ZM132.415 137.146C131.34 137.146 130.466 136.795 129.792 136.092C129.119 135.384 128.782 134.439 128.782 133.257V133.008C128.782 132.222 128.931 131.521 129.229 130.906C129.531 130.286 129.951 129.803 130.488 129.456C131.03 129.104 131.616 128.929 132.246 128.929C133.276 128.929 134.077 129.268 134.648 129.947C135.22 130.625 135.505 131.597 135.505 132.862V133.426H130.137C130.156 134.207 130.383 134.839 130.818 135.323C131.257 135.801 131.814 136.041 132.488 136.041C132.966 136.041 133.372 135.943 133.704 135.748C134.036 135.552 134.326 135.293 134.575 134.971L135.403 135.616C134.739 136.636 133.743 137.146 132.415 137.146ZM132.246 130.042C131.699 130.042 131.24 130.242 130.869 130.643C130.498 131.038 130.269 131.595 130.181 132.312H134.15V132.21C134.111 131.521 133.926 130.989 133.594 130.613C133.262 130.232 132.812 130.042 132.246 130.042ZM145.693 137C145.615 136.844 145.552 136.565 145.503 136.165C144.873 136.819 144.121 137.146 143.247 137.146C142.466 137.146 141.824 136.927 141.321 136.487C140.823 136.043 140.574 135.481 140.574 134.803C140.574 133.978 140.886 133.338 141.511 132.884C142.141 132.425 143.025 132.195 144.163 132.195H145.481V131.573C145.481 131.099 145.339 130.723 145.056 130.445C144.773 130.162 144.355 130.02 143.804 130.02C143.32 130.02 142.915 130.142 142.588 130.386C142.261 130.63 142.097 130.926 142.097 131.272H140.735C140.735 130.877 140.874 130.496 141.152 130.13C141.436 129.759 141.816 129.466 142.295 129.251C142.778 129.036 143.308 128.929 143.884 128.929C144.797 128.929 145.513 129.158 146.03 129.617C146.548 130.071 146.816 130.699 146.836 131.5V135.147C146.836 135.875 146.929 136.453 147.114 136.883V137H145.693ZM143.445 135.967C143.87 135.967 144.272 135.857 144.653 135.638C145.034 135.418 145.31 135.132 145.481 134.781V133.155H144.419C142.759 133.155 141.929 133.641 141.929 134.612C141.929 135.037 142.07 135.369 142.354 135.608C142.637 135.848 143 135.967 143.445 135.967ZM150.242 129.075L150.286 130.071C150.891 129.31 151.682 128.929 152.659 128.929C154.333 128.929 155.178 129.874 155.193 131.763V137H153.838V131.756C153.833 131.185 153.701 130.762 153.442 130.489C153.188 130.215 152.791 130.079 152.249 130.079C151.809 130.079 151.423 130.196 151.091 130.43C150.759 130.665 150.5 130.972 150.315 131.353V137H148.96V129.075H150.242ZM36.5039 155C36.4258 154.844 36.3623 154.565 36.3135 154.165C35.6836 154.819 34.9316 155.146 34.0576 155.146C33.2764 155.146 32.6343 154.927 32.1313 154.487C31.6333 154.043 31.3843 153.481 31.3843 152.803C31.3843 151.978 31.6968 151.338 32.3218 150.884C32.9517 150.425 33.8354 150.195 34.9731 150.195H36.2915V149.573C36.2915 149.099 36.1499 148.723 35.8667 148.445C35.5835 148.162 35.166 148.02 34.6143 148.02C34.1309 148.02 33.7256 148.142 33.3984 148.386C33.0713 148.63 32.9077 148.926 32.9077 149.272H31.5454C31.5454 148.877 31.6846 148.496 31.9629 148.13C32.2461 147.759 32.627 147.466 33.1055 147.251C33.5889 147.036 34.1187 146.929 34.6948 146.929C35.6079 146.929 36.3232 147.158 36.8408 147.617C37.3584 148.071 37.627 148.699 37.6465 149.5V153.147C37.6465 153.875 37.7393 154.453 37.9248 154.883V155H36.5039ZM34.2554 153.967C34.6802 153.967 35.083 153.857 35.4639 153.638C35.8447 153.418 36.1206 153.132 36.2915 152.781V151.155H35.2295C33.5693 151.155 32.7393 151.641 32.7393 152.612C32.7393 153.037 32.8809 153.369 33.1641 153.608C33.4473 153.848 33.811 153.967 34.2554 153.967ZM39.4409 150.972C39.4409 149.756 39.729 148.779 40.3052 148.042C40.8813 147.3 41.6357 146.929 42.5684 146.929C43.4961 146.929 44.231 147.246 44.7729 147.881V143.75H46.1279V155H44.8828L44.8169 154.15C44.2749 154.814 43.5205 155.146 42.5537 155.146C41.6357 155.146 40.8862 154.771 40.3052 154.019C39.729 153.267 39.4409 152.285 39.4409 151.074V150.972ZM40.7959 151.125C40.7959 152.024 40.9814 152.727 41.3525 153.235C41.7236 153.743 42.2363 153.997 42.8906 153.997C43.75 153.997 44.3774 153.611 44.7729 152.839V149.199C44.3677 148.452 43.7451 148.079 42.9053 148.079C42.2412 148.079 41.7236 148.335 41.3525 148.848C40.9814 149.36 40.7959 150.12 40.7959 151.125ZM47.9077 150.972C47.9077 149.756 48.1958 148.779 48.772 148.042C49.3481 147.3 50.1025 146.929 51.0352 146.929C51.9629 146.929 52.6978 147.246 53.2397 147.881V143.75H54.5947V155H53.3496L53.2837 154.15C52.7417 154.814 51.9873 155.146 51.0205 155.146C50.1025 155.146 49.353 154.771 48.772 154.019C48.1958 153.267 47.9077 152.285 47.9077 151.074V150.972ZM49.2627 151.125C49.2627 152.024 49.4482 152.727 49.8193 153.235C50.1904 153.743 50.7031 153.997 51.3574 153.997C52.2168 153.997 52.8442 153.611 53.2397 152.839V149.199C52.8345 148.452 52.2119 148.079 51.3721 148.079C50.708 148.079 50.1904 148.335 49.8193 148.848C49.4482 149.36 49.2627 150.12 49.2627 151.125ZM58.1763 155H56.8213V147.075H58.1763V155ZM56.7114 144.973C56.7114 144.753 56.7773 144.568 56.9092 144.417C57.0459 144.265 57.2461 144.189 57.5098 144.189C57.7734 144.189 57.9736 144.265 58.1104 144.417C58.2471 144.568 58.3154 144.753 58.3154 144.973C58.3154 145.193 58.2471 145.376 58.1104 145.522C57.9736 145.669 57.7734 145.742 57.5098 145.742C57.2461 145.742 57.0459 145.669 56.9092 145.522C56.7773 145.376 56.7114 145.193 56.7114 144.973ZM63.5303 154.041C64.0137 154.041 64.436 153.894 64.7974 153.601C65.1587 153.308 65.3589 152.942 65.3979 152.502H66.6797C66.6553 152.957 66.499 153.389 66.2109 153.799C65.9229 154.209 65.5371 154.536 65.0537 154.78C64.5752 155.024 64.0674 155.146 63.5303 155.146C62.4512 155.146 61.5918 154.788 60.9521 154.07C60.3174 153.347 60 152.361 60 151.111V150.884C60 150.112 60.1416 149.426 60.4248 148.826C60.708 148.225 61.1133 147.759 61.6406 147.427C62.1729 147.095 62.8003 146.929 63.5229 146.929C64.4116 146.929 65.1489 147.195 65.7349 147.727C66.3257 148.259 66.6406 148.95 66.6797 149.8H65.3979C65.3589 149.287 65.1636 148.867 64.812 148.54C64.4653 148.208 64.0356 148.042 63.5229 148.042C62.8345 148.042 62.2998 148.291 61.9189 148.789C61.543 149.282 61.355 149.998 61.355 150.935V151.191C61.355 152.104 61.543 152.808 61.9189 153.301C62.2949 153.794 62.832 154.041 63.5303 154.041ZM70.0415 145.156V147.075H71.521V148.123H70.0415V153.037C70.0415 153.354 70.1074 153.594 70.2393 153.755C70.3711 153.911 70.5957 153.989 70.9131 153.989C71.0693 153.989 71.2842 153.96 71.5576 153.901V155C71.2012 155.098 70.8545 155.146 70.5176 155.146C69.9121 155.146 69.4556 154.963 69.1479 154.597C68.8403 154.231 68.6865 153.711 68.6865 153.037V148.123H67.2437V147.075H68.6865V145.156H70.0415ZM74.5825 155H73.2275V147.075H74.5825V155ZM73.1177 144.973C73.1177 144.753 73.1836 144.568 73.3154 144.417C73.4521 144.265 73.6523 144.189 73.916 144.189C74.1797 144.189 74.3799 144.265 74.5166 144.417C74.6533 144.568 74.7217 144.753 74.7217 144.973C74.7217 145.193 74.6533 145.376 74.5166 145.522C74.3799 145.669 74.1797 145.742 73.916 145.742C73.6523 145.742 73.4521 145.669 73.3154 145.522C73.1836 145.376 73.1177 145.193 73.1177 144.973ZM79.3726 153.162L81.3354 147.075H82.7197L79.8779 155H78.8452L75.9741 147.075H77.3584L79.3726 153.162ZM87.2095 155.146C86.1353 155.146 85.2612 154.795 84.5874 154.092C83.9136 153.384 83.5767 152.439 83.5767 151.257V151.008C83.5767 150.222 83.7256 149.521 84.0234 148.906C84.3262 148.286 84.7461 147.803 85.2832 147.456C85.8252 147.104 86.4111 146.929 87.041 146.929C88.0713 146.929 88.8721 147.268 89.4434 147.947C90.0146 148.625 90.3003 149.597 90.3003 150.862V151.426H84.9316C84.9512 152.207 85.1782 152.839 85.6128 153.323C86.0522 153.801 86.6089 154.041 87.2827 154.041C87.7612 154.041 88.1665 153.943 88.4985 153.748C88.8306 153.552 89.1211 153.293 89.3701 152.971L90.1978 153.616C89.5337 154.636 88.5376 155.146 87.2095 155.146ZM87.041 148.042C86.4941 148.042 86.0352 148.242 85.6641 148.643C85.293 149.038 85.0635 149.595 84.9756 150.312H88.9453V150.21C88.9062 149.521 88.7207 148.989 88.3887 148.613C88.0566 148.232 87.6074 148.042 87.041 148.042ZM95.2661 150.972C95.2661 149.756 95.5542 148.779 96.1304 148.042C96.7065 147.3 97.4609 146.929 98.3936 146.929C99.3213 146.929 100.056 147.246 100.598 147.881V143.75H101.953V155H100.708L100.642 154.15C100.1 154.814 99.3457 155.146 98.3789 155.146C97.4609 155.146 96.7114 154.771 96.1304 154.019C95.5542 153.267 95.2661 152.285 95.2661 151.074V150.972ZM96.6211 151.125C96.6211 152.024 96.8066 152.727 97.1777 153.235C97.5488 153.743 98.0615 153.997 98.7158 153.997C99.5752 153.997 100.203 153.611 100.598 152.839V149.199C100.193 148.452 99.5703 148.079 98.7305 148.079C98.0664 148.079 97.5488 148.335 97.1777 148.848C96.8066 149.36 96.6211 150.12 96.6211 151.125ZM105.535 155H104.18V147.075H105.535V155ZM104.07 144.973C104.07 144.753 104.136 144.568 104.268 144.417C104.404 144.265 104.604 144.189 104.868 144.189C105.132 144.189 105.332 144.265 105.469 144.417C105.605 144.568 105.674 144.753 105.674 144.973C105.674 145.193 105.605 145.376 105.469 145.522C105.332 145.669 105.132 145.742 104.868 145.742C104.604 145.742 104.404 145.669 104.268 145.522C104.136 145.376 104.07 145.193 104.07 144.973ZM112.324 152.898C112.324 152.532 112.185 152.249 111.907 152.048C111.633 151.843 111.152 151.667 110.464 151.521C109.78 151.375 109.236 151.199 108.831 150.994C108.43 150.789 108.132 150.544 107.937 150.261C107.747 149.978 107.651 149.641 107.651 149.25C107.651 148.601 107.925 148.052 108.472 147.603C109.023 147.153 109.727 146.929 110.581 146.929C111.479 146.929 112.207 147.161 112.764 147.625C113.325 148.088 113.606 148.682 113.606 149.404H112.244C112.244 149.033 112.085 148.713 111.768 148.445C111.455 148.176 111.06 148.042 110.581 148.042C110.088 148.042 109.702 148.149 109.424 148.364C109.146 148.579 109.006 148.86 109.006 149.207C109.006 149.534 109.136 149.78 109.395 149.946C109.653 150.112 110.12 150.271 110.793 150.422C111.472 150.574 112.021 150.754 112.441 150.964C112.861 151.174 113.171 151.428 113.372 151.726C113.577 152.019 113.679 152.378 113.679 152.803C113.679 153.511 113.396 154.08 112.83 154.509C112.263 154.934 111.528 155.146 110.625 155.146C109.99 155.146 109.429 155.034 108.94 154.81C108.452 154.585 108.069 154.272 107.791 153.872C107.517 153.467 107.38 153.03 107.38 152.561H108.735C108.76 153.015 108.94 153.376 109.277 153.645C109.619 153.909 110.068 154.041 110.625 154.041C111.138 154.041 111.548 153.938 111.855 153.733C112.168 153.523 112.324 153.245 112.324 152.898ZM115.085 150.964C115.085 150.188 115.237 149.49 115.54 148.87C115.847 148.25 116.272 147.771 116.814 147.434C117.361 147.097 117.983 146.929 118.682 146.929C119.761 146.929 120.632 147.302 121.296 148.049C121.965 148.796 122.3 149.79 122.3 151.03V151.125C122.3 151.897 122.151 152.59 121.853 153.206C121.56 153.816 121.138 154.292 120.586 154.634C120.039 154.976 119.409 155.146 118.696 155.146C117.622 155.146 116.75 154.773 116.082 154.026C115.417 153.279 115.085 152.29 115.085 151.06V150.964ZM116.448 151.125C116.448 152.004 116.65 152.71 117.056 153.242C117.466 153.774 118.013 154.041 118.696 154.041C119.385 154.041 119.932 153.772 120.337 153.235C120.742 152.693 120.945 151.936 120.945 150.964C120.945 150.095 120.737 149.392 120.322 148.855C119.912 148.313 119.365 148.042 118.682 148.042C118.013 148.042 117.473 148.308 117.063 148.84C116.653 149.373 116.448 150.134 116.448 151.125ZM127.83 148.291C127.625 148.257 127.402 148.24 127.163 148.24C126.274 148.24 125.671 148.618 125.354 149.375V155H123.999V147.075H125.317L125.339 147.991C125.784 147.283 126.414 146.929 127.229 146.929C127.493 146.929 127.693 146.963 127.83 147.031V148.291ZM128.606 150.972C128.606 149.756 128.894 148.779 129.47 148.042C130.046 147.3 130.801 146.929 131.733 146.929C132.661 146.929 133.396 147.246 133.938 147.881V143.75H135.293V155H134.048L133.982 154.15C133.44 154.814 132.686 155.146 131.719 155.146C130.801 155.146 130.051 154.771 129.47 154.019C128.894 153.267 128.606 152.285 128.606 151.074V150.972ZM129.961 151.125C129.961 152.024 130.146 152.727 130.518 153.235C130.889 153.743 131.401 153.997 132.056 153.997C132.915 153.997 133.542 153.611 133.938 152.839V149.199C133.533 148.452 132.91 148.079 132.07 148.079C131.406 148.079 130.889 148.335 130.518 148.848C130.146 149.36 129.961 150.12 129.961 151.125ZM140.691 155.146C139.617 155.146 138.743 154.795 138.069 154.092C137.395 153.384 137.058 152.439 137.058 151.257V151.008C137.058 150.222 137.207 149.521 137.505 148.906C137.808 148.286 138.228 147.803 138.765 147.456C139.307 147.104 139.893 146.929 140.522 146.929C141.553 146.929 142.354 147.268 142.925 147.947C143.496 148.625 143.782 149.597 143.782 150.862V151.426H138.413C138.433 152.207 138.66 152.839 139.094 153.323C139.534 153.801 140.09 154.041 140.764 154.041C141.243 154.041 141.648 153.943 141.98 153.748C142.312 153.552 142.603 153.293 142.852 152.971L143.679 153.616C143.015 154.636 142.019 155.146 140.691 155.146ZM140.522 148.042C139.976 148.042 139.517 148.242 139.146 148.643C138.774 149.038 138.545 149.595 138.457 150.312H142.427V150.21C142.388 149.521 142.202 148.989 141.87 148.613C141.538 148.232 141.089 148.042 140.522 148.042ZM149.187 148.291C148.982 148.257 148.76 148.24 148.521 148.24C147.632 148.24 147.029 148.618 146.711 149.375V155H145.356V147.075H146.675L146.697 147.991C147.141 147.283 147.771 146.929 148.586 146.929C148.85 146.929 149.05 146.963 149.187 147.031V148.291Z" fill="white"/>
</g>
<g filter="url(#filter3_d)">
<path d="M78.6523 48.3359V55.5869C78.6475 56.5928 78.3301 57.4155 77.7002 58.0552C77.0752 58.6948 76.2256 59.0537 75.1514 59.1318L74.7778 59.1465C73.6108 59.1465 72.6807 58.8315 71.9873 58.2017C71.2939 57.5718 70.9424 56.7051 70.9326 55.6016V48.3359H72.3242V55.5576C72.3242 56.3291 72.5366 56.9297 72.9614 57.3594C73.3862 57.7842 73.9917 57.9966 74.7778 57.9966C75.5737 57.9966 76.1816 57.7842 76.6016 57.3594C77.0264 56.9346 77.2388 56.3364 77.2388 55.5649V48.3359H78.6523ZM87.3535 55.1255C87.3535 56.3315 87.0776 57.3032 86.5259 58.0405C85.9741 58.7778 85.2271 59.1465 84.2847 59.1465C83.3228 59.1465 82.5659 58.8413 82.0142 58.231V62.0469H80.6592V51.0752H81.897L81.9629 51.9541C82.5146 51.2705 83.2812 50.9287 84.2627 50.9287C85.2148 50.9287 85.9668 51.2876 86.5186 52.0054C87.0752 52.7231 87.3535 53.7217 87.3535 55.001V55.1255ZM85.9985 54.9717C85.9985 54.0781 85.8081 53.3726 85.4272 52.855C85.0464 52.3374 84.5239 52.0786 83.8599 52.0786C83.0396 52.0786 82.4243 52.4424 82.0142 53.1699V56.9565C82.4194 57.6792 83.0396 58.0405 83.8745 58.0405C84.5239 58.0405 85.0391 57.7842 85.4199 57.2715C85.8057 56.7539 85.9985 55.9873 85.9985 54.9717ZM94.6411 49.1562V51.0752H96.1206V52.1226H94.6411V57.0371C94.6411 57.3545 94.707 57.5938 94.8389 57.7549C94.9707 57.9111 95.1953 57.9893 95.5127 57.9893C95.6689 57.9893 95.8838 57.96 96.1572 57.9014V59C95.8008 59.0977 95.4541 59.1465 95.1172 59.1465C94.5117 59.1465 94.0552 58.9634 93.7476 58.5972C93.4399 58.231 93.2861 57.7109 93.2861 57.0371V52.1226H91.8433V51.0752H93.2861V49.1562H94.6411ZM97.2046 54.9644C97.2046 54.188 97.356 53.4897 97.6587 52.8696C97.9663 52.2495 98.3911 51.771 98.9331 51.4341C99.48 51.0972 100.103 50.9287 100.801 50.9287C101.88 50.9287 102.751 51.3022 103.416 52.0493C104.084 52.7964 104.419 53.79 104.419 55.0303V55.1255C104.419 55.897 104.27 56.5903 103.972 57.2056C103.679 57.8159 103.257 58.292 102.705 58.6338C102.158 58.9756 101.528 59.1465 100.815 59.1465C99.7412 59.1465 98.8696 58.7729 98.2007 58.0259C97.5366 57.2788 97.2046 56.29 97.2046 55.0596V54.9644ZM98.5669 55.1255C98.5669 56.0044 98.7695 56.71 99.1748 57.2422C99.585 57.7744 100.132 58.0405 100.815 58.0405C101.504 58.0405 102.051 57.772 102.456 57.2349C102.861 56.6929 103.064 55.936 103.064 54.9644C103.064 54.0952 102.856 53.3921 102.441 52.855C102.031 52.313 101.484 52.042 100.801 52.042C100.132 52.042 99.5923 52.3081 99.1821 52.8403C98.772 53.3726 98.5669 54.1343 98.5669 55.1255Z" fill="white"/>
</g>
<g filter="url(#filter4_d)">
<path d="M55.6055 82.9688H57.4102C58.2695 82.9688 58.9062 82.7539 59.3203 82.3242C59.7344 81.8945 59.9414 81.3242 59.9414 80.6133C59.9414 79.9258 59.7344 79.3906 59.3203 79.0078C58.9141 78.625 58.3516 78.4336 57.6328 78.4336C56.9844 78.4336 56.4414 78.6133 56.0039 78.9727C55.5664 79.3242 55.3477 79.7852 55.3477 80.3555H51.9609C51.9609 79.4648 52.1992 78.668 52.6758 77.9648C53.1602 77.2539 53.832 76.6992 54.6914 76.3008C55.5586 75.9023 56.5117 75.7031 57.5508 75.7031C59.3555 75.7031 60.7695 76.1367 61.793 77.0039C62.8164 77.8633 63.3281 79.0508 63.3281 80.5664C63.3281 81.3477 63.0898 82.0664 62.6133 82.7227C62.1367 83.3789 61.5117 83.8828 60.7383 84.2344C61.6992 84.5781 62.4141 85.0938 62.8828 85.7812C63.3594 86.4688 63.5977 87.2812 63.5977 88.2188C63.5977 89.7344 63.043 90.9492 61.9336 91.8633C60.832 92.7773 59.3711 93.2344 57.5508 93.2344C55.8477 93.2344 54.4531 92.7852 53.3672 91.8867C52.2891 90.9883 51.75 89.8008 51.75 88.3242H55.1367C55.1367 88.9648 55.375 89.4883 55.8516 89.8945C56.3359 90.3008 56.9297 90.5039 57.6328 90.5039C58.4375 90.5039 59.0664 90.293 59.5195 89.8711C59.9805 89.4414 60.2109 88.875 60.2109 88.1719C60.2109 86.4688 59.2734 85.6172 57.3984 85.6172H55.6055V82.9688ZM69.3867 82.9688H71.1914C72.0508 82.9688 72.6875 82.7539 73.1016 82.3242C73.5156 81.8945 73.7227 81.3242 73.7227 80.6133C73.7227 79.9258 73.5156 79.3906 73.1016 79.0078C72.6953 78.625 72.1328 78.4336 71.4141 78.4336C70.7656 78.4336 70.2227 78.6133 69.7852 78.9727C69.3477 79.3242 69.1289 79.7852 69.1289 80.3555H65.7422C65.7422 79.4648 65.9805 78.668 66.457 77.9648C66.9414 77.2539 67.6133 76.6992 68.4727 76.3008C69.3398 75.9023 70.293 75.7031 71.332 75.7031C73.1367 75.7031 74.5508 76.1367 75.5742 77.0039C76.5977 77.8633 77.1094 79.0508 77.1094 80.5664C77.1094 81.3477 76.8711 82.0664 76.3945 82.7227C75.918 83.3789 75.293 83.8828 74.5195 84.2344C75.4805 84.5781 76.1953 85.0938 76.6641 85.7812C77.1406 86.4688 77.3789 87.2812 77.3789 88.2188C77.3789 89.7344 76.8242 90.9492 75.7148 91.8633C74.6133 92.7773 73.1523 93.2344 71.332 93.2344C69.6289 93.2344 68.2344 92.7852 67.1484 91.8867C66.0703 90.9883 65.5312 89.8008 65.5312 88.3242H68.918C68.918 88.9648 69.1562 89.4883 69.6328 89.8945C70.1172 90.3008 70.7109 90.5039 71.4141 90.5039C72.2188 90.5039 72.8477 90.293 73.3008 89.8711C73.7617 89.4414 73.9922 88.875 73.9922 88.1719C73.9922 86.4688 73.0547 85.6172 71.1797 85.6172H69.3867V82.9688ZM86.4492 87.0586H79.8516V84.3281H86.4492V87.0586ZM100.629 77.8359L94.0312 93H90.457L97.0664 78.6797H88.582V75.9375H100.629V77.8359ZM114.293 85.9453C114.293 88.3047 113.805 90.1094 112.828 91.3594C111.852 92.6094 110.422 93.2344 108.539 93.2344C106.68 93.2344 105.258 92.6211 104.273 91.3945C103.289 90.168 102.785 88.4102 102.762 86.1211V82.9805C102.762 80.5977 103.254 78.7891 104.238 77.5547C105.23 76.3203 106.656 75.7031 108.516 75.7031C110.375 75.7031 111.797 76.3164 112.781 77.543C113.766 78.7617 114.27 80.5156 114.293 82.8047V85.9453ZM110.906 82.5C110.906 81.0859 110.711 80.0586 110.32 79.418C109.938 78.7695 109.336 78.4453 108.516 78.4453C107.719 78.4453 107.129 78.7539 106.746 79.3711C106.371 79.9805 106.172 80.9375 106.148 82.2422V86.3906C106.148 87.7812 106.336 88.8164 106.711 89.4961C107.094 90.168 107.703 90.5039 108.539 90.5039C109.367 90.5039 109.965 90.1797 110.332 89.5312C110.699 88.8828 110.891 87.8906 110.906 86.5547V82.5ZM116.543 79.2188C116.543 78.1719 116.883 77.3242 117.562 76.6758C118.242 76.0195 119.133 75.6914 120.234 75.6914C121.352 75.6914 122.25 76.0156 122.93 76.6641C123.609 77.3047 123.949 78.1758 123.949 79.2773V80.1211C123.949 81.1758 123.609 82.0234 122.93 82.6641C122.25 83.3047 121.359 83.625 120.258 83.625C119.148 83.625 118.25 83.3047 117.562 82.6641C116.883 82.0156 116.543 81.1445 116.543 80.0508V79.2188ZM118.793 80.1211C118.793 80.5898 118.926 80.9688 119.191 81.2578C119.465 81.5391 119.82 81.6797 120.258 81.6797C120.695 81.6797 121.043 81.5352 121.301 81.2461C121.559 80.957 121.688 80.5703 121.688 80.0859V79.2188C121.688 78.75 121.559 78.3711 121.301 78.082C121.043 77.793 120.688 77.6484 120.234 77.6484C119.805 77.6484 119.457 77.793 119.191 78.082C118.926 78.3633 118.793 78.7578 118.793 79.2656V80.1211ZM124.699 88.8164C124.699 87.7617 125.043 86.9141 125.73 86.2734C126.418 85.625 127.309 85.3008 128.402 85.3008C129.512 85.3008 130.406 85.6211 131.086 86.2617C131.773 86.8945 132.117 87.7695 132.117 88.8867V89.7305C132.117 90.7773 131.781 91.625 131.109 92.2734C130.438 92.9141 129.543 93.2344 128.426 93.2344C127.301 93.2344 126.398 92.9102 125.719 92.2617C125.039 91.6133 124.699 90.7539 124.699 89.6836V88.8164ZM126.949 89.7305C126.949 90.1602 127.09 90.5273 127.371 90.832C127.652 91.1367 128.004 91.2891 128.426 91.2891C129.379 91.2891 129.855 90.7617 129.855 89.707V88.8164C129.855 88.3477 129.723 87.9727 129.457 87.6914C129.191 87.4023 128.84 87.2578 128.402 87.2578C127.965 87.2578 127.613 87.4023 127.348 87.6914C127.082 87.9727 126.949 88.3594 126.949 88.8516V89.7305ZM120.926 91.7227L119.273 90.832L127.605 77.4961L129.258 78.3867L120.926 91.7227Z" fill="#FFF27C"/>
</g>
<defs>
<filter id="filter0_d" x="0" y="6.52173" width="180" height="181.478" filterUnits="userSpaceOnUse" color-interpolation-filters="sRGB">
<feFlood flood-opacity="0" result="BackgroundImageFix"/>
<feColorMatrix in="SourceAlpha" type="matrix" values="0 0 0 0 0 0 0 0 0 0 0 0 0 0 0 0 0 0 127 0"/>
<feOffset dy="4"/>
<feGaussianBlur stdDeviation="2"/>
<feColorMatrix type="matrix" values="0 0 0 0 0 0 0 0 0 0 0 0 0 0 0 0 0 0 0.25 0"/>
<feBlend mode="normal" in2="BackgroundImageFix" result="effect1_dropShadow"/>
<feBlend mode="normal" in="SourceGraphic" in2="effect1_dropShadow" result="shape"/>
</filter>
<filter id="filter1_d" x="82" y="6" width="99.119" height="126.154" filterUnits="userSpaceOnUse" color-interpolation-filters="sRGB">
<feFlood flood-opacity="0" result="BackgroundImageFix"/>
<feColorMatrix in="SourceAlpha" type="matrix" values="0 0 0 0 0 0 0 0 0 0 0 0 0 0 0 0 0 0 127 0"/>
<feOffset dy="4"/>
<feGaussianBlur stdDeviation="2"/>
<feColorMatrix type="matrix" values="0 0 0 0 0 0 0 0 0 0 0 0 0 0 0 0 0 0 0.25 0"/>
<feBlend mode="normal" in2="BackgroundImageFix" result="effect1_dropShadow"/>
<feBlend mode="normal" in="SourceGraphic" in2="effect1_dropShadow" result="shape"/>
</filter>
<filter id="filter2_d" x="20.8145" y="107.596" width="138.378" height="55.5503" filterUnits="userSpaceOnUse" color-interpolation-filters="sRGB">
<feFlood flood-opacity="0" result="BackgroundImageFix"/>
<feColorMatrix in="SourceAlpha" type="matrix" values="0 0 0 0 0 0 0 0 0 0 0 0 0 0 0 0 0 0 127 0"/>
<feOffset dy="4"/>
<feGaussianBlur stdDeviation="2"/>
<feColorMatrix type="matrix" values="0 0 0 0 0 0 0 0 0 0 0 0 0 0 0 0 0 0 0.25 0"/>
<feBlend mode="normal" in2="BackgroundImageFix" result="effect1_dropShadow"/>
<feBlend mode="normal" in="SourceGraphic" in2="effect1_dropShadow" result="shape"/>
</filter>
<filter id="filter3_d" x="66.9326" y="48.3359" width="41.4863" height="21.7109" filterUnits="userSpaceOnUse" color-interpolation-filters="sRGB">
<feFlood flood-opacity="0" result="BackgroundImageFix"/>
<feColorMatrix in="SourceAlpha" type="matrix" values="0 0 0 0 0 0 0 0 0 0 0 0 0 0 0 0 0 0 127 0"/>
<feOffset dy="4"/>
<feGaussianBlur stdDeviation="2"/>
<feColorMatrix type="matrix" values="0 0 0 0 0 0 0 0 0 0 0 0 0 0 0 0 0 0 0.25 0"/>
<feBlend mode="normal" in2="BackgroundImageFix" result="effect1_dropShadow"/>
<feBlend mode="normal" in="SourceGraphic" in2="effect1_dropShadow" result="shape"/>
</filter>
<filter id="filter4_d" x="47.75" y="75.6914" width="88.3672" height="25.543" filterUnits="userSpaceOnUse" color-interpolation-filters="sRGB">
<feFlood flood-opacity="0" result="BackgroundImageFix"/>
<feColorMatrix in="SourceAlpha" type="matrix" values="0 0 0 0 0 0 0 0 0 0 0 0 0 0 0 0 0 0 127 0"/>
<feOffset dy="4"/>
<feGaussianBlur stdDeviation="2"/>
<feColorMatrix type="matrix" values="0 0 0 0 0 0 0 0 0 0 0 0 0 0 0 0 0 0 0.25 0"/>
<feBlend mode="normal" in2="BackgroundImageFix" result="effect1_dropShadow"/>
<feBlend mode="normal" in="SourceGraphic" in2="effect1_dropShadow" result="shape"/>
</filter>
</defs>
</svg>
