<svg width="59" height="59" viewBox="0 0 59 59" fill="none" xmlns="http://www.w3.org/2000/svg">
<path d="M21.1071 16.3278C19.1048 15.3285 17.1246 14.827 17.0435 14.8049C16.8065 14.7399 16.559 14.723 16.3154 14.755C16.0717 14.7871 15.837 14.8675 15.6249 14.9916C15.4128 15.1157 15.2277 15.2809 15.0803 15.4775C14.933 15.6742 14.8265 15.8983 14.767 16.1367C14.7075 16.3751 14.6963 16.623 14.734 16.8658C14.7717 17.1086 14.8575 17.3415 14.9865 17.5506C15.1154 17.7598 15.2849 17.941 15.4849 18.0838C15.6849 18.2265 15.9114 18.3278 16.1511 18.3818C17.1652 18.6399 18.371 19.0787 19.433 19.6134C18.9407 20.1379 18.6129 20.7951 18.4902 21.5038C18.3674 22.2126 18.455 22.9418 18.7422 23.6013C19.0294 24.2608 19.5035 24.8216 20.106 25.2146C20.7085 25.6075 21.413 25.8152 22.1323 25.8121C23.1102 25.8121 24.0482 25.4236 24.7397 24.732C25.4313 24.0405 25.8198 23.1026 25.8198 22.1246L25.8124 21.9255C25.6944 19.193 23.209 17.3751 21.1108 16.3278H21.1071Z" fill="#26325B"/>
<path d="M29.5 0C21.6761 0 14.1727 3.10803 8.64035 8.64035C3.10803 14.1727 0 21.6761 0 29.5C0 37.3239 3.10803 44.8273 8.64035 50.3596C14.1727 55.892 21.6761 59 29.5 59C37.3239 59 44.8273 55.892 50.3596 50.3596C55.892 44.8273 59 37.3239 59 29.5C59 21.6761 55.892 14.1727 50.3596 8.64035C44.8273 3.10803 37.3239 0 29.5 0V0ZM13.6253 47.4581C14.2411 47.7642 14.9381 47.9375 15.6719 47.9375H43.3281C44.0619 47.9375 44.7552 47.7642 45.3747 47.4581C41.1451 51.1973 35.5881 53.4688 29.5 53.4688C23.4119 53.4688 17.8549 51.1973 13.6253 47.4581ZM14.75 43.3281V37.7969C14.75 37.2954 15.1704 36.875 15.6719 36.875H22.125V44.25H15.6719C15.4283 44.2471 15.1955 44.1491 15.0232 43.9768C14.8509 43.8045 14.7529 43.5717 14.75 43.3281ZM25.8125 44.25V36.875H33.1875V44.25H25.8125ZM36.875 44.25V36.875H43.3281C43.8296 36.875 44.25 37.2954 44.25 37.7969V43.3281C44.25 43.8296 43.8296 44.25 43.3281 44.25H36.875ZM47.4581 45.3747C47.7642 44.7589 47.9375 44.0619 47.9375 43.3281V37.7969C47.9375 35.2562 45.8688 33.1875 43.3281 33.1875H15.6719C13.1312 33.1875 11.0625 35.2562 11.0625 37.7969V43.3281C11.0625 44.0619 11.2358 44.7552 11.5419 45.3747C8.48526 41.9169 6.49188 37.6502 5.80119 33.0871C5.1105 28.524 5.75187 23.8585 7.64825 19.651C9.54463 15.4435 12.6154 11.873 16.4917 9.3683C20.3679 6.86359 24.8849 5.53122 29.5 5.53122C34.1151 5.53122 38.6321 6.86359 42.5083 9.3683C46.3846 11.873 49.4554 15.4435 51.3517 19.651C53.2481 23.8585 53.8895 28.524 53.1988 33.0871C52.5081 37.6502 50.5147 41.9169 47.4581 45.3747Z" fill="#26325B"/>
<path d="M41.9601 14.8049C41.8752 14.827 39.8988 15.3248 37.8964 16.3278C35.8019 17.3751 33.3129 19.1893 33.1949 21.9255L33.1875 22.1246C33.1873 22.7255 33.334 23.3173 33.6147 23.8485C33.8954 24.3798 34.3017 24.8344 34.7982 25.1728C35.2948 25.5112 35.8664 25.7231 36.4636 25.7902C37.0607 25.8572 37.6651 25.7773 38.2243 25.5575C38.7835 25.3376 39.2805 24.9844 39.6721 24.5286C40.0636 24.0729 40.3379 23.5283 40.4709 22.9424C40.604 22.3564 40.5919 21.7468 40.4356 21.1666C40.2793 20.5865 39.9836 20.0532 39.5743 19.6134C40.6363 19.0824 41.8384 18.6399 42.8561 18.3818C43.0958 18.3278 43.3224 18.2265 43.5224 18.0838C43.7224 17.941 43.8918 17.7598 44.0208 17.5506C44.1498 17.3415 44.2356 17.1086 44.2733 16.8658C44.311 16.623 44.2997 16.3751 44.2403 16.1367C44.1808 15.8983 44.0743 15.6742 43.9269 15.4775C43.7796 15.2809 43.5945 15.1157 43.3824 14.9916C43.1703 14.8675 42.9355 14.7871 42.6919 14.755C42.4483 14.723 42.2007 14.7399 41.9637 14.8049H41.9601Z" fill="#26325B"/>
</svg>
