<svg width="86" height="86" viewBox="0 0 86 86" fill="none" xmlns="http://www.w3.org/2000/svg">
<g filter="url(#filter0_i)">
<path d="M50.7939 0.0810138C56.3089 0.447312 61.4861 2.12259 65.1857 4.50353C73.6666 9.97107 77.3239 15.9827 79.4349 19.748C81.4878 23.4002 85.5357 31.5073 84.9551 40.3469C84.8057 42.7283 84.4989 45.0967 84.0368 47.4359L83.8258 48.5886C83.5302 50.3339 83.3455 52.1223 83.6569 56.0116C84.0263 60.5957 83.1186 65.6161 81.2187 70.0709C79.3188 74.515 76.337 78.6197 72.363 81.1515C64.1038 86.4197 54.1557 87.5617 44.8251 83.7533C40.5556 82.0134 39.1149 81.5986 37.4999 81.5016C36.3637 81.4567 35.2259 81.4675 34.0907 81.5339H34.0537C32.5233 81.5986 30.56 81.674 27.8316 81.674C15.8358 81.674 7.85627 74.348 3.78205 66.3541C-2.18679 54.6325 -2.02319 36.8886 11.1019 26.3144C15.1128 23.0824 16.3108 22.0051 17.6619 19.7049C19.8837 15.9234 21.9947 12.9607 24.549 10.4074C27.1086 7.84331 30.0165 5.78019 33.7529 3.68474C39.1835 0.635849 45.2579 -0.290671 50.7939 0.0756274V0.0810138ZM50.4509 5.45698C45.7012 5.13378 40.6664 5.95256 36.2914 8.40892C32.8399 10.3481 30.3595 12.1365 28.2432 14.2535C26.1269 16.3759 24.2798 18.9184 22.1899 22.4737C20.2795 25.7219 18.3479 27.3379 14.374 30.5377C3.76622 39.0864 3.31235 53.7545 8.46319 63.8708C11.8672 70.5504 18.2688 76.2873 27.8316 76.2873C30.4598 76.2873 32.3491 76.2118 33.8638 76.1526H33.964C35.4206 76.0987 36.6555 76.0448 37.8324 76.1256C40.3815 76.2872 42.5294 77.0145 46.783 78.7544C54.4935 81.9002 62.6788 80.9791 69.566 76.5835C72.4053 74.7736 74.7907 71.6547 76.3792 67.9163C77.973 64.1886 78.6908 60.0624 78.4005 56.4533C78.0522 52.1493 78.2422 49.903 78.6274 47.6621L78.8649 46.3639C79.1657 44.7317 79.4877 42.9972 79.6882 39.986C80.1632 32.8378 76.8225 25.9266 74.8593 22.4252C72.9541 19.0423 69.8246 13.8603 62.3675 9.06071C59.5176 7.22383 55.2217 5.7748 50.4509 5.4516V5.45698Z" fill="#26325B"/>
<path d="M44.4832 69.1953C50.7752 69.1953 56.8095 66.6438 61.2587 62.1019C65.7078 57.5601 68.2073 51.4001 68.2073 44.9769C68.2073 38.5538 65.7078 32.3938 61.2587 27.8519C56.8095 23.3101 50.7752 20.7585 44.4832 20.7585C38.1911 20.7585 32.1568 23.3101 27.7077 27.8519C23.2585 32.3938 20.759 38.5538 20.759 44.9769C20.759 51.4001 23.2585 57.5601 27.7077 62.1019C32.1568 66.6438 38.1911 69.1953 44.4832 69.1953ZM44.4832 63.8075C42.0608 63.8075 39.6621 63.3204 37.4241 62.3741C35.1861 61.4278 33.1526 60.0407 31.4397 58.2921C29.7268 56.5436 28.3681 54.4677 27.4411 52.1831C26.5141 49.8984 26.0369 47.4498 26.0369 44.9769C26.0369 42.5041 26.5141 40.0554 27.4411 37.7708C28.3681 35.4862 29.7268 33.4103 31.4397 31.6617C33.1526 29.9132 35.1861 28.5261 37.4241 27.5798C39.6621 26.6335 42.0608 26.1464 44.4832 26.1464C49.3754 26.1464 54.0673 28.1303 57.5266 31.6617C60.986 35.1931 62.9294 39.9828 62.9294 44.9769C62.9294 49.9711 60.986 54.7607 57.5266 58.2921C54.0673 61.8235 49.3754 63.8075 44.4832 63.8075Z" fill="#26325B"/>
</g>
<defs>
<filter id="filter0_i" x="0" y="0" width="85.0115" height="90" filterUnits="userSpaceOnUse" color-interpolation-filters="sRGB">
<feFlood flood-opacity="0" result="BackgroundImageFix"/>
<feBlend mode="normal" in="SourceGraphic" in2="BackgroundImageFix" result="shape"/>
<feColorMatrix in="SourceAlpha" type="matrix" values="0 0 0 0 0 0 0 0 0 0 0 0 0 0 0 0 0 0 127 0" result="hardAlpha"/>
<feOffset dy="4"/>
<feGaussianBlur stdDeviation="2"/>
<feComposite in2="hardAlpha" operator="arithmetic" k2="-1" k3="1"/>
<feColorMatrix type="matrix" values="0 0 0 0 0 0 0 0 0 0 0 0 0 0 0 0 0 0 0.25 0"/>
<feBlend mode="normal" in2="shape" result="effect1_innerShadow"/>
</filter>
</defs>
</svg>
