<svg width="146" height="222" viewBox="0 0 146 222" fill="none" xmlns="http://www.w3.org/2000/svg">
<rect width="146" height="222" rx="15" fill="#F8E8AE"/>
<g filter="url(#filter0_i)">
<path d="M80.7939 68.081C86.3089 68.4473 91.4861 70.1226 95.1857 72.5035C103.667 77.9711 107.324 83.9827 109.435 87.748C111.488 91.4002 115.536 99.5073 114.955 108.347C114.806 110.728 114.499 113.097 114.037 115.436L113.826 116.589C113.53 118.334 113.346 120.122 113.657 124.012C114.026 128.596 113.119 133.616 111.219 138.071C109.319 142.515 106.337 146.62 102.363 149.151C94.1038 154.42 84.1557 155.562 74.8251 151.753C70.5556 150.013 69.1149 149.599 67.4999 149.502C66.3637 149.457 65.2259 149.467 64.0907 149.534H64.0537C62.5233 149.599 60.56 149.674 57.8316 149.674C45.8358 149.674 37.8563 142.348 33.7821 134.354C27.8132 122.633 27.9768 104.889 41.1019 94.3144C45.1128 91.0824 46.3108 90.0051 47.6619 87.7049C49.8837 83.9234 51.9947 80.9607 54.549 78.4074C57.1086 75.8433 60.0165 73.7802 63.7529 71.6847C69.1835 68.6358 75.2579 67.7093 80.7939 68.0756V68.081ZM80.4509 73.457C75.7012 73.1338 70.6664 73.9526 66.2914 76.4089C62.8399 78.3481 60.3595 80.1365 58.2432 82.2535C56.1269 84.3759 54.2798 86.9184 52.1899 90.4737C50.2795 93.7219 48.3479 95.3379 44.374 98.5377C33.7662 107.086 33.3124 121.755 38.4632 131.871C41.8672 138.55 48.2688 144.287 57.8316 144.287C60.4598 144.287 62.3491 144.212 63.8637 144.153H63.964C65.4206 144.099 66.6555 144.045 67.8324 144.126C70.3814 144.287 72.5294 145.014 76.783 146.754C84.4935 149.9 92.6788 148.979 99.566 144.584C102.405 142.774 104.791 139.655 106.379 135.916C107.973 132.189 108.691 128.062 108.4 124.453C108.052 120.149 108.242 117.903 108.627 115.662L108.865 114.364C109.166 112.732 109.488 110.997 109.688 107.986C110.163 100.838 106.823 93.9266 104.859 90.4252C102.954 87.0423 99.8246 81.8603 92.3675 77.0607C89.5176 75.2238 85.2217 73.7748 80.4509 73.4516V73.457Z" fill="#26325B"/>
<path d="M74.4832 137.196C80.7752 137.196 86.8095 134.644 91.2587 130.102C95.7078 125.56 98.2073 119.4 98.2073 112.977C98.2073 106.554 95.7078 100.394 91.2587 95.8522C86.8095 91.3104 80.7752 88.7588 74.4832 88.7588C68.1911 88.7588 62.1568 91.3104 57.7077 95.8522C53.2585 100.394 50.759 106.554 50.759 112.977C50.759 119.4 53.2585 125.56 57.7077 130.102C62.1568 134.644 68.1911 137.196 74.4832 137.196V137.196ZM74.4832 131.808C72.0608 131.808 69.6621 131.321 67.4241 130.374C65.1861 129.428 63.1526 128.041 61.4397 126.292C59.7268 124.544 58.3681 122.468 57.4411 120.183C56.5141 117.899 56.0369 115.45 56.0369 112.977C56.0369 110.504 56.5141 108.056 57.4411 105.771C58.3681 103.486 59.7268 101.411 61.4397 99.662C63.1526 97.9134 65.1861 96.5264 67.4241 95.58C69.6621 94.6337 72.0608 94.1466 74.4832 94.1466C79.3754 94.1466 84.0673 96.1306 87.5266 99.662C90.986 103.193 92.9294 107.983 92.9294 112.977C92.9294 117.971 90.986 122.761 87.5266 126.292C84.0673 129.824 79.3754 131.808 74.4832 131.808Z" fill="#26325B"/>
</g>
<defs>
<filter id="filter0_i" x="30" y="68" width="85.0115" height="90" filterUnits="userSpaceOnUse" color-interpolation-filters="sRGB">
<feFlood flood-opacity="0" result="BackgroundImageFix"/>
<feBlend mode="normal" in="SourceGraphic" in2="BackgroundImageFix" result="shape"/>
<feColorMatrix in="SourceAlpha" type="matrix" values="0 0 0 0 0 0 0 0 0 0 0 0 0 0 0 0 0 0 127 0" result="hardAlpha"/>
<feOffset dy="4"/>
<feGaussianBlur stdDeviation="2"/>
<feComposite in2="hardAlpha" operator="arithmetic" k2="-1" k3="1"/>
<feColorMatrix type="matrix" values="0 0 0 0 0 0 0 0 0 0 0 0 0 0 0 0 0 0 0.25 0"/>
<feBlend mode="normal" in2="shape" result="effect1_innerShadow"/>
</filter>
</defs>
</svg>
