<svg width="82" height="82" viewBox="0 0 82 82" fill="none" xmlns="http://www.w3.org/2000/svg">
<path d="M55.372 17.8621C51.8954 21.2624 53.9814 25.6649 59.9863 27.6335C65.9913 29.602 73.7661 28.4209 77.2426 25.0206C80.7192 21.6203 78.6333 17.2178 72.6283 15.2492C66.6234 13.2807 58.8485 14.4618 55.372 17.8621Z" fill="#26325B"/>
<path d="M65.296 33.6443L48.8613 28.2754C33.8174 23.3361 28.6341 12.3836 37.3571 3.86494L26.4218 0.285688C16.3714 10.0928 19.5319 22.1907 32.5532 30.0293L0 61.9562L10.9353 65.5354L20.4168 56.2294L31.3522 59.8086L12.3892 78.4207L23.3245 82L63.0836 43.0219C66.7252 45.8201 68.8496 49.158 69.1976 52.6282C69.5455 56.0985 68.102 59.5511 65.0431 62.5647L75.9784 66.1439C86.0921 56.301 84.0693 42.5924 65.296 33.6443V33.6443ZM45.7641 9.98546C50.3152 11.453 56.0673 10.5939 58.7221 8.01687C61.3137 5.43981 59.7967 2.18269 55.2456 0.679406C53.0688 -0.00739282 50.5024 -0.181735 48.1005 0.194044C45.6987 0.569822 43.6544 1.46555 42.4091 2.68773C41.1639 3.90991 40.8178 5.36042 41.4455 6.7259C42.0733 8.09138 43.6245 9.26221 45.7641 9.98546V9.98546Z" fill="#26325B"/>
</svg>
