<svg width="58" height="58" viewBox="0 0 58 58" fill="none" xmlns="http://www.w3.org/2000/svg">
<path d="M39.1655 12.6343C36.7065 15.0393 38.1819 18.1533 42.4293 19.5457C46.6767 20.9381 52.176 20.1027 54.635 17.6976C57.094 15.2925 55.6186 12.1786 51.3712 10.7861C47.1238 9.39372 41.6245 10.2292 39.1655 12.6343Z" fill="#26325B"/>
<path d="M46.1849 23.7972L34.5605 19.9997C23.9196 16.506 20.2534 8.7591 26.4233 2.73374L18.6886 0.202072C11.5798 7.13884 13.8152 15.6959 23.0254 21.2402L0 43.8227L7.73475 46.3543L14.4412 39.772L22.1759 42.3037L8.76306 55.4683L16.4978 58L44.6201 30.4302C47.1959 32.4093 48.6985 34.7703 48.9446 37.2249C49.1907 39.6794 48.1697 42.1215 46.0061 44.2531L53.7409 46.7847C60.8944 39.8226 59.4637 30.1264 46.1849 23.7972V23.7972ZM32.3697 7.06289C35.5888 8.10087 39.6573 7.49327 41.5351 5.67047C43.3682 3.84767 42.2952 1.54385 39.0761 0.480555C37.5365 -0.00522907 35.7212 -0.128544 34.0223 0.13725C32.3235 0.403045 30.8775 1.03661 29.9967 1.90108C29.1159 2.76554 28.8711 3.79151 29.3151 4.75734C29.7591 5.72317 30.8563 6.55132 32.3697 7.06289V7.06289Z" fill="#26325B"/>
</svg>
