<svg width="50" height="62" viewBox="0 0 82 62" fill="none" xmlns="http://www.w3.org/2000/svg">
<path d="M71.7295 21.3628L71.75 22.144V26.5707L77.7309 26.6504C78.7745 26.6467 79.7831 27.041 80.5646 27.7583C81.3461 28.4756 81.846 29.4657 81.9692 30.5403L82 31.0771V39.9357C82.0007 41.0072 81.6266 42.0425 80.9471 42.8497C80.2676 43.6569 79.3288 44.1811 78.3049 44.3252L77.7309 44.3624H71.75V48.7147C71.7491 52.1023 70.5002 55.3616 68.2587 57.8262C66.0171 60.2907 62.9523 61.7742 59.6909 61.9734L58.9375 62H25.625C24.0824 61.9734 23.0523 60.9265 23.0523 59.3164C23.0523 57.7062 24.0773 56.6859 25.625 56.6859H60.2495C61.8419 56.6856 63.3771 56.0703 64.5557 54.9602C65.7344 53.85 66.4721 52.3244 66.625 50.6809L66.6557 50.0432V20.7836C66.6555 19.1324 66.0621 17.5406 64.9915 16.3184C63.9208 15.0962 62.4495 14.3313 60.8645 14.1728L60.2495 14.1409H38.622C36.9 14.1409 35.875 13.4076 35.875 11.5051C35.875 9.60264 37.0179 8.85866 38.6169 8.85866H58.9375C62.2055 8.85822 65.3501 10.1526 67.728 12.477C70.1059 14.8014 71.5373 17.9801 71.7295 21.3628V21.3628ZM21.9862 0.031885L22.4219 0C24.0414 0 25.3841 1.24882 25.5942 2.86963L25.625 3.32133V8.85866L27.5469 8.88523C29.315 8.88523 30.75 10.3732 30.75 12.2066V22.3672C30.75 26.6451 27.4034 30.1152 23.2777 30.1152H7.47225C5.49049 30.1152 3.58989 29.2989 2.18857 27.8459C0.787253 26.3928 0 24.4221 0 22.3672V12.2066C0 10.3732 1.435 8.88523 3.20312 8.88523H5.125V3.35322C5.125 1.66864 6.32937 0.28165 7.8925 0.0584563L8.32812 0.031885C9.94763 0.031885 11.2904 1.28071 11.5056 2.90152L11.5312 3.35322V8.88523L19.2188 8.85866V3.32133C19.2188 1.64207 20.4282 0.249765 21.9862 0.0265713V0.031885ZM17.9375 30.1099V59.3376C17.9375 60.0423 17.6675 60.7182 17.187 61.2165C16.7064 61.7147 16.0546 61.9947 15.375 61.9947C14.6954 61.9947 14.0436 61.7147 13.563 61.2165C13.0825 60.7182 12.8125 60.0423 12.8125 59.3376V30.1099H17.9375ZM25.625 14.1728V22.144C25.6264 22.7668 25.4168 23.3703 25.0327 23.8492C24.6487 24.328 24.1146 24.6518 23.5238 24.7639L23.0625 24.8011H7.6875C7.08774 24.8013 6.50692 24.5833 6.04617 24.1852C5.58543 23.7871 5.27396 23.234 5.166 22.6223L5.125 22.144V14.1728H25.625Z" fill="#26325B"/>
</svg>
