<svg width="50" height="48" viewBox="0 0 82 82" fill="none" xmlns="http://www.w3.org/2000/svg">
<path d="M81.2567 30.5176H57.4721C57.0633 30.5176 56.7288 30.8951 56.7288 31.3564V36.3891C56.7288 36.8504 57.0633 37.2279 57.4721 37.2279H81.2567C81.6655 37.2279 81.9999 36.8504 81.9999 36.3891V31.3564C81.9999 30.8951 81.6655 30.5176 81.2567 30.5176ZM68.8069 44.7769H57.4721C57.0633 44.7769 56.7288 45.1543 56.7288 45.6157V50.6483C56.7288 51.1097 57.0633 51.4871 57.4721 51.4871H68.8069C69.2157 51.4871 69.5502 51.1097 69.5502 50.6483V45.6157C69.5502 45.1543 69.2157 44.7769 68.8069 44.7769ZM37.8034 21.1338H33.7804C33.2044 21.1338 32.7399 21.658 32.7399 22.3081V48.3102C32.7399 48.6877 32.8978 49.0337 33.1672 49.2539L47.0013 60.6403C47.4659 61.0177 48.1162 60.9129 48.4507 60.3887L50.8384 56.7085V56.698C51.1729 56.1738 51.0707 55.4398 50.6062 55.0624L38.8347 45.4584V22.3081C38.844 21.658 38.3701 21.1338 37.8034 21.1338V21.1338Z" fill="#26325B"/>
<path d="M68.2267 57.9746H62.8453C62.3239 57.9746 61.8305 58.2787 61.5512 58.7821C60.3687 60.8899 58.9908 62.8405 57.408 64.6233C54.6801 67.6959 51.5052 70.1079 47.9766 71.7858C44.3176 73.5266 40.4352 74.4075 36.4317 74.4075C32.4189 74.4075 28.5365 73.5266 24.8868 71.7858C21.3581 70.1079 18.1833 67.6959 15.4553 64.6233C12.7274 61.5506 10.586 57.9746 9.09633 54.0001C7.5508 49.8892 6.76873 45.5162 6.76873 40.9964C6.76873 36.4765 7.5508 32.114 9.09633 27.9926C10.586 24.0181 12.7274 20.4421 15.4553 17.3695C18.1833 14.2968 21.3581 11.8848 24.8868 10.2069C28.5365 8.4661 32.4282 7.5852 36.4317 7.5852C40.4445 7.5852 44.3269 8.4661 47.9766 10.2069C51.5052 11.8848 54.6801 14.2968 57.408 17.3695C58.9908 19.1522 60.3687 21.1028 61.5512 23.2106C61.8305 23.714 62.3239 24.0181 62.8453 24.0181H68.2267C68.8691 24.0181 69.2788 23.2631 68.9902 22.6234C62.9198 9.0219 50.6114 0.181475 36.8693 0.00319877C16.7495 -0.279947 0.0373052 18.2713 6.36069e-05 40.9125C-0.037178 63.5956 16.284 82 36.4224 82C50.3414 82 62.8546 73.1281 68.9902 59.3693C69.2788 58.7296 68.8598 57.9746 68.2267 57.9746V57.9746Z" fill="#26325B"/>
</svg>
