<svg width="82" height="82" viewBox="0 0 82 82" fill="none" xmlns="http://www.w3.org/2000/svg">
<path d="M72.0419 69.9976C72.0163 70.0075 71.6234 70.0259 70.5113 70.7936L70.1047 70.87C69.1856 71.0453 67.8548 70.402 66.4677 69.7134C64.9797 68.9768 63.4422 68.2472 61.8483 68.2133C61.054 68.1963 60.7482 68.079 60.6354 67.8089C59.3303 64.7239 59.0569 62.5324 59.0535 62.5098L59.0467 62.4348L59.8855 62.2821L55.0594 52.7371L53.5954 36.4862L62.7708 34.8659L69.6007 38.6141C69.5666 39.3394 69.9441 40.0477 70.6326 40.5058L71.7396 41.2453C72.4075 41.6906 73.3146 41.8447 74.1244 41.6496C75.1904 42.2123 76.1795 42.4866 77.1362 42.4866H77.1379C78.5558 42.4866 79.8165 41.8829 80.8877 40.6953C82.6233 38.7809 82.3124 36.7393 80.0625 35.2406C77.7324 33.6797 76.5605 32.8978 75.4005 32.8978C74.8094 32.8978 74.3328 33.1085 73.945 33.3658L65.4222 28.6845C64.6568 28.2674 63.1535 28.1401 62.2498 28.3579L54.4598 29.8085L55.1363 25.3987C60.7943 21.0411 63.9 15.0308 61.9508 9.1067C61.1804 6.7611 55.5685 1.0703 43.3796 3.06809C38.8081 3.81743 36.2559 7.00287 36.5394 9.0657C34.6176 11.1596 34.1187 13.5985 33.8625 14.9276L33.8215 15.1397C33.6541 15.3235 33.145 15.7307 31.6126 16.5988C29.976 17.5305 30.1093 18.6899 30.2425 19.1466C30.562 20.231 31.8193 21.0001 32.9827 21.379C32.911 21.7481 32.887 22.2712 33.3175 22.7675C33.3978 22.8608 33.4867 22.9428 33.5789 23.0135C33.441 23.243 33.3597 23.4929 33.3397 23.7487C33.3056 24.2379 33.4867 24.8713 34.3442 25.4368C34.1905 26.1918 34.1871 27.142 34.8431 27.9903C35.5281 28.8754 36.7359 29.414 38.4357 29.5922C39.705 29.7251 41.3279 29.6459 43.272 29.3914C43.3984 30.1181 43.3386 30.7388 43.2139 31.245C42.7031 31.6013 40.8786 32.9515 40.1321 34.5068L29.2534 30.7318L25.7326 23.4546C27.441 22.1792 28.8063 20.6208 29.7398 18.8804C30.6733 17.1401 31.1543 15.2567 31.1514 13.3525C31.1514 5.98913 24.1643 0 15.5765 0C6.98877 0 0 5.98772 0 13.3511C0 20.7145 6.98536 26.7051 15.5731 26.7051C16.5503 26.7051 17.507 26.6174 18.4363 26.4675L22.5089 34.8857C22.8865 35.652 24.6649 36.728 25.0629 36.8114L36.8179 40.9568C34.2383 47.2075 33.2817 52.8644 33.2817 52.8644L31.1258 62.9156L31.7595 62.9919L31.7425 63.1517C31.7203 63.3977 31.2197 69.2157 35.3522 74.0427C36.2132 75.0493 38.3759 75.407 39.9664 75.407C40.5335 75.407 41.3211 75.359 41.8353 75.1356C46.3692 73.1364 50.4179 72.7264 50.4589 72.7221L50.7254 72.6953C53.0932 75.7167 56.8959 76.6922 58.9749 76.0334L58.3873 74.7171C63.1689 75.1766 71.2988 77.6494 71.3808 77.6777L72.0864 77.8926C74.7667 81.4301 79.0939 82.622 81.3079 81.7016L74.941 70.8572C74.4029 69.9382 73.1062 69.5522 72.0419 69.9976V69.9976ZM62.6256 29.6586C63.3004 29.5031 64.2605 29.6516 64.5526 29.8099L74.1432 35.0766L74.601 34.6764C75.0383 34.2919 75.2485 34.2396 75.3988 34.2396C76.0053 34.2396 77.2233 35.0554 79.0717 36.2911C80.6434 37.3387 80.8296 38.5476 79.6184 39.8823C78.8548 40.7348 78.0399 41.1477 77.1362 41.1477C76.405 41.1477 75.6004 40.8861 74.6711 40.3517L74.2833 40.1283L73.863 40.305C73.6807 40.3779 73.4771 40.4064 73.2759 40.3871C73.0748 40.3678 72.8844 40.3016 72.727 40.1962L71.6217 39.4581C71.4465 39.3395 71.3162 39.1816 71.2466 39.0033C71.1769 38.8251 71.1707 38.634 71.2288 38.4529L71.3723 37.9877L63.0835 33.4407L53.3921 35.1699C52.2356 35.3692 51.0432 34.6877 50.7903 33.6853C50.6598 33.1918 50.7697 32.6757 51.0961 32.2488C51.4105 31.8473 51.882 31.5716 52.4372 31.4769L62.6256 29.6586V29.6586ZM38.6356 28.2504C35.2155 27.8913 35.7758 25.9628 36.2268 24.7808C33.3534 23.801 36.0902 22.7788 37.5012 22.3589C37.0928 22.5209 36.6933 22.6978 36.3037 22.8891C35.3077 23.3896 35.5298 23.8816 37.2211 23.391C38.0172 23.1605 40.0911 22.0096 40.0911 22.0096C40.0911 22.0096 36.7872 22.3532 35.3026 22.1977C33.8915 22.0506 35.0242 21.42 34.6415 20.2989C34.5343 20.3046 34.4266 20.3008 34.3203 20.2875C32.9759 20.1476 30.5825 18.8199 32.5283 17.7143C33.4764 17.177 35.265 16.1477 35.4 15.496C35.675 14.1655 36.1038 11.2303 38.6783 9.11518C40.9828 8.63871 44.7189 8.10144 47.0098 9.01197C50.9697 10.587 47.5906 14.0057 48.6857 17.0993L49.4339 17.177C53.0778 11.581 58.2711 14.3762 56.5184 18.5824C54.4564 23.5324 51.7214 22.1482 51.7214 22.1482C51.7214 22.1482 49.7807 26.8281 46.3179 27.5152C42.6433 28.2462 40.2158 28.4173 38.6356 28.2504V28.2504ZM43.1729 31.3821C42.9423 32.1937 42.5528 32.6603 42.5528 32.6603C46.2359 33.0448 50.8877 28.2547 52.3654 24.3298C52.7002 24.8826 53.1068 25.3053 53.457 25.5895L52.7635 30.1224L50.5153 30.5423C48.2535 30.9028 47.266 33.4732 46.3931 35.7411C46.007 36.7492 45.3578 38.4373 44.9137 38.5603C43.7042 38.8332 42.3939 37.9142 41.714 36.4466C40.8889 34.6736 42.6126 32.1343 43.1729 31.3821V31.3821ZM42.7953 64.3252L43.2173 64.3761C43.5146 63.573 43.3164 62.7501 43.6546 61.8947C43.969 61.103 44.5105 60.3918 45.5338 60.3918C46.3709 60.3918 46.9739 60.8683 47.3224 61.455C47.84 62.326 47.8332 63.3906 48.3918 64.3761L48.5746 64.345L48.5798 64.3633C48.6037 64.434 48.7728 64.9416 49.094 65.6754C48.7728 65.8355 48.4567 66.0024 48.1458 66.1759L47.8486 66.2466C47.1311 66.4191 46.3999 66.4064 45.7132 66.3541C44.5857 66.2749 43.5009 66.3272 42.358 66.7712L42.3426 66.7754C42.8295 65.3771 42.8158 64.5839 42.7953 64.3252ZM23.4417 23.1577C22.5869 22.8786 21.775 22.517 21.0227 22.0803C21.0193 22.0803 21.0193 22.0789 21.0176 22.0775C21.1559 22.004 21.2994 21.9375 21.4361 21.8612C22.0135 21.5289 22.5499 21.1429 23.059 20.7343C23.2111 20.8234 23.3494 20.9252 23.5186 20.9973C24.3249 21.3112 25.1705 21.3281 25.9786 21.2122C25.2323 21.9442 24.3803 22.5976 23.4417 23.1577V23.1577ZM29.4533 13.3511C29.4619 16.1364 28.3122 18.8393 26.1972 21.0058C25.3277 21.0553 24.4701 20.9747 23.7748 20.5873C23.6672 20.5293 23.5818 20.4487 23.4827 20.3823C24.0308 19.9011 24.5269 19.3812 24.9655 18.8284C26.8276 16.4235 27.5793 13.5123 27.4682 10.7058C27.4196 9.29951 27.1445 7.90491 26.6499 6.55892C26.5526 6.31149 26.4398 6.06972 26.3271 5.82795C28.3604 7.97396 29.4616 10.624 29.4533 13.3511V13.3511ZM15.5731 1.43507C19.5006 1.43507 23.0436 2.84894 25.5737 5.10829C25.8009 5.62435 25.9871 6.15597 26.134 6.68475C26.4911 8.00671 26.6311 9.36544 26.6106 10.7129C26.544 13.4006 25.7804 16.1053 24.0447 18.3039C23.6576 18.8028 23.2168 19.2718 22.7276 19.705C22.3201 19.195 21.9972 18.6419 21.7675 18.0607C21.3678 17.0427 21.0859 15.9781 20.8433 14.8979L20.0968 11.6375C19.5433 9.46724 18.8787 7.24888 17.536 5.25958C16.868 4.27553 16.0122 3.365 14.9684 2.65241C14.353 2.25115 13.6792 1.91533 12.9628 1.65281C13.8222 1.50991 14.6965 1.43698 15.5731 1.43507V1.43507ZM12.5579 1.72774C14.4234 2.62413 15.8687 4.00972 16.7826 5.61587C17.8965 7.54579 18.491 9.68356 19.0188 11.8326C19.5792 13.9817 19.9567 16.1986 20.968 18.3251C21.2755 18.9458 21.6889 19.5778 22.2322 20.1094C21.5797 20.6319 20.8642 21.0977 20.0968 21.4992C19.4049 21.0553 18.7301 20.5887 18.0844 20.0953C16.2313 18.6421 14.5076 17.08 12.9269 15.421C11.3185 13.7642 9.82424 12.0337 8.4511 10.2378C7.76777 9.33575 7.11348 8.41815 6.52582 7.46379C6.08119 6.75814 5.70641 6.02383 5.40515 5.26806C7.28954 3.50402 9.78859 2.2671 12.5579 1.72774V1.72774ZM1.69295 13.3511C1.69295 10.3071 3.04253 7.53448 5.23945 5.425C5.41711 6.18848 5.71948 6.93218 6.03382 7.6589C6.51386 8.67971 7.08444 9.66659 7.71481 10.6209C8.96873 12.5367 10.4533 14.3295 12.0762 16.0276C13.7213 17.7072 15.5048 19.2978 17.524 20.6622C18.139 21.0793 18.7882 21.461 19.4527 21.823C18.5698 22.2505 17.6354 22.6007 16.6647 22.8678C16.6357 22.8763 16.6032 22.8792 16.5725 22.8876C15.9727 22.5476 15.3375 22.2523 14.6745 22.0054C12.7732 21.3069 10.8359 20.8121 9.04219 20.0868C7.23477 19.3912 5.57257 18.4721 4.19224 17.2661C3.24583 16.4447 2.45487 15.4903 1.75958 14.4667C1.71745 14.0958 1.69522 13.7236 1.69295 13.3511V13.3511ZM1.95945 15.6529C2.39508 16.398 2.92124 17.112 3.55845 17.761C4.89949 19.1564 6.69323 20.2027 8.58264 20.9478C10.4806 21.6929 12.4657 22.1581 14.3619 22.6954C14.7805 22.8198 15.1922 22.9527 15.6005 23.0969C13.4172 23.5691 11.14 23.7572 8.84573 23.7656C5.33511 22.0888 2.75724 19.1423 1.95945 15.6529V15.6529ZM15.5731 25.2686C13.4107 25.2657 11.2813 24.8296 9.36677 23.9975C11.8199 24.2011 14.3209 24.1318 16.7604 23.6031C16.8561 23.6511 16.9603 23.6836 17.0542 23.736C17.6368 24.0541 18.1322 24.4811 18.5132 24.9957C17.5482 25.1756 16.5623 25.2671 15.5731 25.2686V25.2686ZM17.4625 23.4362C18.518 23.1709 19.5332 22.8061 20.488 22.349C20.5768 22.3914 20.6588 22.4409 20.7442 22.4819C21.5318 22.8127 22.3552 23.111 23.2025 23.2948C21.8352 24.0706 20.3078 24.6327 18.696 24.9533C18.4346 24.3744 18.0121 23.8546 17.4625 23.4362V23.4362ZM25.6711 35.4739C25.3191 35.3381 24.2241 34.6001 24.0738 34.3385L20.1036 26.1254C20.8109 25.9388 21.4925 25.7012 22.1553 25.4354C22.2527 25.3987 22.3484 25.3562 22.4457 25.3167C23.1054 25.0422 23.7397 24.7279 24.3437 24.3764L27.9466 31.8275L39.3257 35.7821C38.6099 37.0404 37.9659 38.3256 37.3936 39.608L25.6711 35.4739ZM41.099 73.9465C41.0221 73.9819 40.6702 74.0681 39.9681 74.0681C38.4904 74.0681 37.0314 73.7146 36.6454 73.2622C33.6695 69.7827 33.3227 65.6132 33.3124 63.9731L41.1861 64.8808C41.1417 65.2767 41.0153 65.903 40.6856 66.7514C40.6217 66.9145 40.6046 67.0876 40.6354 67.2572C40.6662 67.4267 40.7442 67.588 40.8632 67.7283C41.2835 68.2204 42.1189 68.3391 43.0243 67.9871C44.297 67.4936 44.8949 67.6407 45.5782 67.6916C46.2171 67.734 46.909 67.7623 47.5616 67.6718L49.2819 71.5274C47.7324 71.7692 44.5771 72.4153 41.099 73.9465V73.9465ZM58.1686 73.347C57.6117 73.306 57.3247 72.971 56.9147 72.4294C56.6567 72.0873 56.3902 71.7324 55.9649 71.5345C52.8096 70.0542 50.9987 66.2438 50.3718 64.69L57.5963 63.3821C57.7791 64.3153 58.2062 66.0628 59.1355 68.2585C59.4037 68.9004 59.9145 69.5536 61.6468 69.5536L61.8483 69.5522C63.0083 69.5522 64.3562 70.221 65.6579 70.8685C67.0331 71.5514 68.3349 72.1962 69.6417 72.24L70.5847 76.0249C67.9351 75.2586 61.985 73.6411 58.1686 73.347" fill="#26325B"/>
</svg>
