<svg width="101" height="101" viewBox="0 0 101 101" fill="none" xmlns="http://www.w3.org/2000/svg">
<path d="M88.7346 86.2166C88.703 86.2287 88.2191 86.2514 86.8493 87.197L86.3485 87.291C85.2164 87.507 83.5773 86.7146 81.8687 85.8665C80.036 84.9592 78.1422 84.0606 76.1791 84.0188C75.2006 83.9979 74.824 83.8534 74.6851 83.5208C73.0775 79.7209 72.7409 77.0216 72.7366 76.9937L72.7282 76.9014L73.7614 76.7134L67.8171 64.9567L66.0139 44.9403L77.3153 42.9446L85.7277 47.5612C85.6857 48.4546 86.1507 49.3271 86.9987 49.8913L88.3621 50.8021C89.1849 51.3506 90.3022 51.5405 91.2996 51.3001C92.6126 51.9932 93.8309 52.3311 95.0092 52.3311H95.0113C96.7578 52.3311 98.3106 51.5875 99.6299 50.1246C101.768 47.7667 101.385 45.252 98.6136 43.4061C95.7435 41.4835 94.3001 40.5205 92.8714 40.5205C92.1433 40.5205 91.5563 40.7799 91.0786 41.0969L80.581 35.3309C79.6383 34.8172 77.7866 34.6604 76.6735 34.9286L67.0786 36.7154L67.9118 31.2837C74.8808 25.9165 78.7062 18.5135 76.3053 11.2168C75.3563 8.3277 68.4442 1.31829 53.431 3.77898C47.8002 4.70196 44.6566 8.62549 45.0059 11.1663C42.6387 13.7454 42.0243 16.7494 41.7087 18.3864L41.6582 18.6476C41.452 18.874 40.8249 19.3756 38.9375 20.4448C36.9217 21.5925 37.0858 23.0205 37.25 23.5829C37.6434 24.9187 39.1921 25.866 40.625 26.3327C40.5367 26.7872 40.5072 27.4316 41.0375 28.0428C41.1364 28.1578 41.2458 28.2588 41.3594 28.3459C41.1896 28.6285 41.0894 28.9364 41.0648 29.2514C41.0227 29.854 41.2458 30.6342 42.3021 31.3307C42.1127 32.2607 42.1085 33.4309 42.9165 34.4758C43.7602 35.566 45.2479 36.2295 47.3415 36.4489C48.9049 36.6126 50.9039 36.5151 53.2984 36.2016C53.4541 37.0967 53.3805 37.8612 53.2269 38.4847C52.5977 38.9235 50.3505 40.5866 49.431 42.5022L36.0317 37.8525L31.695 28.8892C33.7992 27.3183 35.4809 25.3988 36.6307 23.2551C37.7806 21.1115 38.3729 18.7918 38.3694 16.4464C38.3694 7.37685 29.7634 0 19.1857 0C8.60812 0 0 7.37511 0 16.4447C0 25.5142 8.60391 32.8928 19.1815 32.8928C20.3851 32.8928 21.5634 32.7849 22.7081 32.6003L27.7244 42.969C28.1894 43.9128 30.3799 45.2381 30.8701 45.3408L45.3489 50.4468C42.1716 58.1458 40.9933 65.1135 40.9933 65.1135L38.3378 77.4935L39.1185 77.5876L39.0974 77.7844C39.0701 78.0874 38.4535 85.2535 43.5435 91.1989C44.604 92.4388 47.2679 92.8794 49.2269 92.8794C49.9254 92.8794 50.8954 92.8202 51.5288 92.545C57.1132 90.0826 62.1001 89.5776 62.1506 89.5724L62.4789 89.5393C65.3952 93.2608 70.0791 94.4624 72.6399 93.6509L71.916 92.0296C77.8056 92.5955 87.8193 95.6414 87.9203 95.6762L88.7893 95.9409C92.0907 100.298 97.4206 101.766 100.148 100.632L92.3053 87.2754C91.6425 86.1434 90.0455 85.668 88.7346 86.2166V86.2166ZM77.1364 36.5308C77.9676 36.3392 79.1501 36.522 79.5099 36.7171L91.3227 43.2041L91.8866 42.7112C92.4253 42.2375 92.6841 42.1731 92.8693 42.1731C93.6162 42.1731 95.1165 43.1779 97.3932 44.7C99.329 45.9904 99.5584 47.4794 98.0665 49.1233C97.126 50.1734 96.1223 50.6819 95.0092 50.6819C94.1086 50.6819 93.1176 50.3597 91.9729 49.7015L91.4952 49.4263L90.9776 49.644C90.753 49.7338 90.5022 49.7688 90.2545 49.7451C90.0067 49.7213 89.7722 49.6398 89.5784 49.5099L88.217 48.6009C88.0011 48.4547 87.8407 48.2603 87.7549 48.0407C87.6691 47.8211 87.6615 47.5857 87.733 47.3627L87.9098 46.7897L77.7004 41.1892L65.7635 43.319C64.3389 43.5645 62.8702 42.7252 62.5588 41.4905C62.398 40.8826 62.5334 40.2469 62.9355 39.7211C63.3226 39.2265 63.9034 38.887 64.5872 38.7703L77.1364 36.5308V36.5308ZM47.5877 34.7963C43.3752 34.3539 44.0653 31.9786 44.6208 30.5227C41.0816 29.3159 44.4525 28.0568 46.1905 27.5396C45.6875 27.7392 45.1954 27.9571 44.7155 28.1926C43.4888 28.8091 43.7623 29.4151 45.8455 28.8108C46.826 28.527 49.3805 27.1094 49.3805 27.1094C49.3805 27.1094 45.311 27.5326 43.4825 27.341C41.7445 27.1599 43.1395 26.3832 42.6682 25.0022C42.5361 25.0094 42.4035 25.0047 42.2726 24.9883C40.6166 24.8159 37.6687 23.1807 40.0653 21.8188C41.2331 21.1571 43.4362 19.8893 43.6024 19.0865C43.9412 17.4478 44.4693 13.8325 47.6403 11.2272C50.4788 10.6404 55.0806 9.97861 57.9023 11.1001C62.7798 13.0401 58.6177 17.251 59.9665 21.0613L60.8881 21.1571C65.3763 14.2644 71.7729 17.7072 69.6141 22.8881C67.0743 28.985 63.7056 27.2801 63.7056 27.2801C63.7056 27.2801 61.3153 33.0443 57.0501 33.8907C52.5241 34.791 49.5341 35.0017 47.5877 34.7963V34.7963ZM53.1764 38.6536C52.8923 39.6532 52.4126 40.2279 52.4126 40.2279C56.9491 40.7016 62.6788 34.8015 64.4989 29.9672C64.9113 30.6481 65.4121 31.1688 65.8434 31.5188L64.9891 37.102L62.22 37.6192C59.4341 38.0632 58.2179 41.2292 57.1427 44.0225C56.6672 45.2642 55.8676 47.3435 55.3205 47.495C53.8308 47.8311 52.2169 46.6992 51.3794 44.8915C50.3631 42.7077 52.4862 39.5801 53.1764 38.6536V38.6536ZM52.7113 79.2298L53.2311 79.2925C53.5972 78.3033 53.3531 77.2898 53.7697 76.2362C54.1569 75.261 54.8239 74.385 56.0843 74.385C57.1154 74.385 57.8581 74.9719 58.2874 75.6946C58.9249 76.7674 58.9165 78.0787 59.6046 79.2925L59.8297 79.2542L59.836 79.2768C59.8655 79.3639 60.0738 79.9891 60.4694 80.8929C60.0738 81.0901 59.6844 81.2957 59.3016 81.5094L58.9355 81.5964C58.0517 81.8089 57.1511 81.7932 56.3052 81.7288C54.9165 81.6313 53.5804 81.6957 52.1727 82.2425L52.1537 82.2478C52.7534 80.5254 52.7366 79.5485 52.7113 79.2298ZM28.8733 28.5235C27.8205 28.1798 26.8204 27.7343 25.8938 27.1965C25.8896 27.1965 25.8896 27.1948 25.8875 27.193C26.0579 27.1025 26.2347 27.0206 26.403 26.9266C27.1142 26.5173 27.7749 26.0419 28.402 25.5386C28.5892 25.6483 28.7597 25.7737 28.968 25.8625C29.9612 26.2491 31.0027 26.27 31.998 26.1272C31.0789 27.0288 30.0294 27.8336 28.8733 28.5235V28.5235ZM36.2778 16.4447C36.2884 19.8753 34.8723 23.2045 32.2673 25.873C31.1963 25.9339 30.14 25.8347 29.2836 25.3575C29.151 25.2861 29.0458 25.1868 28.9238 25.105C29.5989 24.5123 30.21 23.8719 30.7502 23.1911C33.0437 20.2289 33.9696 16.6432 33.8328 13.1864C33.773 11.4543 33.434 9.73653 32.8249 8.07867C32.705 7.77391 32.5661 7.47612 32.4272 7.17833C34.9317 9.82158 36.2881 13.0857 36.2778 16.4447V16.4447ZM19.1815 1.76759C24.019 1.76759 28.383 3.50906 31.4993 6.29192C31.7791 6.92756 32.0085 7.58235 32.1895 8.23366C32.6292 9.86193 32.8018 11.5355 32.7765 13.1951C32.6945 16.5056 31.7539 19.8371 29.6161 22.545C29.1393 23.1596 28.5963 23.7372 27.9938 24.2708C27.4918 23.6426 27.0941 22.9614 26.8112 22.2455C26.3189 20.9916 25.9717 19.6803 25.6729 18.3498L24.7534 14.334C24.0716 11.6609 23.2531 8.9285 21.5992 6.47826C20.7765 5.2662 19.7223 4.14469 18.4367 3.26699C17.6786 2.77276 16.8487 2.35913 15.9664 2.03578C17.025 1.85977 18.1018 1.76994 19.1815 1.76759V1.76759ZM15.4677 2.12807C17.7654 3.23216 19.5456 4.9388 20.6713 6.91711C22.0432 9.29421 22.7754 11.9273 23.4256 14.5743C24.1158 17.2214 24.5808 19.952 25.8265 22.5712C26.2052 23.3357 26.7144 24.1141 27.3836 24.7689C26.5799 25.4125 25.6986 25.9861 24.7534 26.4808C23.9012 25.9339 23.07 25.3592 22.2747 24.7515C19.9922 22.9617 17.8692 21.0375 15.9222 18.9942C13.9411 16.9535 12.1006 14.822 10.4093 12.61C9.56762 11.4989 8.76173 10.3687 8.0379 9.1932C7.49025 8.32405 7.02862 7.41959 6.65757 6.48871C8.97858 4.31593 12.0567 2.7924 15.4677 2.12807V2.12807ZM2.08522 16.4447C2.08522 12.6953 3.74751 9.28028 6.45346 6.68201C6.6723 7.6224 7.04473 8.53841 7.4319 9.43353C8.02317 10.6909 8.72596 11.9064 9.50239 13.0819C11.0468 15.4416 12.8754 17.6498 14.8743 19.7413C16.9006 21.8101 19.0974 23.7693 21.5845 25.4498C22.342 25.9635 23.1416 26.4337 23.9601 26.8795C22.8725 27.4061 21.7217 27.8374 20.5261 28.1665C20.4903 28.1769 20.4503 28.1804 20.4125 28.1909C19.6737 27.772 18.8913 27.4084 18.0747 27.1042C15.7328 26.2439 13.3467 25.6344 11.1373 24.741C8.91112 23.8842 6.86378 22.7523 5.16361 21.2668C3.99791 20.255 3.02368 19.0795 2.16729 17.8187C2.11539 17.3619 2.08801 16.9035 2.08522 16.4447V16.4447ZM2.41347 19.2798C2.95003 20.1975 3.59812 21.077 4.38297 21.8763C6.03473 23.5951 8.2441 24.8838 10.5713 25.8016C12.909 26.7193 15.3541 27.2923 17.6897 27.954C18.2052 28.1073 18.7123 28.271 19.2152 28.4486C16.5261 29.0303 13.7212 29.2619 10.8953 29.2723C6.5713 27.2069 3.39612 23.5777 2.41347 19.2798V19.2798ZM19.1815 31.1235C16.5181 31.1199 13.8952 30.5827 11.5371 29.5579C14.5587 29.8087 17.6392 29.7234 20.6439 29.0721C20.7618 29.1313 20.8901 29.1713 21.0058 29.2358C21.7234 29.6276 22.3336 30.1535 22.8028 30.7874C21.6143 31.009 20.3999 31.1217 19.1815 31.1235V31.1235ZM21.5087 28.8666C22.8088 28.5398 24.0591 28.0905 25.2352 27.5274C25.3446 27.5796 25.4456 27.6406 25.5508 27.6911C26.5208 28.0986 27.5351 28.466 28.5787 28.6924C26.8946 29.648 25.0133 30.3403 23.0279 30.7352C22.7061 30.0221 22.1856 29.3819 21.5087 28.8666V28.8666ZM31.6192 43.6934C31.1858 43.5262 29.837 42.6172 29.6518 42.295L24.7618 32.1788C25.6329 31.949 26.4725 31.6564 27.2889 31.329C27.4088 31.2837 27.5266 31.2315 27.6466 31.1827C28.459 30.8446 29.2404 30.4575 29.9843 30.0246L34.422 39.2022L48.4378 44.0731C47.5561 45.623 46.7629 47.2059 46.058 48.7855L31.6192 43.6934ZM50.6219 91.0805C50.5272 91.124 50.0938 91.2302 49.229 91.2302C47.4089 91.2302 45.6119 90.7949 45.1364 90.2376C41.4709 85.9519 41.0438 80.8163 41.0311 78.7962L50.7292 79.9142C50.6745 80.4018 50.5188 81.1733 50.1127 82.2181C50.0341 82.4191 50.013 82.6323 50.0509 82.8411C50.0889 83.05 50.185 83.2486 50.3315 83.4215C50.8492 84.0275 51.8781 84.1738 52.9933 83.7402C54.5609 83.1324 55.2974 83.3135 56.139 83.3762C56.926 83.4285 57.7782 83.4633 58.582 83.3518L60.7008 88.1008C58.7924 88.3986 54.906 89.1945 50.6219 91.0805V91.0805ZM71.6467 90.3421C70.9607 90.2916 70.6072 89.8789 70.1022 89.2119C69.7845 88.7904 69.4563 88.3533 68.9323 88.1095C65.0459 86.2862 62.8155 81.593 62.0433 79.6791L70.9418 78.0682C71.1669 79.2176 71.693 81.3701 72.8376 84.0745C73.168 84.8652 73.7971 85.6697 75.9308 85.6697L76.1791 85.668C77.6078 85.668 79.268 86.4917 80.8713 87.2893C82.5652 88.1304 84.1686 88.9245 85.7782 88.9785L86.9397 93.6404C83.6762 92.6966 76.3474 90.7043 71.6467 90.3421" fill="#26325B"/>
</svg>
