<svg width="62" height="61" viewBox="0 0 62 61" fill="none" xmlns="http://www.w3.org/2000/svg">
<path d="M54.4707 52.0714C54.4514 52.0787 54.1543 52.0924 53.3134 52.6635L53.006 52.7203C52.3111 52.8508 51.3049 52.3722 50.256 51.86C49.131 51.312 47.9685 50.7693 46.7634 50.744C46.1628 50.7314 45.9316 50.6441 45.8463 50.4432C44.8595 48.1483 44.6528 46.518 44.6502 46.5012L44.6451 46.4454L45.2793 46.3318L41.6303 39.2313L40.5234 27.1422L47.4609 25.9368L52.625 28.7251C52.5991 29.2647 52.8846 29.7916 53.4051 30.1324L54.2421 30.6824C54.7472 31.0138 55.433 31.1284 56.0453 30.9833C56.8513 31.4019 57.5991 31.6059 58.3225 31.6059H58.3238C59.3958 31.6059 60.3491 31.1568 61.159 30.2733C62.4713 28.8492 62.2362 27.3304 60.5351 26.2155C58.7733 25.0544 57.8872 24.4728 57.0101 24.4728C56.5632 24.4728 56.2029 24.6295 55.9097 24.8209L49.4655 21.3385C48.8869 21.0282 47.7502 20.9335 47.0669 21.0955L41.1769 22.1746L41.6884 18.8941C45.9664 15.6525 48.3147 11.1814 46.8409 6.7745C46.2583 5.0296 42.0152 0.796195 32.7992 2.28236C29.3427 2.8398 27.413 5.20945 27.6274 6.744C26.1743 8.30168 25.7971 10.116 25.6034 11.1047L25.5724 11.2624C25.4458 11.3992 25.0609 11.7021 23.9022 12.3479C22.6648 13.041 22.7656 13.9034 22.8663 14.2432C23.1079 15.0499 24.0585 15.622 24.9381 15.9039C24.8839 16.1784 24.8658 16.5676 25.1913 16.9368C25.252 17.0062 25.3192 17.0672 25.3889 17.1198C25.2847 17.2905 25.2232 17.4764 25.2081 17.6667C25.1823 18.0306 25.3192 18.5018 25.9676 18.9225C25.8514 19.4842 25.8488 20.191 26.3448 20.822C26.8627 21.4804 27.7759 21.8812 29.0611 22.0137C30.0208 22.1126 31.2479 22.0537 32.7178 21.8643C32.8134 22.405 32.7682 22.8667 32.6739 23.2432C32.2877 23.5083 30.9082 24.5127 30.3438 25.6697L22.1184 22.8614L19.4563 17.4479C20.748 16.4992 21.7803 15.3398 22.4862 14.0452C23.192 12.7505 23.5557 11.3495 23.5535 9.93298C23.5535 4.45533 18.2706 0 11.7774 0C5.2842 0 0 4.45428 0 9.93193C0 15.4096 5.28161 19.866 11.7748 19.866C12.5136 19.866 13.237 19.8008 13.9396 19.6893L17.019 25.9516C17.3044 26.5216 18.649 27.322 18.95 27.3841L27.8379 30.4679C25.8875 35.1178 25.1642 39.326 25.1642 39.326L23.5341 46.803L24.0133 46.8598L24.0004 46.9787C23.9836 47.1617 23.6051 51.4898 26.7297 55.0805C27.3807 55.8294 29.0159 56.0955 30.2185 56.0955C30.6473 56.0955 31.2428 56.0597 31.6315 55.8935C35.0596 54.4063 38.1209 54.1013 38.1519 54.0982L38.3534 54.0782C40.1436 56.3258 43.0188 57.0516 44.5908 56.5614L44.1465 55.5822C47.7618 55.924 53.9089 57.7636 53.9709 57.7846L54.5043 57.9445C56.5309 60.5761 59.8027 61.4627 61.4767 60.778L56.6627 52.7109C56.2558 52.0272 55.2754 51.7401 54.4707 52.0714V52.0714ZM47.3511 22.0631C47.8613 21.9474 48.5872 22.0579 48.8081 22.1757L56.0595 26.0935L56.4056 25.7959C56.7363 25.5098 56.8952 25.4709 57.0089 25.4709C57.4674 25.4709 58.3884 26.0778 59.7859 26.997C60.9743 27.7764 61.1151 28.6757 60.1993 29.6685C59.6219 30.3028 59.0058 30.6099 58.3225 30.6099C57.7696 30.6099 57.1613 30.4153 56.4586 30.0177L56.1654 29.8515L55.8477 29.983C55.7098 30.0372 55.5558 30.0584 55.4037 30.0441C55.2516 30.0297 55.1077 29.9805 54.9887 29.902L54.153 29.353C54.0205 29.2647 53.922 29.1473 53.8694 29.0147C53.8167 28.8821 53.812 28.7399 53.8559 28.6052L53.9644 28.2592L47.6973 24.8766L40.3697 26.163C39.4952 26.3113 38.5936 25.8043 38.4024 25.0586C38.3037 24.6915 38.3868 24.3075 38.6337 23.99C38.8713 23.6913 39.2278 23.4862 39.6476 23.4157L47.3511 22.0631V22.0631ZM29.2123 21.0156C26.6263 20.7484 27.05 19.3138 27.391 18.4345C25.2184 17.7056 27.2877 16.9452 28.3546 16.6328C28.0458 16.7534 27.7437 16.885 27.4491 17.0272C26.6961 17.3996 26.864 17.7656 28.1428 17.4006C28.7447 17.2292 30.3128 16.373 30.3128 16.373C30.3128 16.373 27.8147 16.6286 26.6922 16.5129C25.6253 16.4035 26.4817 15.9344 26.1924 15.1004C26.1113 15.1047 26.0299 15.1018 25.9495 15.092C24.933 14.9878 23.1234 14.0002 24.5946 13.1777C25.3114 12.778 26.6638 12.0123 26.7658 11.5275C26.9738 10.5378 27.298 8.35427 29.2446 6.78081C30.987 6.42636 33.8119 6.02668 35.544 6.70403C38.5381 7.87571 35.9832 10.4189 36.8111 12.7202L37.3769 12.778C40.132 8.61511 44.0586 10.6945 42.7334 13.8235C41.1744 17.5058 39.1064 16.4761 39.1064 16.4761C39.1064 16.4761 37.6391 19.9575 35.0209 20.4686C32.2425 21.0124 30.407 21.1397 29.2123 21.0156V21.0156ZM32.6429 23.3452C32.4685 23.949 32.174 24.2961 32.174 24.2961C34.9589 24.5821 38.4761 21.0187 39.5934 18.099C39.8465 18.5102 40.1539 18.8247 40.4187 19.0361L39.8943 22.4081L38.1945 22.7205C36.4843 22.9887 35.7377 24.9008 35.0777 26.5879C34.7858 27.3378 34.295 28.5936 33.9591 28.6851C33.0446 28.8881 32.0539 28.2045 31.5398 27.1127C30.916 25.7938 32.2193 23.9048 32.6429 23.3452V23.3452ZM32.3575 47.8517L32.6765 47.8895C32.9013 47.2921 32.7514 46.68 33.0072 46.0437C33.2448 45.4547 33.6543 44.9256 34.428 44.9256C35.0609 44.9256 35.5169 45.2801 35.7804 45.7165C36.1717 46.3644 36.1666 47.1564 36.5889 47.8895L36.7272 47.8664L36.731 47.8801C36.7491 47.9326 36.877 48.3102 37.1198 48.8561C36.877 48.9752 36.638 49.0994 36.4029 49.2284L36.1782 49.281C35.6357 49.4093 35.0829 49.3999 34.5636 49.361C33.7111 49.3021 32.8909 49.341 32.0268 49.6712L32.0152 49.6744C32.3833 48.6342 32.373 48.0441 32.3575 47.8517ZM17.7242 17.2271C17.0779 17.0195 16.464 16.7504 15.8952 16.4256C15.8926 16.4256 15.8926 16.4246 15.8913 16.4235C15.996 16.3688 16.1045 16.3194 16.2078 16.2626C16.6444 16.0154 17.05 15.7283 17.4349 15.4243C17.5498 15.4906 17.6545 15.5663 17.7823 15.6199C18.392 15.8534 19.0314 15.8661 19.6423 15.7798C19.0781 16.3243 18.4339 16.8104 17.7242 17.2271V17.2271ZM22.2696 9.93193C22.2761 12.0039 21.4068 14.0146 19.8077 15.6263C19.1502 15.6631 18.5018 15.6031 17.9761 15.3149C17.8947 15.2718 17.8301 15.2119 17.7552 15.1624C18.1696 14.8045 18.5448 14.4177 18.8764 14.0065C20.2843 12.2174 20.8526 10.0518 20.7687 7.96406C20.7319 6.91793 20.5239 5.88048 20.1499 4.87919C20.0763 4.69513 19.9911 4.51528 19.9058 4.33543C21.4432 5.93185 22.2758 7.90322 22.2696 9.93193V9.93193ZM11.7748 1.06755C14.7443 1.06755 17.4232 2.11933 19.3362 3.80007C19.508 4.18397 19.6488 4.57944 19.7599 4.9728C20.0298 5.95621 20.1357 6.96697 20.1202 7.96932C20.0699 9.96874 19.4925 11.9808 18.1802 13.6163C17.8875 13.9875 17.5542 14.3363 17.1843 14.6586C16.8762 14.2792 16.632 13.8678 16.4584 13.4354C16.1561 12.6781 15.943 11.8861 15.7596 11.0826L15.1951 8.65718C14.7766 7.0427 14.2742 5.39246 13.2589 3.91261C12.7539 3.18057 12.1068 2.50323 11.3176 1.97313C10.8522 1.67464 10.3428 1.42482 9.80114 1.22953C10.451 1.12323 11.112 1.06898 11.7748 1.06755V1.06755ZM9.49502 1.28527C10.9055 1.9521 11.9983 2.98284 12.6893 4.17766C13.5315 5.61334 13.981 7.20362 14.3801 8.80232C14.8038 10.401 15.0892 12.0502 15.8539 13.6321C16.0864 14.0938 16.399 14.564 16.8097 14.9594C16.3164 15.3482 15.7754 15.6946 15.1951 15.9933C14.672 15.6631 14.1618 15.316 13.6735 14.9489C12.2724 13.8679 10.9692 12.7058 9.77402 11.4717C8.55793 10.2392 7.42808 8.95193 6.38986 7.61592C5.87319 6.94488 5.37849 6.26228 4.93415 5.55233C4.59797 5.0274 4.3146 4.48114 4.08682 3.91892C5.5116 2.60665 7.40113 1.6865 9.49502 1.28527V1.28527ZM1.28004 9.93193C1.28004 7.66746 2.30045 5.60492 3.96153 4.03567C4.09587 4.60363 4.32449 5.15686 4.56215 5.69748C4.92511 6.45686 5.35653 7.191 5.83315 7.90095C6.78123 9.32611 7.90369 10.6598 9.13077 11.9229C10.3746 13.1725 11.7231 14.3557 13.2499 15.3707C13.7149 15.6809 14.2057 15.9649 14.7082 16.2342C14.0406 16.5522 13.3341 16.8127 12.6002 17.0114C12.5782 17.0178 12.5537 17.0199 12.5304 17.0262C12.0769 16.7732 11.5967 16.5536 11.0954 16.3699C9.65777 15.8503 8.19302 15.4822 6.83677 14.9426C5.47019 14.4251 4.21341 13.7415 3.16974 12.8443C2.45416 12.2332 1.85612 11.5233 1.33041 10.7618C1.29856 10.4859 1.28175 10.209 1.28004 9.93193V9.93193ZM1.48154 11.6442C1.81091 12.1985 2.20874 12.7297 2.69054 13.2124C3.70449 14.2505 5.06074 15.0288 6.48932 15.5831C7.92436 16.1374 9.42527 16.4835 10.859 16.8831C11.1755 16.9757 11.4868 17.0746 11.7955 17.1818C10.1447 17.5331 8.42294 17.673 6.68823 17.6793C4.03387 16.4319 2.08475 14.24 1.48154 11.6442V11.6442ZM11.7748 18.7974C10.1398 18.7952 8.52975 18.4708 7.08219 17.8518C8.93702 18.0033 10.828 17.9517 12.6725 17.5584C12.7448 17.5941 12.8236 17.6183 12.8947 17.6572C13.3351 17.8939 13.7097 18.2115 13.9978 18.5944C13.2682 18.7282 12.5227 18.7963 11.7748 18.7974V18.7974ZM13.2034 17.4343C14.0014 17.2369 14.769 16.9655 15.4909 16.6254C15.5581 16.657 15.6201 16.6938 15.6847 16.7243C16.2801 16.9704 16.9027 17.1924 17.5434 17.3291C16.5095 17.9062 15.3547 18.3243 14.136 18.5628C13.9384 18.1322 13.6189 17.7455 13.2034 17.4343V17.4343ZM19.4098 26.3891C19.1437 26.2881 18.3158 25.7391 18.2021 25.5445L15.2003 19.4347C15.735 19.2959 16.2504 19.1192 16.7516 18.9215C16.8252 18.8941 16.8975 18.8626 16.9712 18.8331C17.4699 18.6289 17.9495 18.3952 18.4062 18.1337L21.1303 23.6766L29.7341 26.6184C29.1929 27.5545 28.7059 28.5105 28.2732 29.4645L19.4098 26.3891ZM31.0748 55.009C31.0167 55.0353 30.7506 55.0995 30.2198 55.0995C29.1025 55.0995 27.9994 54.8365 27.7075 54.4999C25.4574 51.9115 25.1952 48.8098 25.1874 47.5898L31.1407 48.265C31.1071 48.5595 31.0115 49.0254 30.7623 49.6565C30.714 49.7778 30.701 49.9067 30.7243 50.0328C30.7476 50.1589 30.8066 50.2789 30.8966 50.3833C31.2143 50.7493 31.846 50.8377 32.5305 50.5758C33.4928 50.2087 33.9449 50.3181 34.4616 50.3559C34.9447 50.3875 35.4678 50.4085 35.9612 50.3412L37.2619 53.2094C36.0904 53.3893 33.7047 53.8699 31.0748 55.009V55.009ZM43.9811 54.563C43.5601 54.5325 43.3431 54.2833 43.0331 53.8804C42.838 53.6259 42.6365 53.3619 42.3149 53.2147C39.9292 52.1135 38.56 49.2789 38.086 48.123L43.5484 47.1501C43.6866 47.8443 44.0096 49.1443 44.7122 50.7777C44.915 51.2552 45.3012 51.7411 46.611 51.7411L46.7634 51.7401C47.6404 51.7401 48.6595 52.2376 49.6438 52.7193C50.6836 53.2273 51.6678 53.7069 52.6559 53.7395L53.3689 56.5551C51.3656 55.9851 46.8667 54.7818 43.9811 54.563" fill="#26325B"/>
</svg>
