<svg width="50" height="50" viewBox="0 0 82 82" fill="none" xmlns="http://www.w3.org/2000/svg">
<path d="M0 10.0227C0 4.41106 5.2421 -0.33966 11.8899 0.0190784C37.9364 1.42328 60.779 9.09002 78.6724 24.0391C83.7505 28.2774 82.7489 35.201 77.4834 38.7371L76.0543 39.7006L73.729 37.4406L73.688 37.4047C56.4916 21.9533 31.5697 12.8824 5.10152 12.8824H0V10.0227V10.0227ZM0 18.0021V74.3086C0 80.6224 8.23507 84.2405 14.0277 80.4635L23.4459 74.3239V74.3342C23.4459 75.6934 24.063 76.9969 25.1614 77.958C26.2598 78.9191 27.7496 79.459 29.303 79.459C30.8564 79.459 32.3462 78.9191 33.4446 77.958C34.543 76.9969 35.1601 75.6934 35.1601 74.3342V64.0743C35.166 63.4245 35.4539 62.8009 35.9655 62.3298C36.477 61.8587 37.174 61.5753 37.9154 61.5368C38.6568 61.4984 39.3871 61.7079 39.9587 62.1228C40.5302 62.5378 40.9002 63.1273 40.9938 63.7719V66.6418C40.9938 68.001 41.6108 69.3045 42.7093 70.2656C43.8077 71.2267 45.2975 71.7667 46.8508 71.7667C48.4042 71.7667 49.894 71.2267 50.9924 70.2656C52.0909 69.3045 52.7079 68.001 52.7079 66.6418V55.1725C57.54 52.0719 64.9258 47.1572 71.392 42.8319L69.4534 40.9408C53.4108 26.5503 30.0469 18.0021 5.09567 18.0021H0ZM24.8809 32.0544C24.8805 32.5574 24.7669 33.0555 24.5465 33.5202C24.3261 33.9848 24.0033 34.4069 23.5965 34.7624C23.1897 35.1179 22.7068 35.3998 22.1755 35.592C21.6442 35.7842 21.0748 35.883 20.4998 35.8826C19.9249 35.8823 19.3556 35.7829 18.8246 35.59C18.2935 35.3972 17.8111 35.1148 17.4048 34.7588C16.9986 34.4028 16.6764 33.9803 16.4567 33.5154C16.237 33.0505 16.1242 32.5523 16.1246 32.0492C16.1246 31.0333 16.5858 30.0589 17.4069 29.3405C18.228 28.622 19.3416 28.2184 20.5027 28.2184C21.6639 28.2184 22.7775 28.622 23.5986 29.3405C24.4196 30.0589 24.8809 31.0333 24.8809 32.0492V32.0544ZM42.3057 42.304C42.3057 43.32 41.8445 44.2944 41.0234 45.0128C40.2023 45.7312 39.0887 46.1348 37.9276 46.1348C36.7664 46.1348 35.6528 45.7312 34.8317 45.0128C34.0107 44.2944 33.5494 43.32 33.5494 42.304C33.5494 41.288 34.0107 40.3137 34.8317 39.5952C35.6528 38.8768 36.7664 38.4732 37.9276 38.4732C39.0887 38.4732 40.2023 38.8768 41.0234 39.5952C41.8445 40.3137 42.3057 41.288 42.3057 42.304V42.304ZM24.9278 55.1263C24.9278 56.1478 24.464 57.1274 23.6386 57.8496C22.8131 58.5719 21.6935 58.9776 20.5262 58.9776C19.3588 58.9776 18.2392 58.5719 17.4138 57.8496C16.5883 57.1274 16.1246 56.1478 16.1246 55.1263C16.1246 54.1049 16.5883 53.1253 17.4138 52.4031C18.2392 51.6808 19.3588 51.275 20.5262 51.275C21.6935 51.275 22.8131 51.6808 23.6386 52.4031C24.464 53.1253 24.9278 54.1049 24.9278 55.1263V55.1263Z" fill="#26325B"/>
</svg>
