<svg width="43" height="49" viewBox="0 0 43 49" fill="none" xmlns="http://www.w3.org/2000/svg">
<path d="M0.800049 6.67002C0.800049 3.43977 3.4403 0.705117 6.78855 0.911617C19.9072 1.71992 31.4122 6.13312 40.4244 14.7383C42.9821 17.1779 42.4776 21.1634 39.8256 23.1989L39.1058 23.7535L37.9346 22.4525L37.914 22.4319C29.2528 13.5376 16.7005 8.31612 3.3695 8.31612H0.800049V6.67002V6.67002ZM0.800049 11.2632V43.6748C0.800049 47.3092 4.94775 49.3919 7.8653 47.2178L12.6089 43.6837V43.6896C12.6089 44.472 12.9197 45.2223 13.4729 45.7755C14.0262 46.3288 14.7765 46.6396 15.5589 46.6396C16.3413 46.6396 17.0916 46.3288 17.6449 45.7755C18.1981 45.2223 18.5089 44.472 18.5089 43.6896V37.7837C18.5119 37.4096 18.6569 37.0507 18.9145 36.7795C19.1722 36.5083 19.5232 36.3452 19.8966 36.323C20.27 36.3009 20.6379 36.4215 20.9258 36.6604C21.2136 36.8992 21.4 37.2385 21.4471 37.6096V39.2616C21.4471 40.044 21.7579 40.7944 22.3111 41.3476C22.8644 41.9008 23.6147 42.2116 24.3971 42.2116C25.1795 42.2116 25.9298 41.9008 26.4831 41.3476C27.0363 40.7944 27.3471 40.044 27.3471 39.2616V32.6595C29.7808 30.8748 33.5008 28.0457 36.7576 25.5559L35.7811 24.4674C27.7011 16.1838 15.9335 11.2632 3.36655 11.2632H0.800049ZM13.3316 19.3521C13.3315 19.6417 13.2742 19.9284 13.1632 20.1958C13.0522 20.4633 12.8896 20.7063 12.6847 20.9109C12.4798 21.1155 12.2366 21.2778 11.969 21.3884C11.7014 21.4991 11.4146 21.5559 11.125 21.5557C10.8355 21.5555 10.5488 21.4983 10.2813 21.3873C10.0138 21.2763 9.77085 21.1137 9.56622 20.9088C9.36159 20.7039 9.19933 20.4607 9.08869 20.1931C8.97805 19.9255 8.9212 19.6387 8.9214 19.3491C8.9214 18.7643 9.15372 18.2034 9.56727 17.7899C9.98081 17.3763 10.5417 17.144 11.1265 17.144C11.7114 17.144 12.2722 17.3763 12.6858 17.7899C13.0993 18.2034 13.3316 18.7643 13.3316 19.3491V19.3521ZM22.1079 25.2521C22.1079 25.8369 21.8756 26.3978 21.462 26.8113C21.0485 27.2249 20.4876 27.4572 19.9028 27.4572C19.3179 27.4572 18.7571 27.2249 18.3435 26.8113C17.93 26.3978 17.6976 25.8369 17.6976 25.2521C17.6976 24.6672 17.93 24.1064 18.3435 23.6928C18.7571 23.2793 19.3179 23.0469 19.9028 23.0469C20.4876 23.0469 21.0485 23.2793 21.462 23.6928C21.8756 24.1064 22.1079 24.6672 22.1079 25.2521V25.2521ZM13.3552 32.633C13.3552 33.2209 13.1217 33.7848 12.7059 34.2006C12.2902 34.6163 11.7263 34.8499 11.1383 34.8499C10.5504 34.8499 9.98648 34.6163 9.57072 34.2006C9.15497 33.7848 8.9214 33.2209 8.9214 32.633C8.9214 32.045 9.15497 31.4811 9.57072 31.0654C9.98648 30.6496 10.5504 30.416 11.1383 30.416C11.7263 30.416 12.2902 30.6496 12.7059 31.0654C13.1217 31.4811 13.3552 32.045 13.3552 32.633V32.633Z" fill="#26325B"/>
</svg>
