<svg width="414" height="169" viewBox="0 0 414 369" fill="none" xmlns="http://www.w3.org/2000/svg">
<g opacity="0.5">
<path d="M313.978 191.193C335.754 237.586 437.578 213.475 422.826 121.103L508.052 285.078C393.007 436.309 132.389 691.876 10.2803 504.302C-142.356 269.834 68.7061 218.446 99.0022 282.994C129.298 347.542 245.812 308.682 211.256 235.058C176.7 161.434 292.203 144.799 313.978 191.193Z" fill="#C7EAFF"/>
<path d="M315.98 224.502C337.755 270.895 439.579 246.784 424.827 154.412L510.054 318.388C395.008 469.618 134.39 725.186 12.2815 537.611C-140.355 303.144 70.7074 251.756 101.003 316.304C131.299 380.852 247.813 341.992 213.257 268.368C178.701 194.743 294.204 178.108 315.98 224.502Z" fill="#26325B"/>
<path d="M336.019 297.405C358.494 341.084 455.115 314.896 437.746 227.047L525.093 381.172C420.285 529.288 179.8 781.632 56.3191 606.085C-98.0324 386.651 102.195 331.02 133.465 391.791C164.735 452.561 274.899 411.821 239.232 342.505C203.566 273.19 313.544 253.726 336.019 297.405Z" fill="#E67571"/>
</g>
</svg>
