<svg width="300" height="296" viewBox="0 0 300 296" fill="none" xmlns="http://www.w3.org/2000/svg">
<g opacity="0.5">
<path d="M56.684 185.401C39.0939 156.257 -23.4683 180.059 -6.57281 240.274L-73.9813 137.898C-13.4249 28.666 130.865 -160.992 223.576 -45.7665C339.464 98.2659 209.9 148.539 185.427 107.99C160.954 67.4419 90.2868 102.162 118.201 148.412C146.116 194.662 74.2741 214.545 56.684 185.401Z" fill="#C7EAFF"/>
<path d="M52.2685 163.328C34.758 134.204 -27.6227 158.05 -10.8292 218.241L-77.9402 115.938C-17.4911 6.67949 126.488 -183.056 218.809 -67.9268C334.211 75.985 205.023 126.351 180.66 85.8299C156.298 45.309 85.8298 80.0784 113.618 126.297C141.406 172.516 69.779 192.452 52.2685 163.328Z" fill="#26325B"/>
<path d="M33.7098 116.47C15.9767 89.2021 -42.9488 114.027 -24.868 171.013L-92.5216 75.4135C-38.2886 -30.9894 93.2312 -217.035 185.447 -109.996C300.717 23.8027 178.716 76.1515 154.044 38.2133C129.372 0.275051 63.0678 35.8038 91.2092 79.0766C119.351 122.349 51.4428 143.738 33.7098 116.47Z" fill="#E67571"/>
</g>
</svg>
