<svg width="111" height="121" viewBox="0 0 111 121" fill="none" xmlns="http://www.w3.org/2000/svg">
<path d="M29.4464 100.138L26.2464 95.6382C25.8864 95.6782 25.5131 95.6982 25.1264 95.6982H21.3664V100.138H19.8864V86.1382H25.1264C26.9131 86.1382 28.3131 86.5648 29.3264 87.4182C30.3398 88.2715 30.8464 89.4448 30.8464 90.9382C30.8464 92.0315 30.5664 92.9582 30.0064 93.7182C29.4598 94.4648 28.6731 95.0048 27.6464 95.3382L31.0664 100.138H29.4464ZM25.0864 94.4382C26.4731 94.4382 27.5331 94.1315 28.2664 93.5182C28.9998 92.9049 29.3664 92.0449 29.3664 90.9382C29.3664 89.8048 28.9998 88.9382 28.2664 88.3382C27.5331 87.7248 26.4731 87.4182 25.0864 87.4182H21.3664V94.4382H25.0864ZM34.0396 89.6182H35.4596V100.138H34.0396V89.6182ZM34.7596 87.3182C34.4662 87.3182 34.2196 87.2182 34.0196 87.0182C33.8196 86.8182 33.7196 86.5782 33.7196 86.2982C33.7196 86.0315 33.8196 85.7982 34.0196 85.5982C34.2196 85.3982 34.4662 85.2982 34.7596 85.2982C35.0529 85.2982 35.2996 85.3982 35.4996 85.5982C35.6996 85.7848 35.7996 86.0115 35.7996 86.2782C35.7996 86.5715 35.6996 86.8182 35.4996 87.0182C35.2996 87.2182 35.0529 87.3182 34.7596 87.3182ZM42.2307 100.238C41.3773 100.238 40.5573 100.118 39.7707 99.8782C38.9973 99.6249 38.3907 99.3115 37.9507 98.9382L38.5907 97.8182C39.0307 98.1649 39.584 98.4515 40.2507 98.6782C40.9173 98.8915 41.6107 98.9982 42.3307 98.9982C43.2907 98.9982 43.9973 98.8515 44.4507 98.5582C44.9173 98.2515 45.1507 97.8249 45.1507 97.2782C45.1507 96.8915 45.024 96.5915 44.7707 96.3782C44.5173 96.1515 44.1973 95.9848 43.8107 95.8782C43.424 95.7582 42.9107 95.6448 42.2707 95.5382C41.4173 95.3782 40.7307 95.2182 40.2107 95.0582C39.6907 94.8848 39.244 94.5982 38.8707 94.1982C38.5107 93.7982 38.3307 93.2448 38.3307 92.5382C38.3307 91.6582 38.6973 90.9382 39.4307 90.3782C40.164 89.8182 41.184 89.5382 42.4907 89.5382C43.1707 89.5382 43.8507 89.6315 44.5307 89.8182C45.2107 89.9915 45.7707 90.2248 46.2107 90.5182L45.5907 91.6582C44.724 91.0582 43.6907 90.7582 42.4907 90.7582C41.584 90.7582 40.8973 90.9182 40.4307 91.2382C39.9773 91.5582 39.7507 91.9782 39.7507 92.4982C39.7507 92.8982 39.8773 93.2182 40.1307 93.4582C40.3973 93.6982 40.724 93.8782 41.1107 93.9982C41.4973 94.1048 42.0307 94.2182 42.7107 94.3382C43.5507 94.4982 44.224 94.6582 44.7307 94.8182C45.2373 94.9782 45.6707 95.2515 46.0307 95.6382C46.3907 96.0249 46.5707 96.5582 46.5707 97.2382C46.5707 98.1582 46.184 98.8915 45.4107 99.4382C44.6507 99.9715 43.5907 100.238 42.2307 100.238ZM58.3558 95.3182H49.5558C49.6358 96.4115 50.0558 97.2982 50.8158 97.9782C51.5758 98.6449 52.5358 98.9782 53.6958 98.9782C54.3492 98.9782 54.9492 98.8649 55.4958 98.6382C56.0425 98.3982 56.5158 98.0515 56.9158 97.5982L57.7158 98.5182C57.2492 99.0782 56.6625 99.5049 55.9558 99.7982C55.2625 100.092 54.4958 100.238 53.6558 100.238C52.5758 100.238 51.6158 100.012 50.7758 99.5582C49.9492 99.0915 49.3025 98.4515 48.8358 97.6382C48.3692 96.8249 48.1358 95.9049 48.1358 94.8782C48.1358 93.8515 48.3558 92.9315 48.7958 92.1182C49.2492 91.3048 49.8625 90.6715 50.6358 90.2182C51.4225 89.7648 52.3025 89.5382 53.2758 89.5382C54.2492 89.5382 55.1225 89.7648 55.8958 90.2182C56.6692 90.6715 57.2758 91.3048 57.7158 92.1182C58.1558 92.9182 58.3758 93.8382 58.3758 94.8782L58.3558 95.3182ZM53.2758 90.7582C52.2625 90.7582 51.4092 91.0848 50.7158 91.7382C50.0358 92.3782 49.6492 93.2182 49.5558 94.2582H57.0158C56.9225 93.2182 56.5292 92.3782 55.8358 91.7382C55.1558 91.0848 54.3025 90.7582 53.2758 90.7582ZM72.4405 100.258C70.6272 100.258 69.2138 99.7382 68.2005 98.6982C67.1872 97.6582 66.6805 96.1449 66.6805 94.1582V86.1382H68.1605V94.0982C68.1605 95.7249 68.5272 96.9382 69.2605 97.7382C69.9938 98.5382 71.0538 98.9382 72.4405 98.9382C73.8405 98.9382 74.9072 98.5382 75.6405 97.7382C76.3738 96.9382 76.7405 95.7249 76.7405 94.0982V86.1382H78.1805V94.1582C78.1805 96.1449 77.6738 97.6582 76.6605 98.6982C75.6605 99.7382 74.2538 100.258 72.4405 100.258ZM87.7604 89.5382C88.747 89.5382 89.6404 89.7648 90.4404 90.2182C91.2404 90.6582 91.867 91.2848 92.3204 92.0982C92.7737 92.9115 93.0004 93.8382 93.0004 94.8782C93.0004 95.9315 92.7737 96.8649 92.3204 97.6782C91.867 98.4915 91.2404 99.1249 90.4404 99.5782C89.6537 100.018 88.7604 100.238 87.7604 100.238C86.907 100.238 86.1337 100.065 85.4404 99.7182C84.7604 99.3582 84.2004 98.8382 83.7604 98.1582V104.018H82.3404V89.6182H83.7004V91.6982C84.127 91.0048 84.687 90.4715 85.3804 90.0982C86.087 89.7248 86.8804 89.5382 87.7604 89.5382ZM87.6604 98.9782C88.3937 98.9782 89.0604 98.8115 89.6604 98.4782C90.2604 98.1315 90.727 97.6449 91.0604 97.0182C91.407 96.3915 91.5804 95.6782 91.5804 94.8782C91.5804 94.0782 91.407 93.3715 91.0604 92.7582C90.727 92.1315 90.2604 91.6448 89.6604 91.2982C89.0604 90.9515 88.3937 90.7782 87.6604 90.7782C86.9137 90.7782 86.2404 90.9515 85.6404 91.2982C85.0537 91.6448 84.587 92.1315 84.2404 92.7582C83.907 93.3715 83.7404 94.0782 83.7404 94.8782C83.7404 95.6782 83.907 96.3915 84.2404 97.0182C84.587 97.6449 85.0537 98.1315 85.6404 98.4782C86.2404 98.8115 86.9137 98.9782 87.6604 98.9782Z" fill="#E67571"/>
<path d="M69.1368 59.5971C76.9065 56.2418 81.4479 49.5861 81.4479 40.5653C81.4479 27.089 63.7746 20.4334 45.2259 20.4334L51.0805 30.4443C59.5615 30.4443 67.3859 33.9647 67.3859 40.5653C67.3859 47.1659 63.118 51.0713 54.6918 51.0713H43.3656V31.2694H47.907L42.1618 22.0836L36.4166 12.8977L30.6714 22.0836L24.981 31.2694H29.5224V78.9039H43.3656V62.1823H56.1144L67.6595 78.9039H82.5423L69.1368 59.5971Z" fill="#E67571"/>
<path d="M105.468 2.06152H2V118.133H105.468V2.06152Z" stroke="#E67571" stroke-width="3.88" stroke-miterlimit="10"/>
</svg>
