<svg width="71" height="44" viewBox="0 0 71 44" fill="none" xmlns="http://www.w3.org/2000/svg">
<path d="M27 4H25V18C25 19.1 25.9 20 27 20H41V18H27V4ZM43 0H31C29.9 0 29 0.9 29 2V14C29 15.1 29.9 16 31 16H43C44.1 16 45 15.1 45 14V2C45 0.9 44.1 0 43 0ZM43 14H31V2H43V14ZM36.51 8.16C36.92 7.43 37.69 7 38.14 6.36C38.62 5.68 38.35 4.42 37 4.42C36.12 4.42 35.68 5.09 35.5 5.65L34.13 5.08C34.51 3.96 35.52 3 36.99 3C38.22 3 39.07 3.56 39.5 4.26C39.87 4.86 40.08 5.99 39.51 6.83C38.88 7.76 38.28 8.04 37.95 8.64C37.82 8.88 37.77 9.04 37.77 9.82H36.25C36.26 9.41 36.19 8.74 36.51 8.16ZM35.95 11.95C35.95 11.36 36.42 10.91 37 10.91C37.59 10.91 38.04 11.36 38.04 11.95C38.04 12.53 37.6 13 37 13C36.42 13 35.95 12.53 35.95 11.95Z" fill="#26325B"/>
<path d="M3.13 42.12C2.57667 42.12 2.04 42.0467 1.52 41.9C1.00667 41.7467 0.593333 41.55 0.28 41.31L0.83 40.09C1.13 40.31 1.48667 40.4867 1.9 40.62C2.31333 40.7533 2.72667 40.82 3.14 40.82C3.6 40.82 3.94 40.7533 4.16 40.62C4.38 40.48 4.49 40.2967 4.49 40.07C4.49 39.9033 4.42333 39.7667 4.29 39.66C4.16333 39.5467 3.99667 39.4567 3.79 39.39C3.59 39.3233 3.31667 39.25 2.97 39.17C2.43667 39.0433 2 38.9167 1.66 38.79C1.32 38.6633 1.02667 38.46 0.78 38.18C0.54 37.9 0.42 37.5267 0.42 37.06C0.42 36.6533 0.53 36.2867 0.75 35.96C0.97 35.6267 1.3 35.3633 1.74 35.17C2.18667 34.9767 2.73 34.88 3.37 34.88C3.81667 34.88 4.25333 34.9333 4.68 35.04C5.10667 35.1467 5.48 35.3 5.8 35.5L5.3 36.73C4.65333 36.3633 4.00667 36.18 3.36 36.18C2.90667 36.18 2.57 36.2533 2.35 36.4C2.13667 36.5467 2.03 36.74 2.03 36.98C2.03 37.22 2.15333 37.4 2.4 37.52C2.65333 37.6333 3.03667 37.7467 3.55 37.86C4.08333 37.9867 4.52 38.1133 4.86 38.24C5.2 38.3667 5.49 38.5667 5.73 38.84C5.97667 39.1133 6.1 39.4833 6.1 39.95C6.1 40.35 5.98667 40.7167 5.76 41.05C5.54 41.3767 5.20667 41.6367 4.76 41.83C4.31333 42.0233 3.77 42.12 3.13 42.12ZM12.367 39.33C12.367 39.35 12.357 39.49 12.337 39.75H8.26695C8.34029 40.0833 8.51362 40.3467 8.78695 40.54C9.06029 40.7333 9.40029 40.83 9.80695 40.83C10.087 40.83 10.3336 40.79 10.547 40.71C10.767 40.6233 10.9703 40.49 11.157 40.31L11.987 41.21C11.4803 41.79 10.7403 42.08 9.76695 42.08C9.16029 42.08 8.62362 41.9633 8.15695 41.73C7.69029 41.49 7.33029 41.16 7.07695 40.74C6.82362 40.32 6.69695 39.8433 6.69695 39.31C6.69695 38.7833 6.82029 38.31 7.06695 37.89C7.32029 37.4633 7.66362 37.1333 8.09695 36.9C8.53695 36.66 9.02695 36.54 9.56695 36.54C10.0936 36.54 10.5703 36.6533 10.997 36.88C11.4236 37.1067 11.757 37.4333 11.997 37.86C12.2436 38.28 12.367 38.77 12.367 39.33ZM9.57695 37.72C9.22362 37.72 8.92695 37.82 8.68695 38.02C8.44695 38.22 8.30029 38.4933 8.24695 38.84H10.897C10.8436 38.5 10.697 38.23 10.457 38.03C10.217 37.8233 9.92362 37.72 9.57695 37.72ZM13.4055 34.58H14.9655V42H13.4055V34.58ZM18.1234 36.74H19.5034V37.94H18.1634V42H16.6034V37.94H15.7734V36.74H16.6034V36.5C16.6034 35.8867 16.7834 35.4 17.1434 35.04C17.51 34.68 18.0234 34.5 18.6834 34.5C18.9167 34.5 19.1367 34.5267 19.3434 34.58C19.5567 34.6267 19.7334 34.6967 19.8734 34.79L19.4634 35.92C19.2834 35.7933 19.0734 35.73 18.8334 35.73C18.36 35.73 18.1234 35.99 18.1234 36.51V36.74ZM19.9829 38.56H22.8129V39.81H19.9829V38.56ZM27.5394 42.12C26.826 42.12 26.1794 41.9667 25.5994 41.66C25.026 41.3467 24.5727 40.9167 24.2394 40.37C23.9127 39.8167 23.7494 39.1933 23.7494 38.5C23.7494 37.8067 23.9127 37.1867 24.2394 36.64C24.5727 36.0867 25.026 35.6567 25.5994 35.35C26.1794 35.0367 26.8294 34.88 27.5494 34.88C28.156 34.88 28.7027 34.9867 29.1894 35.2C29.6827 35.4133 30.096 35.72 30.4294 36.12L29.3894 37.08C28.916 36.5333 28.3294 36.26 27.6294 36.26C27.196 36.26 26.8094 36.3567 26.4694 36.55C26.1294 36.7367 25.8627 37 25.6694 37.34C25.4827 37.68 25.3894 38.0667 25.3894 38.5C25.3894 38.9333 25.4827 39.32 25.6694 39.66C25.8627 40 26.1294 40.2667 26.4694 40.46C26.8094 40.6467 27.196 40.74 27.6294 40.74C28.3294 40.74 28.916 40.4633 29.3894 39.91L30.4294 40.87C30.096 41.2767 29.6827 41.5867 29.1894 41.8C28.696 42.0133 28.146 42.12 27.5394 42.12ZM34.6834 36.54C35.35 36.54 35.8867 36.74 36.2934 37.14C36.7067 37.54 36.9134 38.1333 36.9134 38.92V42H35.3534V39.16C35.3534 38.7333 35.26 38.4167 35.0734 38.21C34.8867 37.9967 34.6167 37.89 34.2634 37.89C33.87 37.89 33.5567 38.0133 33.3234 38.26C33.09 38.5 32.9734 38.86 32.9734 39.34V42H31.4134V34.58H32.9734V37.18C33.18 36.9733 33.43 36.8167 33.7234 36.71C34.0167 36.5967 34.3367 36.54 34.6834 36.54ZM43.656 39.33C43.656 39.35 43.646 39.49 43.626 39.75H39.556C39.6293 40.0833 39.8027 40.3467 40.076 40.54C40.3493 40.7333 40.6893 40.83 41.096 40.83C41.376 40.83 41.6227 40.79 41.836 40.71C42.056 40.6233 42.2593 40.49 42.446 40.31L43.276 41.21C42.7693 41.79 42.0293 42.08 41.056 42.08C40.4493 42.08 39.9127 41.9633 39.446 41.73C38.9793 41.49 38.6193 41.16 38.366 40.74C38.1127 40.32 37.986 39.8433 37.986 39.31C37.986 38.7833 38.1093 38.31 38.356 37.89C38.6093 37.4633 38.9527 37.1333 39.386 36.9C39.826 36.66 40.316 36.54 40.856 36.54C41.3827 36.54 41.8593 36.6533 42.286 36.88C42.7127 37.1067 43.046 37.4333 43.286 37.86C43.5327 38.28 43.656 38.77 43.656 39.33ZM40.866 37.72C40.5127 37.72 40.216 37.82 39.976 38.02C39.736 38.22 39.5893 38.4933 39.536 38.84H42.186C42.1327 38.5 41.986 38.23 41.746 38.03C41.506 37.8233 41.2127 37.72 40.866 37.72ZM47.2946 42.08C46.7213 42.08 46.2046 41.9633 45.7446 41.73C45.2913 41.49 44.9346 41.16 44.6746 40.74C44.4213 40.32 44.2946 39.8433 44.2946 39.31C44.2946 38.7767 44.4213 38.3 44.6746 37.88C44.9346 37.46 45.2913 37.1333 45.7446 36.9C46.2046 36.66 46.7213 36.54 47.2946 36.54C47.8613 36.54 48.3546 36.66 48.7746 36.9C49.2013 37.1333 49.5113 37.47 49.7046 37.91L48.4946 38.56C48.2146 38.0667 47.8113 37.82 47.2846 37.82C46.8779 37.82 46.5413 37.9533 46.2746 38.22C46.0079 38.4867 45.8746 38.85 45.8746 39.31C45.8746 39.77 46.0079 40.1333 46.2746 40.4C46.5413 40.6667 46.8779 40.8 47.2846 40.8C47.8179 40.8 48.2213 40.5533 48.4946 40.06L49.7046 40.72C49.5113 41.1467 49.2013 41.48 48.7746 41.72C48.3546 41.96 47.8613 42.08 47.2946 42.08ZM52.8738 39.89L52.1238 40.63V42H50.5638V34.58H52.1238V38.78L54.4038 36.62H56.2638L54.0238 38.9L56.4638 42H54.5738L52.8738 39.89ZM62.4877 36.62V42H61.0077V41.36C60.801 41.5933 60.5543 41.7733 60.2677 41.9C59.981 42.02 59.671 42.08 59.3377 42.08C58.631 42.08 58.071 41.8767 57.6577 41.47C57.2443 41.0633 57.0377 40.46 57.0377 39.66V36.62H58.5977V39.43C58.5977 40.2967 58.961 40.73 59.6877 40.73C60.061 40.73 60.361 40.61 60.5877 40.37C60.8143 40.1233 60.9277 39.76 60.9277 39.28V36.62H62.4877ZM67.1129 36.54C67.6129 36.54 68.0662 36.6567 68.4729 36.89C68.8862 37.1167 69.2096 37.44 69.4429 37.86C69.6762 38.2733 69.7929 38.7567 69.7929 39.31C69.7929 39.8633 69.6762 40.35 69.4429 40.77C69.2096 41.1833 68.8862 41.5067 68.4729 41.74C68.0662 41.9667 67.6129 42.08 67.1129 42.08C66.4262 42.08 65.8862 41.8633 65.4929 41.43V43.94H63.9329V36.62H65.4229V37.24C65.8096 36.7733 66.3729 36.54 67.1129 36.54ZM66.8429 40.8C67.2429 40.8 67.5696 40.6667 67.8229 40.4C68.0829 40.1267 68.2129 39.7633 68.2129 39.31C68.2129 38.8567 68.0829 38.4967 67.8229 38.23C67.5696 37.9567 67.2429 37.82 66.8429 37.82C66.4429 37.82 66.1129 37.9567 65.8529 38.23C65.5996 38.4967 65.4729 38.8567 65.4729 39.31C65.4729 39.7633 65.5996 40.1267 65.8529 40.4C66.1129 40.6667 66.4429 40.8 66.8429 40.8Z" fill="#26325B"/>
</svg>
