<svg width="51" height="50" viewBox="0 0 51 50" fill="none" xmlns="http://www.w3.org/2000/svg">
<path d="M35 10.7732C35.0012 10.1984 34.8288 9.63472 34.5022 9.14635C34.1757 8.65799 33.7081 8.26451 33.1527 8.01065C32.5973 7.75679 31.9763 7.65273 31.3604 7.7103C30.7445 7.76788 30.1583 7.98478 29.6686 8.33635C29.1788 8.68791 28.8051 9.16003 28.5899 9.69904C28.3747 10.238 28.3266 10.8223 28.4513 11.3854C28.5759 11.9485 28.8681 12.4678 29.2947 12.8843C29.7214 13.3009 30.2653 13.5979 30.8647 13.7416V14.6134C30.8647 15.6346 30.4278 16.614 29.6502 17.3361C28.8726 18.0583 27.818 18.4639 26.7182 18.4639C25.6185 18.4639 24.5639 18.0583 23.7862 17.3361C23.0086 16.614 22.5718 15.6346 22.5718 14.6134C22.6134 13.6966 22.8547 12.7972 23.2811 11.9695C23.7076 11.1417 24.3103 10.4029 25.0529 9.79761H24.9412C25.7316 9.31879 26.3833 8.66717 26.8393 7.89992C27.2953 7.13267 27.5415 6.27322 27.5565 5.39699V2.3041C27.5565 1.69301 27.2951 1.10696 26.8298 0.674855C26.3644 0.242753 25.7333 0 25.0753 0H23.8235C23.6042 3.03529e-09 23.3938 0.0809176 23.2387 0.224952C23.0836 0.368986 22.9965 0.564338 22.9965 0.768033C22.9965 0.971728 23.0836 1.16708 23.2387 1.31111C23.3938 1.45515 23.6042 1.53607 23.8235 1.53607H25.0529C25.2723 1.53607 25.4827 1.61698 25.6378 1.76102C25.7929 1.90505 25.88 2.1004 25.88 2.3041V5.39699C25.88 6.41188 25.4474 7.38551 24.6767 8.10509C23.906 8.82466 22.8599 9.23167 21.7671 9.23716V9.79761V9.23716C21.224 9.23989 20.6857 9.14327 20.1829 8.9528C19.68 8.76233 19.2225 8.48176 18.8364 8.12709C18.4503 7.77243 18.1433 7.35062 17.9327 6.88575C17.7222 6.42087 17.6124 5.92205 17.6094 5.41775V2.3041C17.6094 2.1004 17.6966 1.90505 17.8517 1.76102C18.0068 1.61698 18.2171 1.53607 18.4365 1.53607H19.5988C19.8182 1.53607 20.0286 1.45515 20.1837 1.31111C20.3388 1.16708 20.4259 0.971728 20.4259 0.768033C20.4259 0.564338 20.3388 0.368986 20.1837 0.224952C20.0286 0.0809176 19.8182 0 19.5988 0H18.4365C17.7862 0.0108822 17.1665 0.258431 16.7109 0.689359C16.2552 1.12029 15.9999 1.70014 16 2.3041V5.39699C15.9976 6.26022 16.2199 7.1112 16.6481 7.87743C17.0762 8.64366 17.6974 9.30243 18.4588 9.79761C19.1974 10.4047 19.796 11.1444 20.2185 11.972C20.6411 12.7997 20.8789 13.6981 20.9177 14.6134C20.9177 15.3208 21.0677 16.0212 21.3592 16.6748C21.6507 17.3283 22.078 17.9221 22.6166 18.4223C23.1552 18.9225 23.7947 19.3193 24.4985 19.59C25.2022 19.8607 25.9565 20 26.7182 20C27.48 20 28.2343 19.8607 28.938 19.59C29.6418 19.3193 30.2812 18.9225 30.8199 18.4223C31.3585 17.9221 31.7858 17.3283 32.0773 16.6748C32.3688 16.0212 32.5188 15.3208 32.5188 14.6134V13.7416C33.2278 13.5716 33.8561 13.1879 34.3051 12.6507C34.7541 12.1136 34.9985 11.4532 35 10.7732ZM31.6471 12.3093C31.3199 12.3093 31.0001 12.2192 30.7281 12.0504C30.4561 11.8816 30.244 11.6417 30.1189 11.3611C29.9937 11.0804 29.9609 10.7715 30.0247 10.4736C30.0885 10.1756 30.2461 9.90188 30.4774 9.68706C30.7088 9.47224 31.0035 9.32594 31.3244 9.26667C31.6452 9.2074 31.9778 9.23782 32.2801 9.35408C32.5823 9.47035 32.8406 9.66723 33.0224 9.91983C33.2042 10.1724 33.3012 10.4694 33.3012 10.7732C33.3012 10.9749 33.2584 11.1747 33.1753 11.3611C33.0921 11.5474 32.9703 11.7168 32.8167 11.8594C32.6631 12.002 32.4807 12.1152 32.2801 12.1924C32.0794 12.2696 31.8643 12.3093 31.6471 12.3093Z" fill="#26325B"/>
<path d="M13.249 34.7V36H7.82902V29H13.119V30.3H9.43902V31.82H12.689V33.08H9.43902V34.7H13.249ZM16.5589 30.54C17.3923 30.54 18.0323 30.74 18.4789 31.14C18.9256 31.5333 19.1489 32.13 19.1489 32.93V36H17.6889V35.33C17.3956 35.83 16.8489 36.08 16.0489 36.08C15.6356 36.08 15.2756 36.01 14.9689 35.87C14.6689 35.73 14.4389 35.5367 14.2789 35.29C14.1189 35.0433 14.0389 34.7633 14.0389 34.45C14.0389 33.95 14.2256 33.5567 14.5989 33.27C14.9789 32.9833 15.5623 32.84 16.3489 32.84H17.5889C17.5889 32.5 17.4856 32.24 17.2789 32.06C17.0723 31.8733 16.7623 31.78 16.3489 31.78C16.0623 31.78 15.7789 31.8267 15.4989 31.92C15.2256 32.0067 14.9923 32.1267 14.7989 32.28L14.2389 31.19C14.5323 30.9833 14.8823 30.8233 15.2889 30.71C15.7023 30.5967 16.1256 30.54 16.5589 30.54ZM16.4389 35.03C16.7056 35.03 16.9423 34.97 17.1489 34.85C17.3556 34.7233 17.5023 34.54 17.5889 34.3V33.75H16.5189C15.8789 33.75 15.5589 33.96 15.5589 34.38C15.5589 34.58 15.6356 34.74 15.7889 34.86C15.9489 34.9733 16.1656 35.03 16.4389 35.03ZM24.0308 35.74C23.8775 35.8533 23.6875 35.94 23.4608 36C23.2408 36.0533 23.0075 36.08 22.7608 36.08C22.1208 36.08 21.6242 35.9167 21.2708 35.59C20.9242 35.2633 20.7508 34.7833 20.7508 34.15V31.94H19.9208V30.74H20.7508V29.43H22.3108V30.74H23.6508V31.94H22.3108V34.13C22.3108 34.3567 22.3675 34.5333 22.4808 34.66C22.6008 34.78 22.7675 34.84 22.9808 34.84C23.2275 34.84 23.4375 34.7733 23.6108 34.64L24.0308 35.74ZM24.9065 30.62H26.4665V36H24.9065V30.62ZM25.6865 29.87C25.3999 29.87 25.1665 29.7867 24.9865 29.62C24.8065 29.4533 24.7165 29.2467 24.7165 29C24.7165 28.7533 24.8065 28.5467 24.9865 28.38C25.1665 28.2133 25.3999 28.13 25.6865 28.13C25.9732 28.13 26.2065 28.21 26.3865 28.37C26.5665 28.53 26.6565 28.73 26.6565 28.97C26.6565 29.23 26.5665 29.4467 26.3865 29.62C26.2065 29.7867 25.9732 29.87 25.6865 29.87ZM31.1843 30.54C31.851 30.54 32.3877 30.74 32.7943 31.14C33.2077 31.54 33.4143 32.1333 33.4143 32.92V36H31.8543V33.16C31.8543 32.7333 31.761 32.4167 31.5743 32.21C31.3877 31.9967 31.1177 31.89 30.7643 31.89C30.371 31.89 30.0577 32.0133 29.8243 32.26C29.591 32.5 29.4743 32.86 29.4743 33.34V36H27.9143V30.62H29.4043V31.25C29.611 31.0233 29.8677 30.85 30.1743 30.73C30.481 30.6033 30.8177 30.54 31.1843 30.54ZM40.437 30.62V35.1C40.437 36.0867 40.1803 36.82 39.667 37.3C39.1537 37.78 38.4037 38.02 37.417 38.02C36.897 38.02 36.4037 37.9567 35.937 37.83C35.4703 37.7033 35.0837 37.52 34.777 37.28L35.397 36.16C35.6237 36.3467 35.9103 36.4933 36.257 36.6C36.6037 36.7133 36.9503 36.77 37.297 36.77C37.837 36.77 38.2337 36.6467 38.487 36.4C38.747 36.16 38.877 35.7933 38.877 35.3V35.07C38.4703 35.5167 37.9037 35.74 37.177 35.74C36.6837 35.74 36.2303 35.6333 35.817 35.42C35.4103 35.2 35.087 34.8933 34.847 34.5C34.607 34.1067 34.487 33.6533 34.487 33.14C34.487 32.6267 34.607 32.1733 34.847 31.78C35.087 31.3867 35.4103 31.0833 35.817 30.87C36.2303 30.65 36.6837 30.54 37.177 30.54C37.957 30.54 38.5503 30.7967 38.957 31.31V30.62H40.437ZM37.487 34.46C37.9003 34.46 38.237 34.34 38.497 34.1C38.7637 33.8533 38.897 33.5333 38.897 33.14C38.897 32.7467 38.7637 32.43 38.497 32.19C38.237 31.9433 37.9003 31.82 37.487 31.82C37.0737 31.82 36.7337 31.9433 36.467 32.19C36.2003 32.43 36.067 32.7467 36.067 33.14C36.067 33.5333 36.2003 33.8533 36.467 34.1C36.7337 34.34 37.0737 34.46 37.487 34.46ZM1.23723 41H4.41723C5.17723 41 5.84723 41.1467 6.42723 41.44C7.01389 41.7267 7.46723 42.1333 7.78723 42.66C8.11389 43.1867 8.27723 43.8 8.27723 44.5C8.27723 45.2 8.11389 45.8133 7.78723 46.34C7.46723 46.8667 7.01389 47.2767 6.42723 47.57C5.84723 47.8567 5.17723 48 4.41723 48H1.23723V41ZM4.33723 46.67C5.03723 46.67 5.59389 46.4767 6.00723 46.09C6.42723 45.6967 6.63723 45.1667 6.63723 44.5C6.63723 43.8333 6.42723 43.3067 6.00723 42.92C5.59389 42.5267 5.03723 42.33 4.33723 42.33H2.85723V46.67H4.33723ZM9.38895 42.62H10.9489V48H9.38895V42.62ZM10.1689 41.87C9.88228 41.87 9.64895 41.7867 9.46895 41.62C9.28895 41.4533 9.19895 41.2467 9.19895 41C9.19895 40.7533 9.28895 40.5467 9.46895 40.38C9.64895 40.2133 9.88228 40.13 10.1689 40.13C10.4556 40.13 10.6889 40.21 10.8689 40.37C11.0489 40.53 11.1389 40.73 11.1389 40.97C11.1389 41.23 11.0489 41.4467 10.8689 41.62C10.6889 41.7867 10.4556 41.87 10.1689 41.87ZM14.2068 48.08C13.7601 48.08 13.3234 48.0267 12.8968 47.92C12.4701 47.8067 12.1301 47.6667 11.8768 47.5L12.3968 46.38C12.6368 46.5333 12.9268 46.66 13.2668 46.76C13.6068 46.8533 13.9401 46.9 14.2668 46.9C14.9268 46.9 15.2568 46.7367 15.2568 46.41C15.2568 46.2567 15.1668 46.1467 14.9868 46.08C14.8068 46.0133 14.5301 45.9567 14.1568 45.91C13.7168 45.8433 13.3534 45.7667 13.0668 45.68C12.7801 45.5933 12.5301 45.44 12.3168 45.22C12.1101 45 12.0068 44.6867 12.0068 44.28C12.0068 43.94 12.1034 43.64 12.2968 43.38C12.4968 43.1133 12.7834 42.9067 13.1568 42.76C13.5368 42.6133 13.9834 42.54 14.4968 42.54C14.8768 42.54 15.2534 42.5833 15.6268 42.67C16.0068 42.75 16.3201 42.8633 16.5668 43.01L16.0468 44.12C15.5734 43.8533 15.0568 43.72 14.4968 43.72C14.1634 43.72 13.9134 43.7667 13.7468 43.86C13.5801 43.9533 13.4968 44.0733 13.4968 44.22C13.4968 44.3867 13.5868 44.5033 13.7668 44.57C13.9468 44.6367 14.2334 44.7 14.6268 44.76C15.0668 44.8333 15.4268 44.9133 15.7068 45C15.9868 45.08 16.2301 45.23 16.4368 45.45C16.6434 45.67 16.7468 45.9767 16.7468 46.37C16.7468 46.7033 16.6468 47 16.4468 47.26C16.2468 47.52 15.9534 47.7233 15.5668 47.87C15.1868 48.01 14.7334 48.08 14.2068 48.08ZM20.2693 48.08C19.7026 48.08 19.1926 47.9633 18.7393 47.73C18.2926 47.49 17.9426 47.16 17.6893 46.74C17.4359 46.32 17.3093 45.8433 17.3093 45.31C17.3093 44.7767 17.4359 44.3 17.6893 43.88C17.9426 43.46 18.2926 43.1333 18.7393 42.9C19.1926 42.66 19.7026 42.54 20.2693 42.54C20.8359 42.54 21.3426 42.66 21.7893 42.9C22.2359 43.1333 22.5859 43.46 22.8393 43.88C23.0926 44.3 23.2193 44.7767 23.2193 45.31C23.2193 45.8433 23.0926 46.32 22.8393 46.74C22.5859 47.16 22.2359 47.49 21.7893 47.73C21.3426 47.9633 20.8359 48.08 20.2693 48.08ZM20.2693 46.8C20.6693 46.8 20.9959 46.6667 21.2493 46.4C21.5093 46.1267 21.6393 45.7633 21.6393 45.31C21.6393 44.8567 21.5093 44.4967 21.2493 44.23C20.9959 43.9567 20.6693 43.82 20.2693 43.82C19.8693 43.82 19.5393 43.9567 19.2793 44.23C19.0193 44.4967 18.8893 44.8567 18.8893 45.31C18.8893 45.7633 19.0193 46.1267 19.2793 46.4C19.5393 46.6667 19.8693 46.8 20.2693 46.8ZM25.752 43.33C25.9387 43.07 26.1887 42.8733 26.502 42.74C26.822 42.6067 27.1887 42.54 27.602 42.54V43.98C27.4287 43.9667 27.312 43.96 27.252 43.96C26.8053 43.96 26.4553 44.0867 26.202 44.34C25.9487 44.5867 25.822 44.96 25.822 45.46V48H24.262V42.62H25.752V43.33ZM33.9607 40.58V48H32.4707V47.38C32.0841 47.8467 31.5241 48.08 30.7907 48.08C30.2841 48.08 29.8241 47.9667 29.4107 47.74C29.0041 47.5133 28.6841 47.19 28.4507 46.77C28.2174 46.35 28.1007 45.8633 28.1007 45.31C28.1007 44.7567 28.2174 44.27 28.4507 43.85C28.6841 43.43 29.0041 43.1067 29.4107 42.88C29.8241 42.6533 30.2841 42.54 30.7907 42.54C31.4774 42.54 32.0141 42.7567 32.4007 43.19V40.58H33.9607ZM31.0607 46.8C31.4541 46.8 31.7807 46.6667 32.0407 46.4C32.3007 46.1267 32.4307 45.7633 32.4307 45.31C32.4307 44.8567 32.3007 44.4967 32.0407 44.23C31.7807 43.9567 31.4541 43.82 31.0607 43.82C30.6607 43.82 30.3307 43.9567 30.0707 44.23C29.8107 44.4967 29.6807 44.8567 29.6807 45.31C29.6807 45.7633 29.8107 46.1267 30.0707 46.4C30.3307 46.6667 30.6607 46.8 31.0607 46.8ZM40.6746 45.33C40.6746 45.35 40.6646 45.49 40.6446 45.75H36.5746C36.6479 46.0833 36.8212 46.3467 37.0946 46.54C37.3679 46.7333 37.7079 46.83 38.1146 46.83C38.3946 46.83 38.6412 46.79 38.8546 46.71C39.0746 46.6233 39.2779 46.49 39.4646 46.31L40.2946 47.21C39.7879 47.79 39.0479 48.08 38.0746 48.08C37.4679 48.08 36.9312 47.9633 36.4646 47.73C35.9979 47.49 35.6379 47.16 35.3846 46.74C35.1312 46.32 35.0046 45.8433 35.0046 45.31C35.0046 44.7833 35.1279 44.31 35.3746 43.89C35.6279 43.4633 35.9712 43.1333 36.4046 42.9C36.8446 42.66 37.3346 42.54 37.8746 42.54C38.4012 42.54 38.8779 42.6533 39.3046 42.88C39.7312 43.1067 40.0646 43.4333 40.3046 43.86C40.5512 44.28 40.6746 44.77 40.6746 45.33ZM37.8846 43.72C37.5312 43.72 37.2346 43.82 36.9946 44.02C36.7546 44.22 36.6079 44.4933 36.5546 44.84H39.2046C39.1512 44.5 39.0046 44.23 38.7646 44.03C38.5246 43.8233 38.2312 43.72 37.8846 43.72ZM43.2032 43.33C43.3898 43.07 43.6398 42.8733 43.9532 42.74C44.2732 42.6067 44.6398 42.54 45.0532 42.54V43.98C44.8798 43.9667 44.7632 43.96 44.7032 43.96C44.2565 43.96 43.9065 44.0867 43.6532 44.34C43.3998 44.5867 43.2732 44.96 43.2732 45.46V48H41.7132V42.62H43.2032V43.33ZM47.8103 48.08C47.3636 48.08 46.9269 48.0267 46.5003 47.92C46.0736 47.8067 45.7336 47.6667 45.4803 47.5L46.0003 46.38C46.2403 46.5333 46.5303 46.66 46.8703 46.76C47.2103 46.8533 47.5436 46.9 47.8703 46.9C48.5303 46.9 48.8603 46.7367 48.8603 46.41C48.8603 46.2567 48.7703 46.1467 48.5903 46.08C48.4103 46.0133 48.1336 45.9567 47.7603 45.91C47.3203 45.8433 46.9569 45.7667 46.6703 45.68C46.3836 45.5933 46.1336 45.44 45.9203 45.22C45.7136 45 45.6103 44.6867 45.6103 44.28C45.6103 43.94 45.7069 43.64 45.9003 43.38C46.1003 43.1133 46.3869 42.9067 46.7603 42.76C47.1403 42.6133 47.5869 42.54 48.1003 42.54C48.4803 42.54 48.8569 42.5833 49.2303 42.67C49.6103 42.75 49.9236 42.8633 50.1703 43.01L49.6503 44.12C49.1769 43.8533 48.6603 43.72 48.1003 43.72C47.7669 43.72 47.5169 43.7667 47.3503 43.86C47.1836 43.9533 47.1003 44.0733 47.1003 44.22C47.1003 44.3867 47.1903 44.5033 47.3703 44.57C47.5503 44.6367 47.8369 44.7 48.2303 44.76C48.6703 44.8333 49.0303 44.9133 49.3103 45C49.5903 45.08 49.8336 45.23 50.0403 45.45C50.2469 45.67 50.3503 45.9767 50.3503 46.37C50.3503 46.7033 50.2503 47 50.0503 47.26C49.8503 47.52 49.5569 47.7233 49.1703 47.87C48.7903 48.01 48.3369 48.08 47.8103 48.08Z" fill="#26325B"/>
</svg>
