<svg width="60" height="64" viewBox="0 0 46 50" fill="none" xmlns="http://www.w3.org/2000/svg">
<path d="M13.9998 11.0002H14.9998V18.0002C14.9998 19.1032 15.8968 20.0002 16.9998 20.0002H28.9998C30.1028 20.0002 30.9998 19.1032 30.9998 18.0002V11.0002H31.9998C32.1975 11.0002 32.3908 10.9415 32.5552 10.8316C32.7197 10.7217 32.8478 10.5656 32.9235 10.3829C32.9991 10.2002 33.0189 9.99912 32.9804 9.80517C32.9418 9.61122 32.8466 9.43305 32.7068 9.2932L23.7068 0.293201C23.614 0.200255 23.5038 0.126518 23.3825 0.0762068C23.2612 0.0258961 23.1311 0 22.9998 0C22.8685 0 22.7384 0.0258961 22.6171 0.0762068C22.4958 0.126518 22.3856 0.200255 22.2928 0.293201L13.2928 9.2932C13.153 9.43305 13.0578 9.61122 13.0192 9.80517C12.9806 9.99912 13.0004 10.2002 13.0761 10.3829C13.1518 10.5656 13.2799 10.7217 13.4443 10.8316C13.6087 10.9415 13.802 11.0002 13.9998 11.0002ZM20.9998 18.0002V13.0002H24.9998V18.0002H20.9998ZM22.9998 2.4142L28.9998 8.4142V13.0002L29.0008 18.0002H26.9998V13.0002C26.9998 11.8972 26.1028 11.0002 24.9998 11.0002H20.9998C19.8968 11.0002 18.9998 11.8972 18.9998 13.0002V18.0002H16.9998V8.4142L22.9998 2.4142Z" fill="#E67571"/>
<path d="M10.15 37.2V47H7.882V42.982H3.43V47H1.162V37.2H3.43V41.064H7.882V37.2H10.15ZM17.2146 47.168C16.1973 47.168 15.278 46.9487 14.4566 46.51C13.6446 46.0713 13.0053 45.4693 12.5386 44.704C12.0813 43.9293 11.8526 43.0613 11.8526 42.1C11.8526 41.1387 12.0813 40.2753 12.5386 39.51C13.0053 38.7353 13.6446 38.1287 14.4566 37.69C15.278 37.2513 16.1973 37.032 17.2146 37.032C18.232 37.032 19.1466 37.2513 19.9586 37.69C20.7706 38.1287 21.41 38.7353 21.8766 39.51C22.3433 40.2753 22.5766 41.1387 22.5766 42.1C22.5766 43.0613 22.3433 43.9293 21.8766 44.704C21.41 45.4693 20.7706 46.0713 19.9586 46.51C19.1466 46.9487 18.232 47.168 17.2146 47.168ZM17.2146 45.236C17.7933 45.236 18.316 45.1053 18.7826 44.844C19.2493 44.5733 19.6133 44.2 19.8746 43.724C20.1453 43.248 20.2806 42.7067 20.2806 42.1C20.2806 41.4933 20.1453 40.952 19.8746 40.476C19.6133 40 19.2493 39.6313 18.7826 39.37C18.316 39.0993 17.7933 38.964 17.2146 38.964C16.636 38.964 16.1133 39.0993 15.6466 39.37C15.18 39.6313 14.8113 40 14.5406 40.476C14.2793 40.952 14.1486 41.4933 14.1486 42.1C14.1486 42.7067 14.2793 43.248 14.5406 43.724C14.8113 44.2 15.18 44.5733 15.6466 44.844C16.1133 45.1053 16.636 45.236 17.2146 45.236ZM33.1991 47L33.1851 41.12L30.3011 45.964H29.2791L26.4091 41.246V47H24.2811V37.2H26.1571L29.8251 43.29L33.4371 37.2H35.2991L35.3271 47H33.1991ZM45.2402 45.18V47H37.6522V37.2H45.0582V39.02H39.9062V41.148H44.4562V42.912H39.9062V45.18H45.2402Z" fill="#26325B"/>
</svg>
