<svg width="44" height="45" viewBox="0 0 44 45" fill="none" xmlns="http://www.w3.org/2000/svg">
<path d="M22.2308 0C20.6154 0 19.6485 0.246154 19.0338 0.553077C18.7262 0.706923 18.5077 0.868462 18.3608 1.03385C18.2131 1.19923 18.12 1.44231 18.12 1.44231C18.0959 1.50409 18.0798 1.56872 18.0723 1.63462L17.6631 6.89923C17.6577 6.93154 17.6685 6.98385 17.6631 7.01923L17.6154 7.54846C17.6109 7.59631 17.6109 7.64446 17.6154 7.69231C17.6154 10.2308 19.6923 12.3077 22.2308 12.3077C24.7692 12.3077 26.8462 10.2308 26.8462 7.69231V7.57231C26.8463 7.56436 26.8463 7.55641 26.8462 7.54846L26.3892 1.63462C26.3817 1.56872 26.3657 1.50409 26.3415 1.44231C26.3415 1.44231 26.2485 1.19923 26.1008 1.03385C25.9538 0.867692 25.7354 0.706154 25.4277 0.553077C24.8131 0.245385 23.8462 0 22.2308 0ZM22.2308 12.3077C17.1538 12.3077 13 14.6969 13 16.8508V20H31.4615V16.8508C31.4615 14.8046 27.7062 12.5508 22.9762 12.3315C22.728 12.3152 22.4794 12.3072 22.2308 12.3077ZM22.2308 1.53846C23.6923 1.53846 24.4223 1.76923 24.7308 1.92308C24.8338 1.97462 24.8462 1.99462 24.8754 2.01923L25.1877 5.96154C24.48 6.00462 23.5154 6.15385 22.2308 6.15385C20.9462 6.15385 19.9823 6.00462 19.2738 5.96154L19.5862 2.01923C19.6146 1.99462 19.6277 1.97462 19.7308 1.92308C20.0392 1.76923 20.7692 1.53846 22.2308 1.53846ZM21.6054 2.30769V3.22154H20.6923V4.47154H21.6062V5.38462H22.8554V4.47077H23.7692V3.22154H22.8554V2.30769H21.6062H21.6054ZM19.9231 14.0385L21.8946 18.4615H14.5385V16.8508C14.5385 16.2777 16.5 14.5992 19.9231 14.0385ZM24.5385 14.0385C27.9615 14.6 29.9231 16.2777 29.9231 16.8508V18.4615H22.5669L24.5385 14.0385Z" fill="#26325B"/>
<path d="M7.25 36V43H5.63V40.13H2.45V43H0.83V36H2.45V38.76H5.63V36H7.25ZM14.0662 40.33C14.0662 40.35 14.0562 40.49 14.0362 40.75H9.96617C10.0395 41.0833 10.2128 41.3467 10.4862 41.54C10.7595 41.7333 11.0995 41.83 11.5062 41.83C11.7862 41.83 12.0328 41.79 12.2462 41.71C12.4662 41.6233 12.6695 41.49 12.8562 41.31L13.6862 42.21C13.1795 42.79 12.4395 43.08 11.4662 43.08C10.8595 43.08 10.3228 42.9633 9.85617 42.73C9.38951 42.49 9.02951 42.16 8.77617 41.74C8.52284 41.32 8.39617 40.8433 8.39617 40.31C8.39617 39.7833 8.51951 39.31 8.76617 38.89C9.01951 38.4633 9.36284 38.1333 9.79617 37.9C10.2362 37.66 10.7262 37.54 11.2662 37.54C11.7928 37.54 12.2695 37.6533 12.6962 37.88C13.1228 38.1067 13.4562 38.4333 13.6962 38.86C13.9428 39.28 14.0662 39.77 14.0662 40.33ZM11.2762 38.72C10.9228 38.72 10.6262 38.82 10.3862 39.02C10.1462 39.22 9.99951 39.4933 9.94617 39.84H12.5962C12.5428 39.5 12.3962 39.23 12.1562 39.03C11.9162 38.8233 11.6228 38.72 11.2762 38.72ZM15.1048 35.58H16.6648V43H15.1048V35.58ZM21.2926 37.54C21.7926 37.54 22.2459 37.6567 22.6526 37.89C23.0659 38.1167 23.3892 38.44 23.6226 38.86C23.8559 39.2733 23.9726 39.7567 23.9726 40.31C23.9726 40.8633 23.8559 41.35 23.6226 41.77C23.3892 42.1833 23.0659 42.5067 22.6526 42.74C22.2459 42.9667 21.7926 43.08 21.2926 43.08C20.6059 43.08 20.0659 42.8633 19.6726 42.43V44.94H18.1126V37.62H19.6026V38.24C19.9892 37.7733 20.5526 37.54 21.2926 37.54ZM21.0226 41.8C21.4226 41.8 21.7492 41.6667 22.0026 41.4C22.2626 41.1267 22.3926 40.7633 22.3926 40.31C22.3926 39.8567 22.2626 39.4967 22.0026 39.23C21.7492 38.9567 21.4226 38.82 21.0226 38.82C20.6226 38.82 20.2926 38.9567 20.0326 39.23C19.7792 39.4967 19.6526 39.8567 19.6526 40.31C19.6526 40.7633 19.7792 41.1267 20.0326 41.4C20.2926 41.6667 20.6226 41.8 21.0226 41.8ZM25.0169 35.58H26.5769V43H25.0169V35.58ZM28.0247 37.62H29.5847V43H28.0247V37.62ZM28.8047 36.87C28.518 36.87 28.2847 36.7867 28.1047 36.62C27.9247 36.4533 27.8347 36.2467 27.8347 36C27.8347 35.7533 27.9247 35.5467 28.1047 35.38C28.2847 35.2133 28.518 35.13 28.8047 35.13C29.0914 35.13 29.3247 35.21 29.5047 35.37C29.6847 35.53 29.7747 35.73 29.7747 35.97C29.7747 36.23 29.6847 36.4467 29.5047 36.62C29.3247 36.7867 29.0914 36.87 28.8047 36.87ZM34.3025 37.54C34.9692 37.54 35.5058 37.74 35.9125 38.14C36.3258 38.54 36.5325 39.1333 36.5325 39.92V43H34.9725V40.16C34.9725 39.7333 34.8792 39.4167 34.6925 39.21C34.5058 38.9967 34.2358 38.89 33.8825 38.89C33.4892 38.89 33.1758 39.0133 32.9425 39.26C32.7092 39.5 32.5925 39.86 32.5925 40.34V43H31.0325V37.62H32.5225V38.25C32.7292 38.0233 32.9858 37.85 33.2925 37.73C33.5992 37.6033 33.9358 37.54 34.3025 37.54ZM43.2752 40.33C43.2752 40.35 43.2652 40.49 43.2452 40.75H39.1752C39.2485 41.0833 39.4218 41.3467 39.6952 41.54C39.9685 41.7333 40.3085 41.83 40.7152 41.83C40.9952 41.83 41.2418 41.79 41.4552 41.71C41.6752 41.6233 41.8785 41.49 42.0652 41.31L42.8952 42.21C42.3885 42.79 41.6485 43.08 40.6752 43.08C40.0685 43.08 39.5318 42.9633 39.0652 42.73C38.5985 42.49 38.2385 42.16 37.9852 41.74C37.7318 41.32 37.6052 40.8433 37.6052 40.31C37.6052 39.7833 37.7285 39.31 37.9752 38.89C38.2285 38.4633 38.5718 38.1333 39.0052 37.9C39.4452 37.66 39.9352 37.54 40.4752 37.54C41.0018 37.54 41.4785 37.6533 41.9052 37.88C42.3318 38.1067 42.6652 38.4333 42.9052 38.86C43.1518 39.28 43.2752 39.77 43.2752 40.33ZM40.4852 38.72C40.1318 38.72 39.8352 38.82 39.5952 39.02C39.3552 39.22 39.2085 39.4933 39.1552 39.84H41.8052C41.7518 39.5 41.6052 39.23 41.3652 39.03C41.1252 38.8233 40.8318 38.72 40.4852 38.72Z" fill="#26325B"/>
</svg>
