<svg width="38" height="50" viewBox="0 0 38 50" fill="none" xmlns="http://www.w3.org/2000/svg">
<path d="M18.2 0.00131641C18.3872 0.00126068 18.5686 0.0598393 18.7124 0.166851C18.8563 0.273862 18.9535 0.422527 18.9872 0.586954L19 0.715508V5.00066C19.0002 5.82387 18.6818 6.62186 18.0986 7.25958C17.5155 7.89729 16.7035 8.33556 15.8 8.5002V19.2845C15.8004 19.463 15.7259 19.6351 15.5912 19.767C15.4565 19.8989 15.2714 19.981 15.0723 19.9971C14.8732 20.0132 14.6745 19.9622 14.5155 19.8541C14.3564 19.746 14.2484 19.5887 14.2128 19.413L14.2 19.2845V8.5002C13.3427 8.34366 12.5664 7.94055 11.9902 7.35261C11.414 6.76466 11.0695 6.0243 11.0096 5.24491L11 5.00066V0.715508C10.9996 0.537037 11.0741 0.364911 11.2088 0.233024C11.3435 0.101138 11.5286 0.0190485 11.7277 0.0029228C11.9268 -0.0132029 12.1255 0.0378032 12.2845 0.145897C12.4436 0.253991 12.5516 0.411338 12.5872 0.586954L12.6 0.715508V5.00066C12.5997 5.44392 12.7535 5.87635 13.04 6.23834C13.3266 6.60033 13.7319 6.87407 14.2 7.02182V0.715508C14.1996 0.537037 14.2741 0.364911 14.4088 0.233024C14.5435 0.101138 14.7286 0.0190485 14.9277 0.0029228C15.1268 -0.0132029 15.3255 0.0378032 15.4845 0.145897C15.6436 0.253991 15.7516 0.411338 15.7872 0.586954L15.8 0.715508V7.02039C16.6608 6.749 17.296 6.05195 17.3888 5.21349L17.4 5.00066V0.715508C17.4 0.526093 17.4843 0.344435 17.6343 0.210498C17.7843 0.0765615 17.9878 0.00131641 18.2 0.00131641ZM26.2 0.00131641C26.3872 0.00126068 26.5686 0.0598393 26.7124 0.166851C26.8563 0.273862 26.9535 0.422527 26.9872 0.586954L27 0.715508V19.2845C27.0004 19.463 26.9259 19.6351 26.7912 19.767C26.6565 19.8989 26.4714 19.981 26.2723 19.9971C26.0732 20.0132 25.8745 19.9622 25.7155 19.8541C25.5564 19.746 25.4484 19.5887 25.4128 19.413L25.4 19.2845V11.4284H23C22.8128 11.4284 22.6314 11.3699 22.4876 11.2628C22.3437 11.1558 22.2465 11.0072 22.2128 10.8427L22.2 10.7142V3.57228C22.2 2.6252 22.6214 1.71691 23.3716 1.04723C24.1217 0.377541 25.1391 0.00131641 26.2 0.00131641ZM25.4 10V1.55111C24.5392 1.82251 23.904 2.51956 23.8112 3.35945L23.8 3.57228V10H25.4V1.55111V10Z" fill="#26325B"/>
<path d="M6.74902 34.7V36H1.32902V29H6.61902V30.3H2.93902V31.82H6.18902V33.08H2.93902V34.7H6.74902ZM10.0589 30.54C10.8923 30.54 11.5323 30.74 11.9789 31.14C12.4256 31.5333 12.6489 32.13 12.6489 32.93V36H11.1889V35.33C10.8956 35.83 10.3489 36.08 9.54895 36.08C9.13561 36.08 8.77561 36.01 8.46895 35.87C8.16895 35.73 7.93895 35.5367 7.77895 35.29C7.61895 35.0433 7.53895 34.7633 7.53895 34.45C7.53895 33.95 7.72561 33.5567 8.09895 33.27C8.47895 32.9833 9.06228 32.84 9.84895 32.84H11.0889C11.0889 32.5 10.9856 32.24 10.7789 32.06C10.5723 31.8733 10.2623 31.78 9.84895 31.78C9.56228 31.78 9.27895 31.8267 8.99895 31.92C8.72561 32.0067 8.49228 32.1267 8.29895 32.28L7.73895 31.19C8.03228 30.9833 8.38228 30.8233 8.78895 30.71C9.20228 30.5967 9.62561 30.54 10.0589 30.54ZM9.93895 35.03C10.2056 35.03 10.4423 34.97 10.6489 34.85C10.8556 34.7233 11.0023 34.54 11.0889 34.3V33.75H10.0189C9.37895 33.75 9.05895 33.96 9.05895 34.38C9.05895 34.58 9.13561 34.74 9.28895 34.86C9.44895 34.9733 9.66561 35.03 9.93895 35.03ZM17.5308 35.74C17.3775 35.8533 17.1875 35.94 16.9608 36C16.7408 36.0533 16.5075 36.08 16.2608 36.08C15.6208 36.08 15.1242 35.9167 14.7708 35.59C14.4242 35.2633 14.2508 34.7833 14.2508 34.15V31.94H13.4208V30.74H14.2508V29.43H15.8108V30.74H17.1508V31.94H15.8108V34.13C15.8108 34.3567 15.8675 34.5333 15.9808 34.66C16.1008 34.78 16.2675 34.84 16.4808 34.84C16.7275 34.84 16.9375 34.7733 17.1108 34.64L17.5308 35.74ZM18.4065 30.62H19.9665V36H18.4065V30.62ZM19.1865 29.87C18.8999 29.87 18.6665 29.7867 18.4865 29.62C18.3065 29.4533 18.2165 29.2467 18.2165 29C18.2165 28.7533 18.3065 28.5467 18.4865 28.38C18.6665 28.2133 18.8999 28.13 19.1865 28.13C19.4732 28.13 19.7065 28.21 19.8865 28.37C20.0665 28.53 20.1565 28.73 20.1565 28.97C20.1565 29.23 20.0665 29.4467 19.8865 29.62C19.7065 29.7867 19.4732 29.87 19.1865 29.87ZM24.6843 30.54C25.351 30.54 25.8877 30.74 26.2943 31.14C26.7077 31.54 26.9143 32.1333 26.9143 32.92V36H25.3543V33.16C25.3543 32.7333 25.261 32.4167 25.0743 32.21C24.8877 31.9967 24.6177 31.89 24.2643 31.89C23.871 31.89 23.5577 32.0133 23.3243 32.26C23.091 32.5 22.9743 32.86 22.9743 33.34V36H21.4143V30.62H22.9043V31.25C23.111 31.0233 23.3677 30.85 23.6743 30.73C23.981 30.6033 24.3177 30.54 24.6843 30.54ZM33.937 30.62V35.1C33.937 36.0867 33.6803 36.82 33.167 37.3C32.6537 37.78 31.9037 38.02 30.917 38.02C30.397 38.02 29.9037 37.9567 29.437 37.83C28.9703 37.7033 28.5837 37.52 28.277 37.28L28.897 36.16C29.1237 36.3467 29.4103 36.4933 29.757 36.6C30.1037 36.7133 30.4503 36.77 30.797 36.77C31.337 36.77 31.7337 36.6467 31.987 36.4C32.247 36.16 32.377 35.7933 32.377 35.3V35.07C31.9703 35.5167 31.4037 35.74 30.677 35.74C30.1837 35.74 29.7303 35.6333 29.317 35.42C28.9103 35.2 28.587 34.8933 28.347 34.5C28.107 34.1067 27.987 33.6533 27.987 33.14C27.987 32.6267 28.107 32.1733 28.347 31.78C28.587 31.3867 28.9103 31.0833 29.317 30.87C29.7303 30.65 30.1837 30.54 30.677 30.54C31.457 30.54 32.0503 30.7967 32.457 31.31V30.62H33.937ZM30.987 34.46C31.4003 34.46 31.737 34.34 31.997 34.1C32.2637 33.8533 32.397 33.5333 32.397 33.14C32.397 32.7467 32.2637 32.43 31.997 32.19C31.737 31.9433 31.4003 31.82 30.987 31.82C30.5737 31.82 30.2337 31.9433 29.967 32.19C29.7003 32.43 29.567 32.7467 29.567 33.14C29.567 33.5333 29.7003 33.8533 29.967 34.1C30.2337 34.34 30.5737 34.46 30.987 34.46ZM9.34082 41V48H7.72082V45.13H4.54082V48H2.92082V41H4.54082V43.76H7.72082V41H9.34082ZM13.057 42.54C13.8903 42.54 14.5303 42.74 14.977 43.14C15.4237 43.5333 15.647 44.13 15.647 44.93V48H14.187V47.33C13.8937 47.83 13.347 48.08 12.547 48.08C12.1337 48.08 11.7737 48.01 11.467 47.87C11.167 47.73 10.937 47.5367 10.777 47.29C10.617 47.0433 10.537 46.7633 10.537 46.45C10.537 45.95 10.7237 45.5567 11.097 45.27C11.477 44.9833 12.0603 44.84 12.847 44.84H14.087C14.087 44.5 13.9837 44.24 13.777 44.06C13.5703 43.8733 13.2603 43.78 12.847 43.78C12.5603 43.78 12.277 43.8267 11.997 43.92C11.7237 44.0067 11.4903 44.1267 11.297 44.28L10.737 43.19C11.0303 42.9833 11.3803 42.8233 11.787 42.71C12.2003 42.5967 12.6237 42.54 13.057 42.54ZM12.937 47.03C13.2037 47.03 13.4403 46.97 13.647 46.85C13.8537 46.7233 14.0003 46.54 14.087 46.3V45.75H13.017C12.377 45.75 12.057 45.96 12.057 46.38C12.057 46.58 12.1337 46.74 12.287 46.86C12.447 46.9733 12.6637 47.03 12.937 47.03ZM20.2389 42.54C20.7389 42.54 21.1922 42.6567 21.5989 42.89C22.0122 43.1167 22.3355 43.44 22.5689 43.86C22.8022 44.2733 22.9189 44.7567 22.9189 45.31C22.9189 45.8633 22.8022 46.35 22.5689 46.77C22.3355 47.1833 22.0122 47.5067 21.5989 47.74C21.1922 47.9667 20.7389 48.08 20.2389 48.08C19.4989 48.08 18.9355 47.8467 18.5489 47.38V48H17.0589V40.58H18.6189V43.19C19.0122 42.7567 19.5522 42.54 20.2389 42.54ZM19.9689 46.8C20.3689 46.8 20.6955 46.6667 20.9489 46.4C21.2089 46.1267 21.3389 45.7633 21.3389 45.31C21.3389 44.8567 21.2089 44.4967 20.9489 44.23C20.6955 43.9567 20.3689 43.82 19.9689 43.82C19.5689 43.82 19.2389 43.9567 18.9789 44.23C18.7255 44.4967 18.5989 44.8567 18.5989 45.31C18.5989 45.7633 18.7255 46.1267 18.9789 46.4C19.2389 46.6667 19.5689 46.8 19.9689 46.8ZM23.9632 42.62H25.5232V48H23.9632V42.62ZM24.7432 41.87C24.4565 41.87 24.2232 41.7867 24.0432 41.62C23.8632 41.4533 23.7732 41.2467 23.7732 41C23.7732 40.7533 23.8632 40.5467 24.0432 40.38C24.2232 40.2133 24.4565 40.13 24.7432 40.13C25.0298 40.13 25.2632 40.21 25.4432 40.37C25.6232 40.53 25.7132 40.73 25.7132 40.97C25.7132 41.23 25.6232 41.4467 25.4432 41.62C25.2632 41.7867 25.0298 41.87 24.7432 41.87ZM30.441 47.74C30.2876 47.8533 30.0976 47.94 29.871 48C29.651 48.0533 29.4176 48.08 29.171 48.08C28.531 48.08 28.0343 47.9167 27.681 47.59C27.3343 47.2633 27.161 46.7833 27.161 46.15V43.94H26.331V42.74H27.161V41.43H28.721V42.74H30.061V43.94H28.721V46.13C28.721 46.3567 28.7776 46.5333 28.891 46.66C29.011 46.78 29.1776 46.84 29.391 46.84C29.6376 46.84 29.8476 46.7733 30.021 46.64L30.441 47.74ZM33.1267 48.08C32.68 48.08 32.2433 48.0267 31.8167 47.92C31.39 47.8067 31.05 47.6667 30.7967 47.5L31.3167 46.38C31.5567 46.5333 31.8467 46.66 32.1867 46.76C32.5267 46.8533 32.86 46.9 33.1867 46.9C33.8467 46.9 34.1767 46.7367 34.1767 46.41C34.1767 46.2567 34.0867 46.1467 33.9067 46.08C33.7267 46.0133 33.45 45.9567 33.0767 45.91C32.6367 45.8433 32.2733 45.7667 31.9867 45.68C31.7 45.5933 31.45 45.44 31.2367 45.22C31.03 45 30.9267 44.6867 30.9267 44.28C30.9267 43.94 31.0233 43.64 31.2167 43.38C31.4167 43.1133 31.7033 42.9067 32.0767 42.76C32.4567 42.6133 32.9033 42.54 33.4167 42.54C33.7967 42.54 34.1733 42.5833 34.5467 42.67C34.9267 42.75 35.24 42.8633 35.4867 43.01L34.9667 44.12C34.4933 43.8533 33.9767 43.72 33.4167 43.72C33.0833 43.72 32.8333 43.7667 32.6667 43.86C32.5 43.9533 32.4167 44.0733 32.4167 44.22C32.4167 44.3867 32.5067 44.5033 32.6867 44.57C32.8667 44.6367 33.1533 44.7 33.5467 44.76C33.9867 44.8333 34.3467 44.9133 34.6267 45C34.9067 45.08 35.15 45.23 35.3567 45.45C35.5633 45.67 35.6667 45.9767 35.6667 46.37C35.6667 46.7033 35.5667 47 35.3667 47.26C35.1667 47.52 34.8733 47.7233 34.4867 47.87C34.1067 48.01 33.6533 48.08 33.1267 48.08Z" fill="#26325B"/>
</svg>
