<svg width="73" height="45" viewBox="0 0 73 45" fill="none" xmlns="http://www.w3.org/2000/svg">
<path d="M28 4H26V18C26 19.1 26.9 20 28 20H42V18H28V4ZM44 0H32C30.9 0 30 0.9 30 2V14C30 15.1 30.9 16 32 16H44C45.1 16 46 15.1 46 14V2C46 0.9 45.1 0 44 0ZM44 14H32V2H44V14ZM37.51 8.16C37.92 7.43 38.69 7 39.14 6.36C39.62 5.68 39.35 4.42 38 4.42C37.12 4.42 36.68 5.09 36.5 5.65L35.13 5.08C35.51 3.96 36.52 3 37.99 3C39.22 3 40.07 3.56 40.5 4.26C40.87 4.86 41.08 5.99 40.51 6.83C39.88 7.76 39.28 8.04 38.95 8.64C38.82 8.88 38.77 9.04 38.77 9.82H37.25C37.26 9.41 37.19 8.74 37.51 8.16ZM36.95 11.95C36.95 11.36 37.42 10.91 38 10.91C38.59 10.91 39.04 11.36 39.04 11.95C39.04 12.53 38.6 13 38 13C37.42 13 36.95 12.53 36.95 11.95Z" fill="#26325B"/>
<path d="M3.13 42.12C2.57667 42.12 2.04 42.0467 1.52 41.9C1.00667 41.7467 0.593333 41.55 0.28 41.31L0.83 40.09C1.13 40.31 1.48667 40.4867 1.9 40.62C2.31333 40.7533 2.72667 40.82 3.14 40.82C3.6 40.82 3.94 40.7533 4.16 40.62C4.38 40.48 4.49 40.2967 4.49 40.07C4.49 39.9033 4.42333 39.7667 4.29 39.66C4.16333 39.5467 3.99667 39.4567 3.79 39.39C3.59 39.3233 3.31667 39.25 2.97 39.17C2.43667 39.0433 2 38.9167 1.66 38.79C1.32 38.6633 1.02667 38.46 0.78 38.18C0.54 37.9 0.42 37.5267 0.42 37.06C0.42 36.6533 0.53 36.2867 0.75 35.96C0.97 35.6267 1.3 35.3633 1.74 35.17C2.18667 34.9767 2.73 34.88 3.37 34.88C3.81667 34.88 4.25333 34.9333 4.68 35.04C5.10667 35.1467 5.48 35.3 5.8 35.5L5.3 36.73C4.65333 36.3633 4.00667 36.18 3.36 36.18C2.90667 36.18 2.57 36.2533 2.35 36.4C2.13667 36.5467 2.03 36.74 2.03 36.98C2.03 37.22 2.15333 37.4 2.4 37.52C2.65333 37.6333 3.03667 37.7467 3.55 37.86C4.08333 37.9867 4.52 38.1133 4.86 38.24C5.2 38.3667 5.49 38.5667 5.73 38.84C5.97667 39.1133 6.1 39.4833 6.1 39.95C6.1 40.35 5.98667 40.7167 5.76 41.05C5.54 41.3767 5.20667 41.6367 4.76 41.83C4.31333 42.0233 3.77 42.12 3.13 42.12ZM12.367 39.33C12.367 39.35 12.357 39.49 12.337 39.75H8.26695C8.34029 40.0833 8.51362 40.3467 8.78695 40.54C9.06029 40.7333 9.40029 40.83 9.80695 40.83C10.087 40.83 10.3336 40.79 10.547 40.71C10.767 40.6233 10.9703 40.49 11.157 40.31L11.987 41.21C11.4803 41.79 10.7403 42.08 9.76695 42.08C9.16029 42.08 8.62362 41.9633 8.15695 41.73C7.69029 41.49 7.33029 41.16 7.07695 40.74C6.82362 40.32 6.69695 39.8433 6.69695 39.31C6.69695 38.7833 6.82029 38.31 7.06695 37.89C7.32029 37.4633 7.66362 37.1333 8.09695 36.9C8.53695 36.66 9.02695 36.54 9.56695 36.54C10.0936 36.54 10.5703 36.6533 10.997 36.88C11.4236 37.1067 11.757 37.4333 11.997 37.86C12.2436 38.28 12.367 38.77 12.367 39.33ZM9.57695 37.72C9.22362 37.72 8.92695 37.82 8.68695 38.02C8.44695 38.22 8.30029 38.4933 8.24695 38.84H10.897C10.8436 38.5 10.697 38.23 10.457 38.03C10.217 37.8233 9.92362 37.72 9.57695 37.72ZM13.4055 34.58H14.9655V42H13.4055V34.58ZM18.1234 36.74H19.5034V37.94H18.1634V42H16.6034V37.94H15.7734V36.74H16.6034V36.5C16.6034 35.8867 16.7834 35.4 17.1434 35.04C17.51 34.68 18.0234 34.5 18.6834 34.5C18.9167 34.5 19.1367 34.5267 19.3434 34.58C19.5567 34.6267 19.7334 34.6967 19.8734 34.79L19.4634 35.92C19.2834 35.7933 19.0734 35.73 18.8334 35.73C18.36 35.73 18.1234 35.99 18.1234 36.51V36.74ZM19.9829 38.56H22.8129V39.81H19.9829V38.56ZM24.1503 35H27.3303C28.0903 35 28.7603 35.1467 29.3403 35.44C29.927 35.7267 30.3803 36.1333 30.7003 36.66C31.027 37.1867 31.1903 37.8 31.1903 38.5C31.1903 39.2 31.027 39.8133 30.7003 40.34C30.3803 40.8667 29.927 41.2767 29.3403 41.57C28.7603 41.8567 28.0903 42 27.3303 42H24.1503V35ZM27.2503 40.67C27.9503 40.67 28.507 40.4767 28.9203 40.09C29.3403 39.6967 29.5503 39.1667 29.5503 38.5C29.5503 37.8333 29.3403 37.3067 28.9203 36.92C28.507 36.5267 27.9503 36.33 27.2503 36.33H25.7703V40.67H27.2503ZM32.302 36.62H33.862V42H32.302V36.62ZM33.082 35.87C32.7954 35.87 32.562 35.7867 32.382 35.62C32.202 35.4533 32.112 35.2467 32.112 35C32.112 34.7533 32.202 34.5467 32.382 34.38C32.562 34.2133 32.7954 34.13 33.082 34.13C33.3687 34.13 33.602 34.21 33.782 34.37C33.962 34.53 34.052 34.73 34.052 34.97C34.052 35.23 33.962 35.4467 33.782 35.62C33.602 35.7867 33.3687 35.87 33.082 35.87ZM37.4798 36.54C38.3132 36.54 38.9532 36.74 39.3998 37.14C39.8465 37.5333 40.0698 38.13 40.0698 38.93V42H38.6098V41.33C38.3165 41.83 37.7698 42.08 36.9698 42.08C36.5565 42.08 36.1965 42.01 35.8898 41.87C35.5898 41.73 35.3598 41.5367 35.1998 41.29C35.0398 41.0433 34.9598 40.7633 34.9598 40.45C34.9598 39.95 35.1465 39.5567 35.5198 39.27C35.8998 38.9833 36.4832 38.84 37.2698 38.84H38.5098C38.5098 38.5 38.4065 38.24 38.1998 38.06C37.9932 37.8733 37.6832 37.78 37.2698 37.78C36.9832 37.78 36.6998 37.8267 36.4198 37.92C36.1465 38.0067 35.9132 38.1267 35.7198 38.28L35.1598 37.19C35.4532 36.9833 35.8032 36.8233 36.2098 36.71C36.6232 36.5967 37.0465 36.54 37.4798 36.54ZM37.3598 41.03C37.6265 41.03 37.8632 40.97 38.0698 40.85C38.2765 40.7233 38.4232 40.54 38.5098 40.3V39.75H37.4398C36.7998 39.75 36.4798 39.96 36.4798 40.38C36.4798 40.58 36.5565 40.74 36.7098 40.86C36.8698 40.9733 37.0865 41.03 37.3598 41.03ZM47.0903 36.62V41.1C47.0903 42.0867 46.8336 42.82 46.3203 43.3C45.807 43.78 45.057 44.02 44.0703 44.02C43.5503 44.02 43.057 43.9567 42.5903 43.83C42.1236 43.7033 41.737 43.52 41.4303 43.28L42.0503 42.16C42.277 42.3467 42.5636 42.4933 42.9103 42.6C43.257 42.7133 43.6036 42.77 43.9503 42.77C44.4903 42.77 44.887 42.6467 45.1403 42.4C45.4003 42.16 45.5303 41.7933 45.5303 41.3V41.07C45.1236 41.5167 44.557 41.74 43.8303 41.74C43.337 41.74 42.8836 41.6333 42.4703 41.42C42.0636 41.2 41.7403 40.8933 41.5003 40.5C41.2603 40.1067 41.1403 39.6533 41.1403 39.14C41.1403 38.6267 41.2603 38.1733 41.5003 37.78C41.7403 37.3867 42.0636 37.0833 42.4703 36.87C42.8836 36.65 43.337 36.54 43.8303 36.54C44.6103 36.54 45.2036 36.7967 45.6103 37.31V36.62H47.0903ZM44.1403 40.46C44.5536 40.46 44.8903 40.34 45.1503 40.1C45.417 39.8533 45.5503 39.5333 45.5503 39.14C45.5503 38.7467 45.417 38.43 45.1503 38.19C44.8903 37.9433 44.5536 37.82 44.1403 37.82C43.727 37.82 43.387 37.9433 43.1203 38.19C42.8536 38.43 42.7203 38.7467 42.7203 39.14C42.7203 39.5333 42.8536 39.8533 43.1203 40.1C43.387 40.34 43.727 40.46 44.1403 40.46ZM51.8123 36.54C52.4789 36.54 53.0156 36.74 53.4223 37.14C53.8356 37.54 54.0423 38.1333 54.0423 38.92V42H52.4823V39.16C52.4823 38.7333 52.3889 38.4167 52.2023 38.21C52.0156 37.9967 51.7456 37.89 51.3923 37.89C50.9989 37.89 50.6856 38.0133 50.4523 38.26C50.2189 38.5 50.1023 38.86 50.1023 39.34V42H48.5423V36.62H50.0323V37.25C50.2389 37.0233 50.4956 36.85 50.8023 36.73C51.1089 36.6033 51.4456 36.54 51.8123 36.54ZM58.0749 42.08C57.5083 42.08 56.9983 41.9633 56.5449 41.73C56.0983 41.49 55.7483 41.16 55.4949 40.74C55.2416 40.32 55.1149 39.8433 55.1149 39.31C55.1149 38.7767 55.2416 38.3 55.4949 37.88C55.7483 37.46 56.0983 37.1333 56.5449 36.9C56.9983 36.66 57.5083 36.54 58.0749 36.54C58.6416 36.54 59.1483 36.66 59.5949 36.9C60.0416 37.1333 60.3916 37.46 60.6449 37.88C60.8983 38.3 61.0249 38.7767 61.0249 39.31C61.0249 39.8433 60.8983 40.32 60.6449 40.74C60.3916 41.16 60.0416 41.49 59.5949 41.73C59.1483 41.9633 58.6416 42.08 58.0749 42.08ZM58.0749 40.8C58.4749 40.8 58.8016 40.6667 59.0549 40.4C59.3149 40.1267 59.4449 39.7633 59.4449 39.31C59.4449 38.8567 59.3149 38.4967 59.0549 38.23C58.8016 37.9567 58.4749 37.82 58.0749 37.82C57.6749 37.82 57.3449 37.9567 57.0849 38.23C56.8249 38.4967 56.6949 38.8567 56.6949 39.31C56.6949 39.7633 56.8249 40.1267 57.0849 40.4C57.3449 40.6667 57.6749 40.8 58.0749 40.8ZM63.8777 42.08C63.431 42.08 62.9943 42.0267 62.5677 41.92C62.141 41.8067 61.801 41.6667 61.5477 41.5L62.0677 40.38C62.3077 40.5333 62.5977 40.66 62.9377 40.76C63.2777 40.8533 63.611 40.9 63.9377 40.9C64.5977 40.9 64.9277 40.7367 64.9277 40.41C64.9277 40.2567 64.8377 40.1467 64.6577 40.08C64.4777 40.0133 64.201 39.9567 63.8277 39.91C63.3877 39.8433 63.0243 39.7667 62.7377 39.68C62.451 39.5933 62.201 39.44 61.9877 39.22C61.781 39 61.6777 38.6867 61.6777 38.28C61.6777 37.94 61.7743 37.64 61.9677 37.38C62.1677 37.1133 62.4543 36.9067 62.8277 36.76C63.2077 36.6133 63.6543 36.54 64.1677 36.54C64.5477 36.54 64.9243 36.5833 65.2977 36.67C65.6777 36.75 65.991 36.8633 66.2377 37.01L65.7177 38.12C65.2443 37.8533 64.7277 37.72 64.1677 37.72C63.8343 37.72 63.5843 37.7667 63.4177 37.86C63.251 37.9533 63.1677 38.0733 63.1677 38.22C63.1677 38.3867 63.2577 38.5033 63.4377 38.57C63.6177 38.6367 63.9043 38.7 64.2977 38.76C64.7377 38.8333 65.0977 38.9133 65.3777 39C65.6577 39.08 65.901 39.23 66.1077 39.45C66.3143 39.67 66.4177 39.9767 66.4177 40.37C66.4177 40.7033 66.3177 41 66.1177 41.26C65.9177 41.52 65.6243 41.7233 65.2377 41.87C64.8577 42.01 64.4043 42.08 63.8777 42.08ZM72.6502 39.33C72.6502 39.35 72.6402 39.49 72.6202 39.75H68.5502C68.6235 40.0833 68.7968 40.3467 69.0702 40.54C69.3435 40.7333 69.6835 40.83 70.0902 40.83C70.3702 40.83 70.6168 40.79 70.8302 40.71C71.0502 40.6233 71.2535 40.49 71.4402 40.31L72.2702 41.21C71.7635 41.79 71.0235 42.08 70.0502 42.08C69.4435 42.08 68.9068 41.9633 68.4402 41.73C67.9735 41.49 67.6135 41.16 67.3602 40.74C67.1068 40.32 66.9802 39.8433 66.9802 39.31C66.9802 38.7833 67.1035 38.31 67.3502 37.89C67.6035 37.4633 67.9468 37.1333 68.3802 36.9C68.8202 36.66 69.3102 36.54 69.8502 36.54C70.3768 36.54 70.8535 36.6533 71.2802 36.88C71.7068 37.1067 72.0402 37.4333 72.2802 37.86C72.5268 38.28 72.6502 38.77 72.6502 39.33ZM69.8602 37.72C69.5068 37.72 69.2102 37.82 68.9702 38.02C68.7302 38.22 68.5835 38.4933 68.5302 38.84H71.1802C71.1268 38.5 70.9802 38.23 70.7402 38.03C70.5002 37.8233 70.2068 37.72 69.8602 37.72Z" fill="#26325B"/>
</svg>
