<svg width="82" height="40" viewBox="0 0 82 40" fill="none" xmlns="http://www.w3.org/2000/svg">
<path d="M8.41642 0.280789L0 11.204L4.16148 15.9021L7.17991 13.0866V39.4553H16.1548V0.280789H8.41642V0.280789ZM78.8532 27.2733C74.6589 30.6473 70.1224 31.1078 65.448 29.2216C63.0855 28.2685 61.2297 26.1988 59.4467 24.1122C56.7184 20.9189 54.5199 17.1463 52.1754 13.5405C49.7318 9.78208 47.1569 6.22943 43.8295 3.63194C41.073 1.48026 38.1406 0.119546 34.8678 0.0716599C29.7347 -0.00355883 25.4469 2.3973 22.1129 7.25452C21.2515 8.50993 20.5451 9.87764 20.0225 11.3566C19.685 12.3126 18.8769 14.7448 18.7291 16.0816C18.8529 15.7956 19.4967 13.7911 19.6187 13.5038C19.9376 12.6054 20.2571 12.1096 20.6357 11.4816C21.3087 10.3667 22.1245 9.41552 23.1715 8.72944C27.6569 5.79125 33.8078 6.84749 37.5906 11.1345C40.9166 14.9039 43.6759 19.3158 46.7126 23.4132C49.55 27.2415 52.2307 31.2652 55.3865 34.7043C58.4482 38.041 61.9691 39.9798 66.1463 39.9268C73.4173 39.835 79.7295 33.8415 81.6124 25.0765C81.8253 24.0844 82.0718 22.8521 81.9804 21.4965C81.2937 23.8893 80.3857 26.0403 78.8534 27.2733H78.8532ZM39.293 26.0995C37.5914 27.6568 35.8442 29.1175 33.5442 28.4293C30.6709 27.5693 28.7613 25.3941 28.14 21.7974C27.5597 18.4375 28.3743 15.5286 30.5405 13.2953C31.5158 12.2899 32.5969 11.7043 33.7685 11.4498C34.372 11.3187 35.1984 11.4371 35.8478 11.4695C33.6907 9.48226 31.0548 8.6841 28.4476 8.72987C23.9942 8.80826 21.248 11.0727 19.5939 16.2231C18.9278 18.2975 18.3666 20.4604 18.5673 22.7301C19.2025 28.0418 21.1789 32.4791 24.6375 35.7186C29.4911 40.2635 34.83 41.2383 40.4965 38.4112C44.0807 36.6229 46.8894 32.8232 49.4956 29.4449L43.5254 20.992C42.3689 22.6167 40.7041 24.8082 39.2931 26.0995H39.293ZM74.7133 7.98615C74.7133 6.4839 75.0048 5.06724 75.5182 3.81522C71.868 0.525727 67.1881 -0.788164 62.7462 0.471696C58.3175 1.72817 54.8364 4.91998 51.6504 8.75953C51.3183 9.15999 50.9389 9.76449 50.9389 9.76449L57.021 18.9562L57.6083 18.2172C59.1473 16.1178 60.743 14.0848 62.7253 12.6069C63.5355 12.0026 64.3759 11.4358 65.3372 11.3979C68.2041 11.2841 70.4056 12.8122 71.763 15.9214C73.1092 19.0052 72.8712 22.09 71.2925 25C70.4354 26.58 69.187 27.5265 67.8015 28.3075C70.9214 28.9512 73.9453 28.7448 76.8529 27.0693C80.2874 25.0903 81.9642 20.656 81.8848 17.1703C77.9052 17.03 74.7133 12.9735 74.7133 7.98615V7.98615Z" fill="#26325B"/>
</svg>
