<svg width="82" height="82" viewBox="0 0 82 82" fill="none" xmlns="http://www.w3.org/2000/svg">
<path d="M23.9167 20.5C23.0105 20.5 22.1415 20.86 21.5007 21.5007C20.86 22.1415 20.5 23.0105 20.5 23.9167V37.5833C20.5 38.4895 20.86 39.3585 21.5007 39.9993C22.1415 40.64 23.0105 41 23.9167 41H58.0833C58.9895 41 59.8585 40.64 60.4993 39.9993C61.14 39.3585 61.5 38.4895 61.5 37.5833V23.9167C61.5 23.0105 61.14 22.1415 60.4993 21.5007C59.8585 20.86 58.9895 20.5 58.0833 20.5H23.9167ZM27.3333 34.1667V27.3333H54.6667V34.1667H27.3333Z" fill="#26325B"/>
<path d="M17.0833 0C12.5526 0 8.20734 1.79985 5.00359 5.00359C1.79985 8.20734 0 12.5526 0 17.0833V64.9167C0 69.4475 1.79985 73.7927 5.00359 76.9964C8.20734 80.2002 12.5526 82 17.0833 82H64.9167C69.4475 82 73.7927 80.2002 76.9964 76.9964C80.2002 73.7927 82 69.4475 82 64.9167V17.0833C82 12.5526 80.2002 8.20734 76.9964 5.00359C73.7927 1.79985 69.4475 0 64.9167 0H17.0833ZM6.83333 17.0833C6.83333 14.3649 7.91324 11.7577 9.83549 9.83549C11.7577 7.91324 14.3649 6.83333 17.0833 6.83333H64.9167C67.6351 6.83333 70.2423 7.91324 72.1645 9.83549C74.0868 11.7577 75.1667 14.3649 75.1667 17.0833V64.9167C75.1667 67.6351 74.0868 70.2423 72.1645 72.1645C70.2423 74.0868 67.6351 75.1667 64.9167 75.1667H17.0833C14.3649 75.1667 11.7577 74.0868 9.83549 72.1645C7.91324 70.2423 6.83333 67.6351 6.83333 64.9167V17.0833Z" fill="#26325B"/>
</svg>
