<svg width="82" height="82" viewBox="0 0 82 82" fill="none" xmlns="http://www.w3.org/2000/svg">
<path d="M52.7142 5.85714C55.6103 5.85714 58.4414 6.71593 60.8494 8.32491C63.2574 9.93389 65.1342 12.2208 66.2425 14.8964C67.3508 17.5721 67.6407 20.5162 67.0757 23.3567C66.5107 26.1971 65.1161 28.8062 63.0683 30.8541C61.0205 32.9019 58.4114 34.2965 55.5709 34.8615C52.7305 35.4265 49.7863 35.1365 47.1107 34.0282C44.435 32.92 42.1481 31.0431 40.5392 28.6351C38.9302 26.2271 38.0714 23.3961 38.0714 20.5C38.0714 16.6165 39.6141 12.892 42.3602 10.1459C45.1062 7.39987 48.8307 5.85714 52.7142 5.85714V5.85714ZM52.7142 0C48.6597 0 44.6963 1.2023 41.3251 3.45487C37.9538 5.70744 35.3263 8.9091 33.7747 12.655C32.2231 16.4009 31.8171 20.5227 32.6081 24.4994C33.3991 28.476 35.3516 32.1287 38.2186 34.9957C41.0855 37.8627 44.7383 39.8151 48.7149 40.6061C52.6915 41.3971 56.8134 40.9911 60.5593 39.4395C64.3051 37.8879 67.5068 35.2604 69.7594 31.8892C72.0119 28.518 73.2142 24.5545 73.2142 20.5C73.2142 15.0631 71.0544 9.84881 67.2099 6.00431C63.3654 2.15982 58.1512 0 52.7142 0V0Z" fill="#26325B"/>
<path d="M82 82H76.1429V67.3572C76.1429 63.4737 74.6002 59.7492 71.8541 57.0031C69.108 54.257 65.3835 52.7143 61.5 52.7143H43.9286C40.0451 52.7143 36.3206 54.257 33.5745 57.0031C30.8285 59.7492 29.2857 63.4737 29.2857 67.3572V82H23.4286V67.3572C23.4286 61.9202 25.5884 56.706 29.4329 52.8615C33.2774 49.017 38.4917 46.8572 43.9286 46.8572H61.5C66.937 46.8572 72.1512 49.017 75.9957 52.8615C79.8402 56.706 82 61.9202 82 67.3572V82Z" fill="#26325B"/>
<path d="M26.3571 17.5713H8.78571C6.4556 17.5713 4.22092 16.6457 2.57328 14.998C0.925635 13.3504 0 11.1157 0 8.78561V2.92847H5.85714V8.78561C5.85714 9.56232 6.16569 10.3072 6.7149 10.8564C7.26412 11.4056 8.00901 11.7142 8.78571 11.7142H26.3571V17.5713Z" fill="#26325B"/>
<path d="M5.85714 38.0713H0V32.2142C0 29.8841 0.925635 27.6494 2.57328 26.0017C4.22092 24.3541 6.4556 23.4285 8.78571 23.4285H26.3571V29.2856H8.78571C8.00901 29.2856 7.26412 29.5942 6.7149 30.1434C6.16569 30.6926 5.85714 31.4375 5.85714 32.2142V38.0713Z" fill="#26325B"/>
</svg>
