<svg width="50" height="50" viewBox="0 0 68 68" fill="none" xmlns="http://www.w3.org/2000/svg">
<path d="M43.7142 4.85714C46.1159 4.85714 48.4636 5.56931 50.4605 6.90358C52.4573 8.23786 54.0137 10.1343 54.9328 12.3531C55.8518 14.5719 56.0923 17.0135 55.6238 19.369C55.1552 21.7244 53.9987 23.8881 52.3005 25.5863C50.6023 27.2845 48.4387 28.441 46.0832 28.9095C43.7277 29.3781 41.2862 29.1376 39.0674 28.2185C36.8486 27.2995 34.9521 25.7431 33.6178 23.7462C32.2836 21.7493 31.5714 19.4016 31.5714 17C31.5714 13.7795 32.8507 10.6909 35.1279 8.4137C37.4052 6.13648 40.4938 4.85714 43.7142 4.85714V4.85714ZM43.7142 0C40.352 0 37.0652 0.997033 34.2695 2.86502C31.4739 4.733 29.295 7.38804 28.0083 10.4944C26.7216 13.6007 26.3849 17.0189 27.0409 20.3165C27.6968 23.6142 29.3159 26.6433 31.6934 29.0208C34.0709 31.3983 37.1 33.0174 40.3977 33.6733C43.6954 34.3293 47.1135 33.9926 50.2199 32.706C53.3262 31.4193 55.9812 29.2403 57.8492 26.4447C59.7172 23.6491 60.7142 20.3623 60.7142 17C60.7142 12.4913 58.9232 8.1673 55.7351 4.97918C52.5469 1.79107 48.2229 0 43.7142 0V0Z" fill="#26325B"/>
<path d="M68 68H63.1429V55.8572C63.1429 52.6367 61.8635 49.5481 59.5863 47.2709C57.3091 44.9937 54.2205 43.7143 51 43.7143H36.4286C33.2081 43.7143 30.1195 44.9937 27.8423 47.2709C25.5651 49.5481 24.2857 52.6367 24.2857 55.8572V68H19.4286V55.8572C19.4286 51.3485 21.2197 47.0245 24.4078 43.8364C27.5959 40.6482 31.9199 38.8572 36.4286 38.8572H51C55.5087 38.8572 59.8327 40.6482 63.0208 43.8364C66.209 47.0245 68 51.3485 68 55.8572V68Z" fill="#26325B"/>
<path d="M21.8571 14.5713H7.28571C5.35342 14.5713 3.50027 13.8037 2.13394 12.4374C0.7676 11.0711 0 9.2179 0 7.28561V2.42847H4.85714V7.28561C4.85714 7.92971 5.11301 8.54742 5.56846 9.00287C6.0239 9.45831 6.64162 9.71418 7.28571 9.71418H21.8571V14.5713Z" fill="#26325B"/>
<path d="M4.85714 31.5713H0V26.7142C0 24.7819 0.7676 22.9287 2.13394 21.5624C3.50027 20.1961 5.35342 19.4285 7.28571 19.4285H21.8571V24.2856H7.28571C6.64162 24.2856 6.0239 24.5415 5.56846 24.9969C5.11301 25.4524 4.85714 26.0701 4.85714 26.7142V31.5713Z" fill="#26325B"/>
</svg>
