<svg width="72" height="62" viewBox="0 0 72 62" fill="none" xmlns="http://www.w3.org/2000/svg">
<g filter="url(#filter0_d)">
<path d="M52.5918 20.4592H37.4998V26.3217C37.4998 30.4778 34.2928 33.8593 30.351 33.8593C26.4092 33.8593 23.2021 30.4778 23.2021 26.3217V13.5917L16.7582 17.6745C14.8419 18.8784 13.6703 21.0664 13.6703 23.4114V28.3631L5.72713 33.1997C4.208 34.121 3.68176 36.1729 4.56544 37.7746L12.5086 52.2843C13.3824 53.886 15.3284 54.4304 16.8476 53.5091L27.1141 47.2593H40.6771C44.182 47.2593 47.0316 44.2547 47.0316 40.5593H48.6202C50.3777 40.5593 51.7975 39.0622 51.7975 37.2093V30.5092H52.5918C53.9124 30.5092 54.9748 29.3891 54.9748 27.9967V22.9717C54.9748 21.5794 53.9124 20.4592 52.5918 20.4592ZM67.2569 16.5439L59.3137 2.03419C58.44 0.432467 56.4939 -0.111909 54.9748 0.809343L44.7082 7.0592H34.5608C33.3694 7.0592 32.2077 7.41514 31.1949 8.07467L27.8687 10.2626C26.9354 10.8698 26.3794 11.9481 26.3794 13.0997V26.3217C26.3794 28.6353 28.1567 30.5092 30.351 30.5092C32.5453 30.5092 34.3225 28.6353 34.3225 26.3217V17.1092H52.5918C55.6599 17.1092 58.1521 19.7369 58.1521 22.9717V25.9553L66.0952 21.1188C67.6143 20.187 68.1307 18.1456 67.2569 16.5439Z" fill="white"/>
</g>
<defs>
<filter id="filter0_d" x="0.13623" y="0.36145" width="71.5455" height="61.5956" filterUnits="userSpaceOnUse" color-interpolation-filters="sRGB">
<feFlood flood-opacity="0" result="BackgroundImageFix"/>
<feColorMatrix in="SourceAlpha" type="matrix" values="0 0 0 0 0 0 0 0 0 0 0 0 0 0 0 0 0 0 127 0"/>
<feOffset dy="4"/>
<feGaussianBlur stdDeviation="2"/>
<feColorMatrix type="matrix" values="0 0 0 0 0 0 0 0 0 0 0 0 0 0 0 0 0 0 0.25 0"/>
<feBlend mode="normal" in2="BackgroundImageFix" result="effect1_dropShadow"/>
<feBlend mode="normal" in="SourceGraphic" in2="effect1_dropShadow" result="shape"/>
</filter>
</defs>
</svg>
